SplineFontDB: 1.0
FontName: FreeSansBoldOblique
FullName: Free Sans Bold Oblique
FamilyName: FreeSans
Weight: Bold
Copyright: Copyright 2002 Free Software Foundation.
Version: 1
ItalicAngle: -12
UnderlinePosition: -111
UnderlineWidth: 69
Ascent: 800
Descent: 200
FSType: 0
LangName: 0 "" "" "" "" "" "" "" "" "" "" "" "" "" "" "" "" "" "" "" "The quick brown fox jumps over the lazy dog." 
Encoding: unicode
DisplaySize: -36
AntiAlias: 1
BeginPrivate: 8
UniqueID 7 5020910
BlueValues 31 [-23 0 540 560 729 749 701 724]
BlueScale 8 0.039625
StdHW 5 [113]
StdVW 5 [145]
StemSnapH 196 [104 113 127] 
systemdict /internaldict known
{1183615869 systemdict /internaldict get exec
/StemSnapLength 2 copy known { get 3 lt } { pop pop true } ifelse }
{ true } ifelse { pop [113 127] } if
StemSnapV 2 []
ForceBold 5 false
EndPrivate
BeginChars: 65536 628
StartChar: exclam
Encoding: 33 33
Width: 333
Flags: W
HStem: 0 146<143 262>
DStem: 143 146 293 146 112 0 262 0 267 726 417 726 222 516 372 516
Fore
417 726 m 1
 372 516 l 1
 265 207 l 1
 198 207 l 1
 222 516 l 1
 267 726 l 1
 417 726 l 1
293 146 m 1
 262 0 l 1
 112 0 l 1
 143 146 l 1
 293 146 l 1
EndSplineSet
EndChar
StartChar: quotedbl
Encoding: 34 34
Width: 474
Flags: W
HStem: 470 259<205 246 441 482>
DStem: 205 729 343 729 177 599 315 599 441 729 579 729 413 599 551 599
Fore
343 729 m 1
 315 599 l 1
 246 470 l 1
 190 470 l 1
 177 599 l 1
 205 729 l 1
 343 729 l 1
579 729 m 1
 551 599 l 1
 482 470 l 1
 426 470 l 1
 413 599 l 1
 441 729 l 1
 579 729 l 1
EndSplineSet
EndChar
StartChar: numbersign
Encoding: 35 35
Width: 556
Flags: W
HStem: 172 100<60 115 263 323 472 549> 424 100<142 218 366 426 574 639> 424 273<331 365 539 573>
DStem: 116 172 222 172 33 -32 138 -32 219 424 325 424 157 272 262 272 324 172 430 172 241 -32 346 -32 331 697 437 697 260 524 365 524 427 424 533 424 365 272 471 272 539 697 645 697 468 524 573 524
Fore
138 -32 m 1
 33 -32 l 1
 116 172 l 1
 39 172 l 1
 60 272 l 1
 157 272 l 1
 219 424 l 1
 120 424 l 1
 142 524 l 1
 260 524 l 1
 331 697 l 1
 437 697 l 1
 365 524 l 1
 468 524 l 1
 539 697 l 1
 645 697 l 1
 573 524 l 1
 660 524 l 1
 639 424 l 1
 533 424 l 1
 471 272 l 1
 570 272 l 1
 549 172 l 1
 430 172 l 1
 346 -32 l 1
 241 -32 l 1
 324 172 l 1
 222 172 l 1
 138 -32 l 1
262 272 m 1
 365 272 l 1
 427 424 l 1
 325 424 l 1
 262 272 l 1
EndSplineSet
EndChar
StartChar: dollar
Encoding: 36 36
Width: 556
Flags: W
VStem: 59.4523 136.966<148 174> 142.002 129.998<475 501> 429.996 143.004<198 237> 498 130<530 549>
DStem: 239 -21 306 -21 216 -126 284 -126 307 299 371 282 261 86 329 86 372 608 440 608 334 427 397 407
Fore
623 498 m 1
 495 498 l 1
 497 517 498 526 498 538 c 0
 498 576 476 602 440 608 c 1
 397 407 l 1
 452 390 486 374 514 353 c 0
 552 324 573 283 573 237 c 0
 573 149 521 61 445 19 c 0
 406 -2 362 -15 306 -21 c 1
 284 -126 l 1
 216 -126 l 1
 239 -21 l 1
 123 -9 59 51 59 148 c 0
 59 166 61 182 67 207 c 1
 197 207 l 1
 196 188 196 181 196 174 c 0
 196 123 217 95 261 86 c 1
 307 299 l 1
 196 327 142 384 142 475 c 0
 142 556 191 634 269 674 c 0
 307 694 342 704 394 709 c 1
 405 763 l 1
 473 763 l 1
 461 709 l 1
 517 704 551 692 578 669 c 0
 610 641 628 597 628 547 c 0
 628 532 627 520 623 498 c 1
334 427 m 1
 372 608 l 1
 346 603 333 599 319 589 c 0
 291 570 272 535 272 501 c 0
 272 468 293 443 334 427 c 1
371 282 m 1
 329 86 l 1
 393 101 430 142 430 198 c 0
 430 238 410 266 371 282 c 1
EndSplineSet
EndChar
StartChar: percent
Encoding: 37 37
Width: 889
Flags: W
HStem: -19.6968 98.4075<678 700> 246 97.0441<729 750> 337.203 98.7946<280 302> 603 97.0441<331 352>
VStem: 129.281 99.7195<482 501> 404.97 99.0613<536 557> 527.63 99.3702<125 144> 802.97 99.0613<179 200>
DStem: 756 709 833 709 206 -20 282 -20
Fore
756 709 m 1
 833 709 l 1
 282 -20 l 1
 206 -20 l 1
 756 709 l 1
352 701 m 0
 441 701 505 640 505 557 c 0
 505 442 398 337 280 337 c 0
 194 337 129 399 129 482 c 0
 129 595 237 701 352 701 c 0
331 603 m 0
 278 603 229 554 229 501 c 0
 229 464 261 435 302 435 c 0
 356 435 405 483 405 536 c 0
 405 574 373 603 331 603 c 0
750 344 m 0
 839 344 903 283 903 200 c 0
 903 85 796 -20 678 -20 c 0
 592 -20 527 42 527 125 c 0
 527 238 635 344 750 344 c 0
729 246 m 0
 676 246 627 197 627 144 c 0
 627 107 659 78 700 78 c 0
 754 78 803 126 803 179 c 0
 803 217 771 246 729 246 c 0
EndSplineSet
EndChar
StartChar: ampersand
Encoding: 38 38
Width: 722
Flags: W
HStem: -22.2357 115.236<313 316> 0 21G<536 696> 615 107.051<448 471>
VStem: 89.0022 136.998<156 187> 246.003 136.997<523 552> 498.99 125.01<574 605>
DStem: 347 319 465 392 446 152 547 255 499 60 602 160 536 0 696 0
Fore
607 373 m 1
 720 373 l 1
 709 300 661 213 602 160 c 1
 696 0 l 1
 536 0 l 1
 499 60 l 1
 407 -6 364 -23 287 -23 c 0
 163 -23 89 44 89 156 c 0
 89 231 126 297 195 344 c 0
 226 366 249 378 299 401 c 1
 263 452 246 492 246 523 c 0
 246 630 351 723 471 723 c 0
 562 723 624 676 624 605 c 0
 624 560 603 508 571 471 c 0
 549 446 519 424 465 392 c 1
 547 255 l 1
 581 286 596 316 607 373 c 1
347 319 m 1
 295 290 l 2
 246 262 226 233 226 187 c 0
 226 135 266 93 315 93 c 0
 349 93 380 107 446 152 c 1
 347 319 l 1
419 470 m 1
 471 497 499 533 499 574 c 0
 499 599 480 615 448 615 c 0
 410 615 383 589 383 552 c 0
 383 534 388 524 419 470 c 1
EndSplineSet
MinimumDistance: x3,-1 
EndChar
StartChar: quotesingle
Encoding: 39 39
Width: 238
Flags: W
HStem: 470 259<205 245>
DStem: 205 729 343 729 177 599 315 599
Fore
343 729 m 1
 315 599 l 1
 245 470 l 1
 190 470 l 1
 177 599 l 1
 205 729 l 1
 343 729 l 1
EndSplineSet
EndChar
StartChar: parenleft
Encoding: 40 40
Width: 333
Flags: W
HStem: 709 20G<358 458>
VStem: 84 119<104 136>
Fore
358 729 m 1
 458 729 l 1
 387 632 351 577 315 513 c 0
 240 377 203 245 203 112 c 0
 203 20 217 -56 261 -200 c 1
 161 -200 l 1
 110 -83 84 25 84 122 c 0
 84 324 168 510 358 729 c 1
EndSplineSet
MinimumDistance: x3,-1 
EndChar
StartChar: parenright
Encoding: 41 41
Width: 333
Flags: W
HStem: 709 20G<176 276>
VStem: 237 119<392 440>
Fore
79 -200 m 1
 -21 -200 l 1
 56 -96 88 -48 124 16 c 0
 200 152 237 284 237 416 c 0
 237 509 223 582 176 729 c 1
 276 729 l 1
 331 608 356 504 356 406 c 0
 356 268 310 123 226 -9 c 0
 190 -64 136 -135 79 -200 c 1
EndSplineSet
EndChar
StartChar: asterisk
Encoding: 42 42
Width: 389
Flags: W
HStem: 709 20G<307 379>
DStem: 246 544 295 501 159 450 208 407 295 501 362 544 342 407 409 450 307 729 379 729 283 613 354 613
Fore
246 544 m 1
 145 580 l 1
 182 649 l 1
 283 613 l 1
 307 729 l 1
 379 729 l 1
 354 613 l 1
 471 649 l 1
 478 579 l 1
 362 544 l 1
 409 450 l 1
 342 407 l 1
 295 501 l 1
 208 407 l 1
 159 450 l 1
 246 544 l 1
EndSplineSet
EndChar
StartChar: plus
Encoding: 43 43
Width: 584
Flags: W
HStem: 172 120<112 268 414 571> 172 301<388 413>
DStem: 112 292 388 172 87 172 349 -10 269 172 388 172 230 -10 349 -10 333 473 452 473 294 292 413 292
Fore
596 292 m 1
 571 172 l 1
 388 172 l 1
 349 -10 l 1
 230 -10 l 1
 269 172 l 1
 87 172 l 1
 112 292 l 1
 294 292 l 1
 333 473 l 1
 452 473 l 1
 413 292 l 1
 596 292 l 1
EndSplineSet
MinimumDistance: x10,-1 
EndChar
StartChar: comma
Encoding: 44 44
Width: 278
Flags: W
HStem: 0 146<95 149>
DStem: 95 146 245 146 64 0 216 9
Fore
95 146 m 1
 245 146 l 1
 216 9 l 1
 197 -101 137 -158 27 -174 c 1
 39 -118 l 1
 101 -107 137 -68 150 0 c 1
 64 0 l 1
 95 146 l 1
EndSplineSet
MinimumDistance: x1,-1 
EndChar
StartChar: hyphen
Encoding: 45 45
Width: 333
Flags: W
HStem: 207 135<99 342>
DStem: 99 342 371 342 70 207 342 207
Fore
371 342 m 1
 342 207 l 1
 70 207 l 1
 99 342 l 1
 371 342 l 1
EndSplineSet
EndChar
StartChar: period
Encoding: 46 46
Width: 278
Flags: W
HStem: 0 146<95 214>
DStem: 95 146 245 146 64 0 214 0
Fore
245 146 m 1
 214 0 l 1
 64 0 l 1
 95 146 l 1
 245 146 l 1
EndSplineSet
MinimumDistance: x0,-1 
EndChar
StartChar: slash
Encoding: 47 47
Width: 278
Flags: W
DStem: 360 714 427 714 -1 -14 66 -14
Fore
360 714 m 1
 427 714 l 1
 66 -14 l 1
 -1 -14 l 1
 360 714 l 1
EndSplineSet
EndChar
StartChar: zero
Encoding: 48 48
Width: 556
Flags: W
HStem: -22.4762 122.135<271 300> 611.749 111.56<394 421>
VStem: 81 143<169 201> 471 143<505 543>
Fore
421 724 m 0
 541 724 614 649 614 526 c 0
 614 425 576 251 534 160 c 0
 479 41 387 -23 271 -23 c 0
 153 -23 81 53 81 176 c 0
 81 277 119 449 161 541 c 0
 216 659 308 724 421 724 c 0
394 612 m 0
 359 612 330 593 306 555 c 0
 273 502 224 280 224 183 c 0
 224 132 254 99 300 99 c 0
 359 99 393 138 421 237 c 0
 448 332 471 466 471 528 c 0
 471 579 441 612 394 612 c 0
EndSplineSet
EndChar
StartChar: one
Encoding: 49 49
Width: 556
Flags: W
HStem: 0 21G<238 378> 489 93<192.125 223.26>
DStem: 192 582 529 709 172 489 378 0 342 489 529 709 238 0 378 0
Fore
342 489 m 1
 172 489 l 1
 192 582 l 1
 314 582 396 625 436 709 c 1
 529 709 l 1
 378 0 l 1
 238 0 l 1
 342 489 l 1
EndSplineSet
MinimumDistance: x4,-1 
EndChar
StartChar: two
Encoding: 50 50
Width: 556
Flags: W
HStem: 0 125<239 512> 612 111.288<398 414>
VStem: 485 142.147<531 544>
Fore
538 125 m 1
 512 0 l 1
 30 0 l 1
 65 132 114 194 253 277 c 1
 367 348 400 371 431 404 c 1
 465 438 485 486 485 532 c 0
 485 582 453 612 399 612 c 0
 330 612 285 559 272 462 c 1
 138 462 l 1
 164 630 266 724 421 724 c 0
 551 724 628 660 628 552 c 0
 628 489 605 428 563 378 c 0
 531 340 494 311 411 259 c 0
 292 184 263 162 238 125 c 1
 538 125 l 1
EndSplineSet
EndChar
StartChar: three
Encoding: 51 51
Width: 556
Flags: W
HStem: -22.8596 121.86<283 301> 316.914 94.0859<304 323> 612 111.13<387 390>
VStem: 67.6583 142.707<151 176> 421.996 143.004<230 257> 464.202 147.917<542 573>
Fore
284 317 m 1
 304 411 l 1
 316 411 l 2
 406 411 465 463 465 542 c 0
 465 583 433 612 388 612 c 0
 348 612 315 593 296 561 c 0
 286 544 280 525 271 486 c 1
 142 486 l 1
 157 564 175 607 212 647 c 0
 258 697 328 724 413 724 c 0
 540 724 613 669 613 573 c 0
 613 494 573 429 493 380 c 1
 542 350 565 311 565 257 c 0
 565 193 540 122 500 72 c 0
 449 10 370 -23 272 -23 c 0
 142 -23 67 41 67 151 c 0
 67 170 69 185 73 208 c 1
 209 208 l 1
 210 198 l 1
 210 176 l 1
 211 127 243 99 300 99 c 0
 367 99 422 159 422 230 c 0
 422 271 401 300 365 310 c 0
 342 316 333 317 284 317 c 1
EndSplineSet
EndChar
StartChar: four
Encoding: 52 52
Width: 556
Flags: W
HStem: 0 21G<308 448> 157 116<183 341 507 555>
DStem: 82 275 482 157 57 157 448 0 342 157 482 157 308 0 448 0 431 577 599 709 366 273 506 273 434 709 431 577 82 275 182 273
Fore
580 273 m 1
 555 157 l 1
 482 157 l 1
 448 0 l 1
 308 0 l 1
 342 157 l 1
 57 157 l 1
 82 275 l 1
 434 709 l 1
 599 709 l 1
 506 273 l 1
 580 273 l 1
366 273 m 1
 431 577 l 1
 182 273 l 1
 366 273 l 1
EndSplineSet
EndChar
StartChar: five
Encoding: 53 53
Width: 556
Flags: W
HStem: -22.158 121.233<259 288> 366.997 112.003<339 396> 584 125<318 614>
VStem: 59.3581 141.449<141 163> 429 142.052<276 281>
DStem: 258 709 318 584 112 314 264 436
Fore
641 709 m 1
 614 584 l 1
 318 584 l 1
 264 436 l 1
 311 467 349 479 396 479 c 0
 505 479 572 410 572 300 c 0
 572 231 548 158 506 101 c 0
 448 21 360 -23 259 -23 c 0
 139 -23 59 42 59 141 c 0
 59 154 60 165 64 185 c 1
 202 185 l 1
 201 176 200 168 200 163 c 0
 200 124 235 99 288 99 c 0
 369 99 429 175 429 276 c 0
 429 334 397 367 339 367 c 0
 297 367 260 348 238 314 c 1
 112 314 l 1
 258 709 l 1
 641 709 l 1
EndSplineSet
EndChar
StartChar: six
Encoding: 54 54
Width: 556
Flags: W
HStem: -22.9115 121.912<291 303> 354.995 112.005<352 409> 548 21G<494 624> 611.864 111.354<414 443>
VStem: 85.1967 129.803<185 201> 433.367 142.987<269 300>
Fore
624 548 m 1
 494 548 l 1
 485 594 462 612 414 612 c 0
 357 612 320 582 292 512 c 0
 279 480 277 473 260 411 c 1
 310 449 357 467 409 467 c 0
 514 467 577 404 577 300 c 0
 577 229 549 148 503 88 c 0
 450 17 370 -23 284 -23 c 0
 163 -23 85 53 85 171 c 0
 85 293 132 477 185 564 c 0
 250 670 336 724 443 724 c 0
 556 724 625 666 625 571 c 0
 625 566 625 557 624 548 c 1
352 355 m 0
 278 355 215 278 215 188 c 0
 215 136 250 99 301 99 c 0
 374 99 434 176 434 269 c 0
 434 320 401 355 352 355 c 0
EndSplineSet
EndChar
StartChar: seven
Encoding: 55 55
Width: 556
Flags: W
HStem: 0 21G<131 273> 584 125<178 503>
Fore
679 709 m 1
 656 599 l 1
 551 491 l 1
 404 328 326 191 273 0 c 1
 131 0 l 1
 211 242 309 396 504 584 c 1
 151 584 l 1
 178 709 l 1
 679 709 l 1
EndSplineSet
EndChar
StartChar: eight
Encoding: 56 56
Width: 556
Flags: W
HStem: -22.9099 121.91<284 300> 329.87 96.043<342 363> 612 111.046<398 412>
VStem: 60.4659 143.286<155 180> 156 122<489 505> 432 143<233 255> 489.993 130.007<540 570>
Fore
491 386 m 1
 552 349 575 313 575 253 c 0
 575 185 542 110 489 59 c 0
 435 6 359 -23 276 -23 c 0
 143 -23 60 46 60 155 c 0
 60 210 82 269 119 313 c 0
 145 343 171 361 221 386 c 1
 174 422 156 452 156 495 c 0
 156 620 277 724 422 724 c 0
 539 724 620 661 620 570 c 0
 620 522 598 473 560 436 c 1
 544 419 525 406 491 386 c 1
398 612 m 0
 331 612 278 563 278 500 c 0
 278 455 312 425 363 425 c 0
 433 425 490 476 490 540 c 0
 490 583 453 612 398 612 c 0
342 330 m 0
 264 330 203 264 203 180 c 0
 203 133 243 99 297 99 c 0
 376 99 432 161 432 247 c 0
 432 298 397 330 342 330 c 0
EndSplineSet
EndChar
StartChar: nine
Encoding: 57 57
Width: 556
Flags: W
HStem: -22.9985 121.999<248 285> 228.002 115.998<289 337> 612 111.06<390 404>
VStem: 68.0034 137.997<132 153> 120.655 136.345<403 431> 481 130<505 521>
Fore
72 165 m 1
 207 165 l 1
 206 160 206 156 206 153 c 0
 206 121 238 99 285 99 c 0
 335 99 378 129 402 182 c 0
 414 210 425 243 436 291 c 1
 380 243 345 228 289 228 c 0
 185 228 120 295 120 403 c 0
 120 582 249 724 413 724 c 0
 533 724 611 643 611 519 c 0
 611 398 568 241 507 135 c 0
 447 31 358 -23 248 -23 c 0
 141 -23 68 40 68 132 c 0
 68 142 69 149 72 165 c 1
389 612 m 0
 315 612 257 532 257 431 c 0
 257 378 288 344 337 344 c 0
 417 344 481 422 481 519 c 0
 481 576 445 612 389 612 c 0
EndSplineSet
EndChar
StartChar: colon
Encoding: 58 58
Width: 333
Flags: W
HStem: 0 146<144 263> 374 146<224 343>
DStem: 144 146 294 146 113 0 263 0 224 520 374 520 193 374 343 374
Fore
294 146 m 1
 263 0 l 1
 113 0 l 1
 144 146 l 1
 294 146 l 1
374 520 m 1
 343 374 l 1
 193 374 l 1
 224 520 l 1
 374 520 l 1
EndSplineSet
EndChar
StartChar: semicolon
Encoding: 59 59
Width: 333
Flags: W
HStem: 0 146<144 198> 374 146<224 343>
DStem: 144 146 294 146 113 0 265 9 224 520 374 520 193 374 343 374
Fore
144 146 m 1
 294 146 l 1
 265 9 l 1
 246 -101 186 -158 76 -174 c 1
 88 -118 l 1
 150 -107 186 -68 199 0 c 1
 113 0 l 1
 144 146 l 1
374 520 m 1
 343 374 l 1
 193 374 l 1
 224 520 l 1
 374 520 l 1
EndSplineSet
EndChar
StartChar: less
Encoding: 60 60
Width: 584
Flags: W
DStem: 630 474 603 345 103 293 263 232
Fore
630 474 m 1
 603 345 l 1
 263 232 l 1
 555 121 l 1
 527 -10 l 1
 77 172 l 1
 103 293 l 1
 630 474 l 1
EndSplineSet
EndChar
StartChar: equal
Encoding: 61 61
Width: 584
Flags: W
HStem: 52 120<86 546> 292 120<137 597>
Fore
622 412 m 1
 597 292 l 1
 112 292 l 1
 137 412 l 1
 622 412 l 1
571 172 m 1
 546 52 l 1
 61 52 l 1
 86 172 l 1
 571 172 l 1
EndSplineSet
EndChar
StartChar: greater
Encoding: 62 62
Width: 584
Flags: W
DStem: 405 232 565 171 65 119 38 -10
Fore
38 -10 m 1
 65 119 l 1
 405 232 l 1
 113 343 l 1
 141 474 l 1
 591 292 l 1
 565 171 l 1
 38 -10 l 1
EndSplineSet
MinimumDistance: x6,-1 
EndChar
StartChar: question
Encoding: 63 63
Width: 611
Flags: W
HStem: 0 146<268 387> 620 123.089<431 440>
VStem: 528.995 143.005<533 566>
DStem: 268 146 418 146 237 0 387 0
Fore
414 201 m 1
 292 201 l 1
 299 277 338 333 432 399 c 0
 488 438 497 447 512 473 c 0
 523 492 529 513 529 533 c 0
 529 584 491 620 438 620 c 0
 370 620 321 569 304 481 c 1
 168 481 l 1
 187 565 209 614 248 657 c 0
 301 714 372 744 456 744 c 0
 520 744 574 729 609 700 c 1
 649 669 672 618 672 566 c 0
 672 512 652 452 621 413 c 0
 601 386 564 356 505 320 c 0
 437 278 428 267 414 201 c 1
418 146 m 1
 387 0 l 1
 237 0 l 1
 268 146 l 1
 418 146 l 1
EndSplineSet
EndChar
StartChar: at
Encoding: 64 64
Width: 975
Flags: W
HStem: -137 83<452 489> 53.9923 85.0077<438 468 722 725> 662 83<640 673>
VStem: 73 100<174 199> 301.003 99.9969<189 215> 939 93<423 441>
Fore
750 508 m 1
 840 508 l 1
 704 228 l 1
 687 195 685 188 685 174 c 0
 685 153 701 139 724 139 c 0
 766 139 825 179 870 237 c 0
 913 293 939 363 939 425 c 0
 939 476 918 526 876 571 c 0
 817 634 746 662 641 662 c 0
 490 662 360 596 272 475 c 0
 210 389 173 286 173 196 c 0
 173 50 298 -54 476 -54 c 0
 539 -54 594 -43 688 -13 c 1
 700 -92 l 1
 624 -123 548 -137 453 -137 c 0
 327 -137 236 -107 168 -42 c 0
 107 15 73 96 73 181 c 0
 73 311 133 450 235 557 c 0
 349 677 506 745 670 745 c 0
 798 745 896 703 965 618 c 0
 1010 564 1032 504 1032 439 c 0
 1032 349 1002 264 944 193 c 0
 873 106 787 56 705 56 c 0
 649 56 612 80 597 126 c 1
 548 78 493 53 438 53 c 0
 357 53 301 109 301 189 c 0
 301 249 335 324 391 390 c 0
 460 470 548 518 626 518 c 0
 676 518 703 499 723 449 c 1
 750 508 l 1
606 446 m 0
 520 451 401 317 401 215 c 0
 401 168 428 136 468 136 c 0
 513 136 565 169 608 227 c 0
 646 277 671 335 671 376 c 0
 671 416 645 444 606 446 c 0
EndSplineSet
EndChar
StartChar: A
Encoding: 65 65
Width: 722
Flags: W
HStem: 0 21G<26 179 550 703> 147 125<330 517> 709 20G<433 606>
DStem: 433 729 483 555 26 0 329 272 433 729 260 147 26 0 179 0
Fore
532 147 m 1
 260 147 l 1
 179 0 l 1
 26 0 l 1
 433 729 l 1
 606 729 l 1
 703 0 l 1
 550 0 l 1
 532 147 l 1
518 272 m 1
 483 555 l 1
 329 272 l 1
 518 272 l 1
EndSplineSet
MinimumDistance: x9,-1 
EndChar
StartChar: B
Encoding: 66 66
Width: 722
Flags: W
HStem: 0 125<260 439> 314 125<326 498> 604 125<360 546>
VStem: 568 148<240 257> 612.995 149.005<542 571>
DStem: 237 729 360 604 82 0 325 439 237 729 299 314 82 0 259 125
Fore
82 0 m 1
 237 729 l 1
 562 729 l 2
 636 729 686 712 721 676 c 0
 747 649 762 610 762 571 c 0
 762 502 721 438 645 388 c 1
 696 348 716 310 716 255 c 0
 716 196 684 126 635 78 c 0
 579 24 510 0 410 0 c 2
 82 0 l 1
325 439 m 1
 489 439 l 2
 541 439 563 446 585 471 c 0
 602 490 613 517 613 542 c 0
 613 585 586 604 524 604 c 2
 360 604 l 1
 325 439 l 1
259 125 m 1
 437 125 l 2
 494 125 522 137 545 171 c 0
 559 192 568 220 568 245 c 0
 568 292 539 314 477 314 c 2
 299 314 l 1
 259 125 l 1
EndSplineSet
EndChar
StartChar: C
Encoding: 67 67
Width: 722
Flags: W
HStem: -23 128<381 411> 613 128<507 535>
VStem: 107.148 148.852<248 266> 647.999 145.001<482 532>
Fore
789 482 m 1
 648 482 l 1
 648 521 644 540 631 560 c 0
 610 594 569 613 516 613 c 0
 436 613 374 578 327 504 c 0
 282 434 256 346 256 264 c 0
 256 159 306 105 403 105 c 0
 499 105 570 157 599 249 c 1
 742 249 l 1
 698 78 564 -23 382 -23 c 0
 211 -23 107 75 107 235 c 0
 107 364 151 499 222 587 c 0
 303 688 410 741 533 741 c 0
 688 741 793 656 793 532 c 0
 793 521 792 510 789 482 c 1
EndSplineSet
EndChar
StartChar: D
Encoding: 68 68
Width: 722
Flags: W
HStem: 0 125<255 397> 604 125<355 509>
VStem: 627 149<448 481>
DStem: 232 729 355 604 77 0 254 125
Fore
77 0 m 1
 232 729 l 1
 517 729 l 2
 698 729 776 654 776 479 c 0
 776 361 735 238 664 140 c 0
 591 39 507 0 362 0 c 2
 77 0 l 1
254 125 m 1
 388 125 l 2
 475 125 524 153 567 228 c 0
 601 287 627 390 627 469 c 0
 627 560 582 604 490 604 c 2
 355 604 l 1
 254 125 l 1
EndSplineSet
EndChar
StartChar: E
Encoding: 69 69
Width: 667
Flags: W
HStem: 0 125<257 624> 314 125<323 645> 604 125<357 735>
DStem: 234 729 357 604 79 0 322 439 234 729 671 439 79 0 645 314 234 729 296 314 79 0 256 125 234 729 651 125 79 0 624 0
Fore
296 314 m 1
 256 125 l 1
 651 125 l 1
 624 0 l 1
 79 0 l 1
 234 729 l 1
 762 729 l 1
 735 604 l 1
 357 604 l 1
 322 439 l 1
 671 439 l 1
 645 314 l 1
 296 314 l 1
EndSplineSet
EndChar
StartChar: F
Encoding: 70 70
Width: 611
Flags: W
HStem: 0 21G<74 224> 314 125<318 610> 604 125<352 714>
DStem: 229 729 352 604 74 0 317 439 229 729 637 439 74 0 610 314 229 729 291 314 74 0 224 0
Fore
291 314 m 1
 224 0 l 1
 74 0 l 1
 229 729 l 1
 741 729 l 1
 714 604 l 1
 352 604 l 1
 317 439 l 1
 637 439 l 1
 610 314 l 1
 291 314 l 1
EndSplineSet
EndChar
StartChar: G
Encoding: 71 71
Width: 778
Flags: W
HStem: -22.6706 128.274<395 426> 267 125<503 641> 613 127.059<518 539>
VStem: 107.005 148.995<264 286>
DStem: 503 392 795 392 476 267 711 -2
Fore
795 392 m 1
 711 -2 l 1
 621 -2 l 1
 628 88 l 1
 554 9 488 -23 395 -23 c 0
 219 -23 107 88 107 262 c 0
 107 378 155 505 233 596 c 0
 315 691 424 741 547 741 c 0
 710 741 819 655 819 529 c 0
 819 521 818 510 817 496 c 1
 679 496 l 1
 671 571 614 613 519 613 c 0
 434 613 366 575 318 501 c 0
 282 446 256 355 256 284 c 0
 256 181 328 105 426 105 c 0
 484 105 543 130 588 175 c 0
 615 201 629 226 642 267 c 1
 476 267 l 1
 503 392 l 1
 795 392 l 1
EndSplineSet
EndChar
StartChar: H
Encoding: 72 72
Width: 722
Flags: W
HStem: 0 21G<68 218 507 657> 331 125<316 576> 331 398<288 315>
DStem: 223 729 373 729 68 0 315 456 223 729 812 729 68 0 657 0 223 729 288 331 68 0 218 0 577 331 812 729 507 0 657 0 661 729 812 729 603 456 657 0
Fore
577 331 m 1
 288 331 l 1
 218 0 l 1
 68 0 l 1
 223 729 l 1
 373 729 l 1
 315 456 l 1
 603 456 l 1
 661 729 l 1
 812 729 l 1
 657 0 l 1
 507 0 l 1
 577 331 l 1
EndSplineSet
EndChar
StartChar: I
Encoding: 73 73
Width: 278
Flags: W
HStem: 0 21G<63 213> 709 20G<218 368>
DStem: 218 729 368 729 63 0 213 0
Fore
368 729 m 1
 213 0 l 1
 63 0 l 1
 218 729 l 1
 368 729 l 1
EndSplineSet
EndChar
StartChar: J
Encoding: 74 74
Width: 556
Flags: W
HStem: -22.4621 127.964<247 277> 709 20G<491 641>
VStem: 59.6195 151.38<133 159>
DStem: 81 270 231 270 66 198 215 193 491 729 641 729 376 190 526 190
Fore
491 729 m 1
 641 729 l 1
 526 190 l 2
 510 114 475 55 426 23 c 0
 383 -5 313 -23 247 -23 c 0
 130 -23 59 36 59 133 c 0
 59 154 61 176 66 198 c 1
 81 270 l 1
 231 270 l 1
 215 193 l 1
 212 180 211 169 211 159 c 0
 211 127 238 105 277 105 c 0
 330 105 365 135 376 190 c 1
 491 729 l 1
EndSplineSet
EndChar
StartChar: K
Encoding: 75 75
Width: 722
Flags: W
HStem: 0 21G<74 224 538 717> 709 20G<229 379 665 843>
DStem: 229 729 379 729 74 0 311 409 229 729 274 234 74 0 224 0 365 314 482 410 538 0 717 0 665 729 843 729 311 409 482 410
Fore
274 234 m 1
 224 0 l 1
 74 0 l 1
 229 729 l 1
 379 729 l 1
 311 409 l 1
 665 729 l 1
 843 729 l 1
 482 410 l 1
 717 0 l 1
 538 0 l 1
 365 314 l 1
 274 234 l 1
EndSplineSet
EndChar
StartChar: L
Encoding: 76 76
Width: 611
Flags: W
HStem: 0 125<258 579> 709 20G<235 385>
DStem: 235 729 385 729 80 0 257 125 235 729 606 125 80 0 579 0
Fore
385 729 m 1
 257 125 l 1
 606 125 l 1
 579 0 l 1
 80 0 l 1
 235 729 l 1
 385 729 l 1
EndSplineSet
MinimumDistance: x2,-1 
EndChar
StartChar: M
Encoding: 77 77
Width: 833
Flags: W
HStem: 0 21G<66 208 347 497 634 776> 709 20G<221 438 712 931>
DStem: 221 729 340 619 66 0 208 0 712 729 766 619 458 169 497 0 766 619 931 729 634 0 776 0
Fore
497 0 m 1
 347 0 l 1
 340 619 l 1
 208 0 l 1
 66 0 l 1
 221 729 l 1
 438 729 l 1
 458 169 l 1
 712 729 l 1
 931 729 l 1
 776 0 l 1
 634 0 l 1
 766 619 l 1
 497 0 l 1
EndSplineSet
EndChar
StartChar: N
Encoding: 78 78
Width: 722
Flags: W
HStem: 0 21G<68 210 513 661> 709 20G<223 373 674 816>
DStem: 223 729 321 523 68 0 210 0 321 523 373 729 513 0 565 214 674 729 816 729 565 214 661 0
Fore
816 729 m 1
 661 0 l 1
 513 0 l 1
 321 523 l 1
 210 0 l 1
 68 0 l 1
 223 729 l 1
 373 729 l 1
 565 214 l 1
 674 729 l 1
 816 729 l 1
EndSplineSet
EndChar
StartChar: O
Encoding: 79 79
Width: 778
Flags: W
HStem: -22.7892 127.789<410 426> 613 128<518 539>
VStem: 106 149<260 284> 679 149<425 457>
Fore
538 741 m 0
 721 741 828 635 828 455 c 0
 828 337 783 215 705 124 c 0
 619 22 523 -23 395 -23 c 0
 217 -23 106 86 106 261 c 0
 106 376 153 502 231 594 c 0
 313 693 414 741 538 741 c 0
519 613 m 0
 443 613 377 577 327 509 c 0
 283 448 255 360 255 282 c 0
 255 173 318 105 419 105 c 0
 496 105 559 140 609 210 c 0
 652 270 679 358 679 437 c 0
 679 547 619 613 519 613 c 0
EndSplineSet
EndChar
StartChar: P
Encoding: 80 80
Width: 667
Flags: W
HStem: 0 21G<76 226> 260 125<309 476> 604 125<354 524>
VStem: 597.995 149.005<525 560>
DStem: 231 729 354 604 76 0 308 385 231 729 281 260 76 0 226 0
Fore
281 260 m 1
 226 0 l 1
 76 0 l 1
 231 729 l 1
 539 729 l 2
 606 729 647 718 683 690 c 0
 724 659 747 612 747 560 c 0
 747 483 712 398 658 341 c 0
 605 284 547 260 468 260 c 2
 281 260 l 1
308 385 m 1
 461 385 l 2
 514 385 548 401 572 436 c 0
 587 457 598 496 598 525 c 0
 598 572 562 604 508 604 c 2
 354 604 l 1
 308 385 l 1
EndSplineSet
EndChar
StartChar: Q
Encoding: 81 81
Width: 778
Flags: W
HStem: -23 128<398 420> 613 128<508 539>
VStem: 109 149<261 284> 682 149<426 458>
Fore
686 103 m 1
 750 27 l 1
 657 -54 l 1
 588 27 l 1
 527 -7 468 -23 397 -23 c 0
 220 -23 109 87 109 262 c 0
 109 378 156 504 232 594 c 0
 315 694 414 741 538 741 c 0
 721 741 831 632 831 453 c 0
 831 330 771 185 686 103 c 1
539 278 m 1
 604 200 l 1
 650 258 682 354 682 436 c 0
 682 547 621 613 518 613 c 0
 442 613 379 578 329 508 c 0
 285 447 258 361 258 282 c 0
 258 173 319 105 418 105 c 0
 450 105 482 112 507 124 c 1
 445 197 l 1
 539 278 l 1
EndSplineSet
EndChar
StartChar: R
Encoding: 82 82
Width: 722
Flags: W
HStem: 0 21G<80 230 518 677> 289 125<319 480> 604 125<358 550>
VStem: 510.003 154.997<41 61> 547.993 148.007<234 270> 635.993 149.007<534 579>
DStem: 235 729 358 604 80 0 318 414 235 729 291 289 80 0 230 0
Fore
291 289 m 1
 230 0 l 1
 80 0 l 1
 235 729 l 1
 612 729 l 2
 670 729 710 715 742 683 c 0
 769 656 785 617 785 579 c 0
 785 523 760 460 721 420 c 0
 697 395 671 378 618 352 c 1
 670 335 696 308 696 270 c 0
 696 245 691 210 668 87 c 0
 666 77 665 67 665 61 c 0
 665 47 670 37 683 27 c 1
 677 0 l 1
 518 0 l 1
 512 19 510 29 510 41 c 0
 510 67 517 104 536 173 c 0
 545 209 548 222 548 234 c 0
 548 271 520 289 463 289 c 2
 291 289 l 1
318 414 m 1
 499 414 l 2
 549 414 580 426 606 455 c 0
 624 475 636 506 636 534 c 0
 636 553 628 570 614 583 c 1
 595 598 572 604 526 604 c 2
 358 604 l 1
 318 414 l 1
EndSplineSet
EndChar
StartChar: S
Encoding: 83 83
Width: 667
Flags: W
HStem: -23 128<344 369> 613 128<444 473>
VStem: 76.2509 147.749<185 195> 151.002 148.998<472 509> 537.996 149.004<216 265> 578.995 146.005<530 569>
Fore
717 507 m 1
 577 507 l 1
 578 516 579 525 579 530 c 0
 579 584 532 613 447 613 c 0
 356 613 300 573 300 509 c 0
 300 471 327 455 421 436 c 2
 530 414 l 2
 632 394 687 342 687 265 c 0
 687 199 660 126 618 79 c 0
 560 12 467 -23 345 -23 c 0
 249 -23 180 -2 132 42 c 0
 96 75 76 121 76 174 c 0
 76 188 77 198 80 218 c 1
 226 218 l 1
 225 209 224 200 224 195 c 0
 224 138 276 105 367 105 c 0
 471 105 538 149 538 216 c 0
 538 263 509 283 418 301 c 2
 320 321 l 2
 201 345 151 389 151 472 c 0
 151 543 186 618 243 667 c 0
 300 717 376 741 473 741 c 0
 632 741 725 677 725 569 c 0
 725 549 723 535 717 507 c 1
EndSplineSet
EndChar
StartChar: T
Encoding: 84 84
Width: 611
Flags: W
HStem: 0 21G<235 385> 604 125<169 363 514 726>
DStem: 169 729 514 604 142 604 385 0 364 604 514 604 235 0 385 0
Fore
514 604 m 1
 385 0 l 1
 235 0 l 1
 364 604 l 1
 142 604 l 1
 169 729 l 1
 753 729 l 1
 726 604 l 1
 514 604 l 1
EndSplineSet
MinimumDistance: x0,-1 
EndChar
StartChar: U
Encoding: 85 85
Width: 722
Flags: W
HStem: -22.9091 127.909<375 395> 709 20G<231 381 659 809>
VStem: 119.706 151.43<167 190>
DStem: 231 729 381 729 130 255 276 235 659 729 809 729 554 235 704 235
Fore
659 729 m 1
 809 729 l 1
 704 235 l 1
 686 152 654 96 597 51 c 0
 536 3 454 -23 366 -23 c 0
 215 -23 119 51 119 167 c 0
 119 189 123 222 130 255 c 2
 231 729 l 1
 381 729 l 1
 276 235 l 1
 273 219 271 205 271 190 c 0
 271 137 316 105 394 105 c 0
 485 105 535 145 554 235 c 2
 659 729 l 1
EndSplineSet
EndChar
StartChar: V
Encoding: 86 86
Width: 667
Flags: W
HStem: 0 21G<273 400> 709 20G<179 330 651 802>
Fore
400 0 m 1
 273 0 l 1
 179 729 l 1
 330 729 l 1
 375 180 l 1
 651 729 l 1
 802 729 l 1
 400 0 l 1
EndSplineSet
EndChar
StartChar: W
Encoding: 87 87
Width: 944
Flags: W
HStem: 0 21G<219 354 595 730> 709 20G<168 327 548 706 928 1087>
VStem: 591 112<181.146 554.854>
DStem: 548 729 591 555 324 183 354 0
Fore
730 0 m 1
 595 0 l 1
 591 555 l 1
 354 0 l 1
 219 0 l 1
 168 729 l 1
 327 729 l 1
 324 183 l 1
 548 729 l 1
 706 729 l 1
 703 181 l 1
 928 729 l 1
 1087 729 l 1
 730 0 l 1
EndSplineSet
MinimumDistance: x10,-1 
EndChar
StartChar: X
Encoding: 88 88
Width: 667
Flags: W
HStem: 0 21G<22 197 476 655> 709 20G<187 365 627 802>
Fore
499 372 m 1
 655 0 l 1
 476 0 l 1
 386 249 l 1
 197 0 l 1
 22 0 l 1
 332 367 l 1
 187 729 l 1
 365 729 l 1
 444 493 l 1
 627 729 l 1
 802 729 l 1
 499 372 l 1
EndSplineSet
EndChar
StartChar: Y
Encoding: 89 89
Width: 667
Flags: W
HStem: 0 21G<269 419> 709 20G<182 349 638 805>
DStem: 327 270 477 270 269 0 419 0
Fore
477 270 m 1
 419 0 l 1
 269 0 l 1
 327 270 l 1
 182 729 l 1
 349 729 l 1
 431 414 l 1
 638 729 l 1
 805 729 l 1
 477 270 l 1
EndSplineSet
MinimumDistance: x0,-1 
EndChar
StartChar: Z
Encoding: 90 90
Width: 611
Flags: W
HStem: 0 125<233 578> 604 125<185 530>
DStem: 531 604 706 604 57 125 232 125
Fore
733 729 m 1
 706 604 l 1
 232 125 l 1
 605 125 l 1
 578 0 l 1
 30 0 l 1
 57 125 l 1
 531 604 l 1
 158 604 l 1
 185 729 l 1
 733 729 l 1
EndSplineSet
EndChar
StartChar: bracketleft
Encoding: 91 91
Width: 333
Flags: W
HStem: -200 100<175 266> 629 100<328 441>
DStem: 220 729 463 729 23 -200 441 629 220 729 328 629 23 -200 174 -100 220 729 287 -100 23 -200 266 -200
Fore
463 729 m 1
 441 629 l 1
 328 629 l 1
 174 -100 l 1
 287 -100 l 1
 266 -200 l 1
 23 -200 l 1
 220 729 l 1
 463 729 l 1
EndSplineSet
EndChar
StartChar: backslash
Encoding: 92 92
Width: 278
Flags: W
HStem: -23 732<210 212>
DStem: 138 709 212 709 210 -23 285 -23
Fore
138 709 m 1
 212 709 l 1
 285 -23 l 1
 210 -23 l 1
 138 709 l 1
EndSplineSet
EndChar
StartChar: bracketright
Encoding: 93 93
Width: 333
Flags: W
HStem: -200 100<-3 110> 629 100<172 263>
DStem: -3 -100 415 729 -25 -200 218 -200 172 729 415 729 151 629 218 -200 264 629 415 729 110 -100 218 -200
Fore
-25 -200 m 1
 -3 -100 l 1
 110 -100 l 1
 264 629 l 1
 151 629 l 1
 172 729 l 1
 415 729 l 1
 218 -200 l 1
 -25 -200 l 1
EndSplineSet
EndChar
StartChar: asciicircum
Encoding: 94 94
Width: 584
Flags: W
HStem: 270 425<467 499>
DStem: 374 695 409 570 119 270 231 270 409 570 499 695 467 270 580 270
Fore
580 270 m 1
 467 270 l 1
 409 570 l 1
 231 270 l 1
 119 270 l 1
 374 695 l 1
 499 695 l 1
 580 270 l 1
EndSplineSet
MinimumDistance: x0,-1 
EndChar
StartChar: underscore
Encoding: 95 95
Width: 556
Flags: W
HStem: -145 69<-50 535>
Fore
550 -76 m 1
 535 -145 l 1
 -65 -145 l 1
 -50 -76 l 1
 550 -76 l 1
EndSplineSet
EndChar
StartChar: grave
Encoding: 96 96
Width: 333
Flags: W
HStem: 607 150<276 294>
Fore
175 757 m 1
 294 757 l 1
 339 607 l 1
 276 607 l 1
 175 757 l 1
EndSplineSet
EndChar
StartChar: a
Encoding: 97 97
Width: 556
Flags: W
HStem: -22.9977 111.998<199 266> 0 21G<370 523> 437 112<354 385>
VStem: 50.0031 142.997<108 139> 435.992 142.008<394 428>
DStem: 408 255 572 383 400 217 509 83
Fore
527 17 m 1
 523 0 l 1
 370 0 l 1
 365 11 363 17 363 27 c 0
 363 34 363 39 366 54 c 1
 306 0 257 -23 199 -23 c 0
 156 -23 122 -13 97 8 c 0
 68 32 50 70 50 108 c 0
 50 168 83 229 136 267 c 0
 167 289 204 303 252 311 c 2
 310 320 l 2
 382 330 382 330 402 341 c 0
 422 351 436 373 436 394 c 0
 436 424 414 437 363 437 c 0
 299 437 268 417 251 362 c 1
 120 362 l 1
 148 492 229 549 386 549 c 0
 456 549 505 537 537 511 c 0
 560 492 578 457 578 428 c 0
 578 416 576 401 572 383 c 2
 509 83 l 1
 507 75 506 68 506 62 c 0
 506 47 512 34 527 17 c 1
400 217 m 1
 408 255 l 1
 396 248 393 247 382 245 c 0
 378 244 371 243 361 241 c 2
 345 238 l 1
 295 230 l 2
 230 219 193 186 193 139 c 0
 193 106 218 89 266 89 c 0
 334 89 382 135 400 217 c 1
EndSplineSet
EndChar
StartChar: b
Encoding: 98 98
Width: 611
Flags: W
HStem: -23 112<331 347> 0 21G<59 199> 436.995 112.005<409 465> 709 20G<214 354>
VStem: 497 142.244<318 329>
DStem: 214 729 354 729 59 0 299 470 214 729 211 55 59 0 199 0
Fore
214 729 m 1
 354 729 l 1
 299 470 l 1
 344 524 397 549 465 549 c 0
 571 549 640 467 640 342 c 0
 640 152 497 -23 343 -23 c 0
 276 -23 233 2 211 55 c 1
 199 0 l 1
 59 0 l 1
 214 729 l 1
409 437 m 0
 323 437 248 327 248 202 c 0
 248 134 283 89 336 89 c 0
 421 89 497 197 497 319 c 0
 497 392 463 437 409 437 c 0
EndSplineSet
EndChar
StartChar: c
Encoding: 99 99
Width: 556
Flags: W
HStem: -23 112<293 317> 437 111.396<376 381>
VStem: 77 143<172 194>
Fore
593 338 m 1
 459 338 l 1
 458 377 456 389 448 404 c 0
 435 425 410 437 377 437 c 0
 322 437 285 411 257 352 c 0
 233 304 220 245 220 192 c 0
 220 123 249 89 309 89 c 0
 363 89 396 116 427 187 c 1
 561 187 l 1
 519 53 421 -23 292 -23 c 0
 218 -23 163 -3 127 38 c 0
 95 73 77 122 77 172 c 0
 77 267 119 384 178 454 c 0
 230 517 304 549 398 549 c 0
 465 549 511 532 549 494 c 0
 580 463 597 423 597 381 c 0
 597 371 596 362 593 338 c 1
EndSplineSet
MinimumDistance: x5,-1 
EndChar
StartChar: d
Encoding: 100 100
Width: 611
Flags: W
HStem: -22.9981 111.998<251 309> 0 21G<405 545> 437 112<367 383> 709 20G<560 700>
VStem: 79 143<186 208>
DStem: 417 55 700 729 405 0 545 0 560 729 700 729 505 470 545 0
Fore
405 0 m 1
 417 55 l 1
 371 2 318 -23 251 -23 c 0
 147 -23 79 59 79 185 c 0
 79 267 108 357 157 428 c 0
 209 503 291 549 372 549 c 0
 440 549 482 524 505 470 c 1
 560 729 l 1
 700 729 l 1
 545 0 l 1
 405 0 l 1
380 437 m 0
 297 437 222 327 222 206 c 0
 222 134 256 89 309 89 c 0
 394 89 468 197 468 323 c 0
 468 393 434 437 380 437 c 0
EndSplineSet
EndChar
StartChar: e
Encoding: 101 101
Width: 556
Flags: W
HStem: -22.7516 112.529<275 302> 226 93<229 447> 437 111.457<361 368>
VStem: 64 143<169 201> 448 143<329 361>
Fore
573 226 m 1
 210 226 l 1
 207 198 207 190 207 181 c 0
 207 126 245 89 302 89 c 0
 350 89 394 114 414 152 c 1
 552 152 l 1
 497 41 396 -23 275 -23 c 0
 150 -23 64 61 64 185 c 0
 64 285 110 402 174 469 c 0
 221 518 301 549 379 549 c 0
 452 549 510 525 546 480 c 0
 574 444 591 397 591 351 c 0
 591 313 585 271 573 226 c 1
448 319 m 1
 448 334 l 2
 448 366 446 377 439 392 c 0
 426 420 397 437 362 437 c 0
 322 437 282 418 258 386 c 0
 245 369 237 351 228 319 c 1
 448 319 l 1
EndSplineSet
EndChar
StartChar: f
Encoding: 102 102
Width: 333
Flags: W
HStem: 0 21G<90 230> 436 93<126 182 343 405> 625 103.95<394 410>
DStem: 126 529 425 529 106 436 405 436 126 529 323 436 106 436 230 0 183 436 323 436 90 0 230 0
Fore
425 529 m 1
 405 436 l 1
 323 436 l 1
 230 0 l 1
 90 0 l 1
 183 436 l 1
 106 436 l 1
 126 529 l 1
 202 529 l 1
 216 594 l 2
 236 687 289 729 387 729 c 0
 405 729 422 728 464 726 c 1
 442 621 l 1
 415 624 410 625 400 625 c 0
 375 625 360 611 354 582 c 1
 342 529 l 1
 425 529 l 1
EndSplineSet
EndChar
StartChar: g
Encoding: 103 103
Width: 611
Flags: W
HStem: -217.8 89.8003<250 266> -22.9983 111.998<254 306> 437 112<365.518 381> 520 20G<523 656>
VStem: 26.005 145.995<-96 -77> 79.289 143.572<167 201>
DStem: 420 55 656 540 404 -18 537 -18 523 540 656 540 505 457 537 -18
Fore
523 540 m 1
 656 540 l 1
 537 -18 l 1
 510 -146 401 -218 235 -218 c 0
 173 -218 129 -210 93 -192 c 0
 52 -172 26 -134 26 -96 c 0
 26 -88 27 -77 29 -65 c 1
 173 -65 l 1
 172 -77 l 1
 172 -106 209 -128 258 -128 c 0
 331 -128 390 -83 404 -18 c 2
 420 55 l 1
 356 -4 316 -23 254 -23 c 0
 153 -23 79 57 79 167 c 0
 79 264 116 374 174 445 c 0
 227 511 302 549 378 549 c 0
 437 549 478 519 505 457 c 1
 523 540 l 1
379 437 m 0
 297 437 222 324 222 201 c 0
 222 132 254 89 306 89 c 0
 395 89 471 193 471 315 c 0
 471 389 435 437 379 437 c 0
EndSplineSet
EndChar
StartChar: h
Encoding: 104 104
Width: 611
Flags: W
HStem: 0 21G<67 207 406 546> 709 20G<222 362>
VStem: 478.985 150.015<361 417>
DStem: 222 729 362 729 67 0 304 458 222 729 272 304 67 0 207 0 473 313 623 362 406 0 546 0
Fore
222 729 m 1
 362 729 l 1
 304 458 l 1
 357 521 413 549 484 549 c 0
 571 549 629 496 629 417 c 0
 629 399 627 381 623 362 c 2
 546 0 l 1
 406 0 l 1
 473 313 l 1
 477 334 479 348 479 361 c 0
 479 410 453 437 406 437 c 0
 342 437 289 385 272 304 c 1
 207 0 l 1
 67 0 l 1
 222 729 l 1
EndSplineSet
EndChar
StartChar: i
Encoding: 105 105
Width: 278
Flags: W
HStem: 0 21G<67 207> 520 20G<182 322> 604 125<222 335>
DStem: 182 540 322 540 67 0 207 0 222 729 362 729 195 604 335 604
Fore
322 540 m 1
 207 0 l 1
 67 0 l 1
 182 540 l 1
 322 540 l 1
362 729 m 1
 335 604 l 1
 195 604 l 1
 222 729 l 1
 362 729 l 1
EndSplineSet
EndChar
StartChar: j
Encoding: 106 106
Width: 278
Flags: W
HStem: -218 112<-11 8> 520 20G<185 325> 604 125<225 338>
DStem: 185 540 325 540 57 -62 190 -94 225 729 365 729 198 604 338 604
Fore
365 729 m 1
 338 604 l 1
 198 604 l 1
 225 729 l 1
 365 729 l 1
325 540 m 1
 190 -94 l 1
 172 -181 116 -218 2 -218 c 0
 -17 -218 -29 -217 -43 -213 c 1
 -19 -102 l 1
 -15 -105 -8 -106 6 -106 c 0
 36 -106 50 -94 57 -62 c 2
 185 540 l 1
 325 540 l 1
EndSplineSet
EndChar
StartChar: k
Encoding: 107 107
Width: 556
Flags: W
HStem: 0 21G<59 199 384 548> 520 20G<492 651> 709 20G<214 354>
DStem: 214 729 354 729 59 0 269 330 214 729 237 177 59 0 199 0
Fore
354 729 m 1
 269 330 l 1
 492 540 l 1
 651 540 l 1
 419 334 l 1
 548 0 l 1
 384 0 l 1
 305 239 l 1
 237 177 l 1
 199 0 l 1
 59 0 l 1
 214 729 l 1
 354 729 l 1
EndSplineSet
MinimumDistance: x0,-1 
EndChar
StartChar: l
Encoding: 108 108
Width: 278
Flags: W
HStem: 0 21G<67 207> 709 20G<222 362>
DStem: 222 729 362 729 67 0 207 0
Fore
362 729 m 1
 207 0 l 1
 67 0 l 1
 222 729 l 1
 362 729 l 1
EndSplineSet
EndChar
StartChar: m
Encoding: 109 109
Width: 889
Flags: W
HStem: 0 21G<60 200 373 513 686 826> 520 20G<175 314>
VStem: 762.995 148.005<381 423>
DStem: 175 540 314 540 60 0 297 459 175 540 269 324 60 0 200 0 447 346 582 324 373 0 513 0 758 340 903 362 686 0 826 0
Fore
175 540 m 1
 314 540 l 1
 297 459 l 1
 356 524 403 549 468 549 c 0
 530 549 578 517 592 467 c 1
 647 524 701 549 769 549 c 0
 859 549 911 502 911 423 c 0
 911 405 909 391 903 362 c 2
 826 0 l 1
 686 0 l 1
 758 340 l 2
 761 354 763 369 763 381 c 0
 763 417 742 437 705 437 c 0
 642 437 597 396 582 324 c 1
 513 0 l 1
 373 0 l 1
 447 346 l 1
 449 357 450 367 450 379 c 0
 450 414 425 437 387 437 c 0
 329 437 284 394 269 324 c 2
 200 0 l 1
 60 0 l 1
 175 540 l 1
EndSplineSet
EndChar
StartChar: n
Encoding: 110 110
Width: 611
Flags: W
HStem: 0 21G<63 203 406 546> 520 20G<178 318>
VStem: 478.996 150.004<362 417>
DStem: 178 540 318 540 63 0 300 458 178 540 268 304 63 0 203 0 473 313 623 362 406 0 546 0
Fore
178 540 m 1
 318 540 l 1
 300 458 l 1
 354 522 408 549 482 549 c 0
 571 549 629 497 629 417 c 0
 629 399 627 381 623 362 c 2
 546 0 l 1
 406 0 l 1
 473 313 l 1
 477 335 479 349 479 362 c 0
 479 410 453 437 405 437 c 0
 338 437 285 386 268 304 c 1
 203 0 l 1
 63 0 l 1
 178 540 l 1
EndSplineSet
EndChar
StartChar: o
Encoding: 111 111
Width: 611
Flags: W
HStem: -22.348 111.348<322 326> 437 111.258<390 402>
VStem: 82.773 142.227<177 205> 490.786 142.658<320 349>
Fore
413 549 m 0
 550 549 634 473 634 349 c 0
 634 263 602 163 555 100 c 0
 494 19 407 -23 299 -23 c 0
 167 -23 82 55 82 177 c 0
 82 263 113 363 161 426 c 0
 220 505 310 549 413 549 c 0
391 437 m 0
 301 437 225 332 225 205 c 0
 225 134 264 89 324 89 c 0
 376 89 422 120 453 176 c 0
 477 218 491 271 491 320 c 0
 491 391 452 437 391 437 c 0
EndSplineSet
EndChar
StartChar: p
Encoding: 112 112
Width: 611
Flags: W
HStem: -218 21G<11 151> -24 112<331 347> 436.995 112.005<406 464> 520 20G<172 312>
VStem: 494 143<322 342>
DStem: 172 540 312 540 11 -218 295 460 172 540 211 64 11 -218 151 -218
Fore
312 540 m 1
 295 460 l 1
 341 519 397 549 464 549 c 0
 570 549 637 469 637 342 c 0
 637 141 505 -24 344 -24 c 0
 274 -24 232 4 211 64 c 1
 151 -218 l 1
 11 -218 l 1
 172 540 l 1
 312 540 l 1
406 437 m 0
 320 437 246 327 246 201 c 0
 246 133 281 88 334 88 c 0
 420 88 494 196 494 323 c 0
 494 392 460 437 406 437 c 0
EndSplineSet
EndChar
StartChar: q
Encoding: 113 113
Width: 611
Flags: W
HStem: -218 21G<358 498> -23.9979 111.998<248 304> 437 112<368 379> 520 20G<519 659>
VStem: 72.4303 142.57<198 204>
DStem: 418 64 659 540 358 -218 498 -218 519 540 659 540 502 460 498 -218
Fore
519 540 m 1
 659 540 l 1
 498 -218 l 1
 358 -218 l 1
 418 64 l 1
 373 5 316 -24 248 -24 c 0
 142 -24 72 57 72 180 c 0
 72 266 102 359 152 430 c 0
 206 505 286 549 369 549 c 0
 438 549 482 520 502 460 c 1
 519 540 l 1
377 437 m 0
 291 437 215 327 215 202 c 0
 215 133 250 88 304 88 c 0
 391 88 466 197 466 324 c 0
 466 393 431 437 377 437 c 0
EndSplineSet
EndChar
StartChar: r
Encoding: 114 114
Width: 389
Flags: W
HStem: 0 21G<63 203> 520 20G<178 318>
DStem: 178 540 318 540 63 0 295 434 178 540 487 548 63 0 457 406 178 540 264 287 63 0 203 0
Fore
178 540 m 1
 318 540 l 1
 295 434 l 1
 342 507 406 549 470 549 c 0
 474 549 479 549 487 548 c 1
 457 406 l 1
 439 409 429 410 414 410 c 0
 332 410 281 369 264 287 c 1
 203 0 l 1
 63 0 l 1
 178 540 l 1
EndSplineSet
EndChar
StartChar: s
Encoding: 115 115
Width: 556
Flags: W
HStem: -22.6508 111.651<300 309> 437 111.337<363 380>
VStem: 127.004 148.996<345 384> 410.992 148.008<144 187> 451.272 137.299<385 404>
Fore
584 366 m 1
 449 366 l 1
 451 375 452 379 452 385 c 0
 452 417 419 437 364 437 c 0
 311 437 276 416 276 384 c 0
 276 364 290 354 341 339 c 2
 437 311 l 2
 520 286 559 247 559 187 c 0
 559 59 451 -23 281 -23 c 0
 219 -23 172 -13 133 10 c 0
 89 35 60 82 60 127 c 0
 60 136 61 142 64 157 c 1
 201 157 l 1
 202 134 208 123 222 111 c 0
 241 97 272 89 307 89 c 0
 368 89 411 112 411 144 c 0
 411 167 398 176 335 196 c 2
 256 221 l 2
 168 250 127 289 127 345 c 0
 127 395 155 452 198 490 c 0
 241 528 308 549 387 549 c 0
 513 549 589 494 589 404 c 0
 589 393 588 384 584 366 c 1
EndSplineSet
EndChar
StartChar: t
Encoding: 116 116
Width: 333
Flags: W
HStem: 436 93<127 175 337 394> 436 238<316 336>
DStem: 127 529 414 529 107 436 394 436 127 529 316 436 107 436 254 142 176 436 316 436 106 104 254 142 227 674 367 674 196 529 336 529
Fore
414 529 m 1
 394 436 l 1
 316 436 l 1
 254 142 l 1
 250 125 248 113 248 108 c 0
 248 93 263 83 286 83 c 0
 297 83 305 84 319 86 c 1
 299 -12 l 1
 271 -20 247 -23 214 -23 c 0
 141 -23 101 8 101 63 c 0
 101 76 103 90 106 104 c 2
 176 436 l 1
 107 436 l 1
 127 529 l 1
 196 529 l 1
 227 674 l 1
 367 674 l 1
 336 529 l 1
 414 529 l 1
EndSplineSet
EndChar
StartChar: u
Encoding: 117 117
Width: 611
Flags: W
HStem: 0 21G<401 541> 520 20G<174 314 516 656>
VStem: 88.0021 149.998<109 164>
DStem: 174 540 314 540 94 164 244 213 416 68 656 540 401 0 541 0 516 540 656 540 448 222 541 0
Fore
541 0 m 1
 401 0 l 1
 416 68 l 1
 362 4 308 -23 234 -23 c 0
 146 -23 88 29 88 109 c 0
 88 127 90 145 94 164 c 2
 174 540 l 1
 314 540 l 1
 244 213 l 1
 240 190 238 178 238 164 c 0
 238 115 264 89 314 89 c 0
 379 89 431 141 448 222 c 1
 516 540 l 1
 656 540 l 1
 541 0 l 1
EndSplineSet
EndChar
StartChar: v
Encoding: 118 118
Width: 556
Flags: W
HStem: 0 21G<203 350> 520 20G<129 277 503 651>
Fore
350 0 m 1
 203 0 l 1
 129 540 l 1
 277 540 l 1
 307 145 l 1
 503 540 l 1
 651 540 l 1
 350 0 l 1
EndSplineSet
EndChar
StartChar: w
Encoding: 119 119
Width: 778
Flags: W
HStem: 0 21G<157 301 472 617> 520 20G<120 265 429 573 736 881>
VStem: 467 106<162 379.852>
DStem: 429 540 467 380 270 162 301 0
Fore
617 0 m 1
 472 0 l 1
 467 380 l 1
 301 0 l 1
 157 0 l 1
 120 540 l 1
 265 540 l 1
 270 162 l 1
 429 540 l 1
 573 540 l 1
 573 162 l 1
 736 540 l 1
 881 540 l 1
 617 0 l 1
EndSplineSet
MinimumDistance: x9,-1 
EndChar
StartChar: x
Encoding: 120 120
Width: 556
Flags: W
HStem: 0 21G<16 184 366 534> 520 20G<138 306 480 648>
Fore
411 274 m 1
 534 0 l 1
 366 0 l 1
 307 168 l 1
 184 0 l 1
 16 0 l 1
 249 274 l 1
 138 540 l 1
 306 540 l 1
 357 377 l 1
 480 540 l 1
 648 540 l 1
 411 274 l 1
EndSplineSet
EndChar
StartChar: y
Encoding: 121 121
Width: 556
Flags: W
HStem: -219 111<69 101> 520 20G<124 278 509 653>
Fore
509 540 m 1
 653 540 l 1
 295 -98 l 2
 259 -163 237 -185 194 -202 c 0
 164 -213 125 -219 81 -219 c 0
 60 -219 50 -218 37 -215 c 1
 60 -106 l 1
 71 -108 76 -108 88 -108 c 0
 157 -108 201 -72 201 -15 c 1
 200 0 l 1
 124 540 l 1
 278 540 l 1
 314 147 l 1
 509 540 l 1
EndSplineSet
EndChar
StartChar: z
Encoding: 122 122
Width: 500
Flags: W
HStem: 0 113<220 469> 427 113<154 378>
DStem: 379 427 551 427 45 113 219 113
Fore
575 540 m 1
 551 427 l 1
 219 113 l 1
 493 113 l 1
 469 0 l 1
 21 0 l 1
 45 113 l 1
 379 427 l 1
 130 427 l 1
 154 540 l 1
 575 540 l 1
EndSplineSet
EndChar
StartChar: braceleft
Encoding: 123 123
Width: 389
Flags: W
HStem: -200 99<247.71 275> 221.963 93.0372<104 110> 630 99<398 451>
VStem: 101.002 120.998<-99 -76> 155 118.043<185 186>
DStem: 150 150 269 159 105 -60 227 -36 243 589 357 573 198 378 316 378
Fore
472 729 m 1
 451 630 l 1
 414 630 l 2
 377 630 367 620 357 573 c 2
 316 378 l 1
 300 306 268 277 195 269 c 1
 220 265 228 263 240 257 c 0
 261 248 274 227 274 200 c 0
 274 190 272 174 269 159 c 1
 227 -36 l 1
 224 -53 222 -66 222 -76 c 0
 222 -92 236 -101 261 -101 c 2
 296 -101 l 1
 275 -200 l 1
 198 -200 l 2
 140 -200 101 -159 101 -99 c 0
 101 -86 102 -73 105 -60 c 2
 150 150 l 2
 153 165 155 178 155 184 c 0
 155 208 135 222 101 222 c 2
 88 222 l 1
 84 223 l 1
 104 315 l 1
 108 315 l 1
 120 315 l 2
 164 315 190 336 198 378 c 1
 243 589 l 2
 262 679 317 729 396 729 c 2
 472 729 l 1
EndSplineSet
MinimumDistance: x3,-1 
EndChar
StartChar: bar
Encoding: 124 124
Width: 280
Flags: W
HStem: 709 20G<255 335>
DStem: 255 729 335 729 57 -200 137 -200
Fore
335 729 m 1
 137 -200 l 1
 57 -200 l 1
 255 729 l 1
 335 729 l 1
EndSplineSet
EndChar
StartChar: braceright
Encoding: 125 125
Width: 389
Flags: W
HStem: -200 99<50 93> 214 93.2086<394 399> 630 99<226 253>
VStem: 228.957 118.043<329 345> 279.981 121.019<605 628>
DStem: 186 151 304 151 145 -44 259 -60 275 565 397 589 233 370 352 379
Fore
29 -200 m 1
 50 -101 l 1
 88 -101 l 2
 125 -101 135 -91 145 -44 c 2
 186 151 l 1
 202 223 234 252 307 260 c 1
 282 264 274 266 262 272 c 0
 241 281 228 302 228 329 c 0
 228 339 230 355 233 370 c 1
 275 565 l 1
 278 582 280 595 280 605 c 0
 280 621 266 630 241 630 c 2
 205 630 l 1
 226 729 l 1
 304 729 l 2
 362 729 401 688 401 628 c 0
 401 615 400 602 397 589 c 2
 352 379 l 2
 349 364 347 351 347 345 c 0
 347 321 367 307 401 307 c 2
 415 307 l 1
 419 306 l 1
 399 214 l 1
 395 214 l 1
 382 214 l 2
 338 214 312 193 304 151 c 1
 259 -60 l 2
 240 -150 185 -200 106 -200 c 2
 29 -200 l 1
EndSplineSet
EndChar
StartChar: asciitilde
Encoding: 126 126
Width: 584
Flags: W
HStem: 142 80<424 439> 234 79.4123<241 244>
Fore
504 288 m 1
 581 288 l 1
 558 193 503 142 423 142 c 0
 390 142 367 150 346 168 c 2
 298 210 l 2
 278 227 262 234 242 234 c 0
 204 234 188 219 175 169 c 1
 97 169 l 1
 123 266 176 314 256 314 c 0
 288 314 312 306 332 289 c 2
 381 247 l 2
 402 228 415 222 437 222 c 0
 475 222 490 237 504 288 c 1
EndSplineSet
EndChar
StartChar: exclamdown
Encoding: 161 161
Width: 333
Flags: W
HStem: 394 146<181 300>
DStem: 71 24 221 24 26 -186 176 -186 181 540 331 540 150 394 300 394
Fore
26 -186 m 1
 71 24 l 1
 178 333 l 1
 245 333 l 1
 221 24 l 1
 176 -186 l 1
 26 -186 l 1
150 394 m 1
 181 540 l 1
 331 540 l 1
 300 394 l 1
 150 394 l 1
EndSplineSet
MinimumDistance: x8,-1 
EndChar
StartChar: cent
Encoding: 162 162
Width: 556
Flags: W
VStem: 79 143<171 196> 459.999 138.001<338 381>
DStem: 248 -20 313 -22 226 -124 292 -124 344 435 410 435 272 93 337 89 387 634 453 634 368 548 434 547
Fore
410 435 m 1
 337 89 l 1
 378 99 404 128 428 187 c 1
 562 187 l 1
 526 65 430 -16 313 -22 c 1
 292 -124 l 1
 226 -124 l 1
 248 -20 l 1
 224 -16 207 -12 191 -5 c 0
 123 21 79 92 79 172 c 0
 79 256 113 363 163 433 c 0
 212 503 280 541 368 548 c 1
 387 634 l 1
 453 634 l 1
 434 547 l 1
 458 544 473 541 489 535 c 0
 554 509 598 447 598 381 c 0
 598 371 597 362 594 338 c 1
 460 338 l 1
 460 398 448 423 410 435 c 1
272 93 m 1
 344 435 l 1
 318 428 297 414 282 393 c 0
 246 344 222 263 222 191 c 0
 222 136 236 109 272 93 c 1
EndSplineSet
EndChar
StartChar: sterling
Encoding: 163 163
Width: 556
Flags: W
HStem: -22.7056 124.706<401 411> 6.99816 112.002<197 280> 316 55<111 170 322 443> 603 111.246<401 417>
VStem: 145.081 142.919<478 496> 192.223 130.551<261 290> 494.654 133.887<510 539>
Fore
455 371 m 1
 443 316 l 1
 321 316 l 1
 323 303 323 297 323 290 c 0
 323 219 282 163 172 86 c 1
 236 115 250 119 280 119 c 0
 298 119 299 119 345 110 c 0
 371 105 395 102 411 102 c 0
 447 102 480 111 525 131 c 1
 543 22 l 1
 479 -11 437 -23 388 -23 c 0
 361 -23 341 -20 292 -8 c 0
 247 3 224 7 197 7 c 0
 160 7 131 0 82 -21 c 1
 49 80 l 1
 153 141 193 191 193 261 c 0
 193 276 192 288 188 316 c 1
 99 316 l 1
 111 371 l 1
 171 371 l 1
 150 432 145 451 145 478 c 0
 145 534 176 597 224 642 c 0
 276 690 344 715 425 715 c 0
 559 715 629 655 629 539 c 0
 629 522 628 509 625 484 c 1
 494 484 l 1
 495 494 495 505 495 510 c 0
 495 572 464 603 402 603 c 0
 341 603 288 553 288 496 c 0
 288 482 289 475 300 436 c 0
 309 402 313 386 316 371 c 1
 455 371 l 1
EndSplineSet
EndChar
StartChar: currency
Encoding: 164 164
Width: 556
Flags: W
HStem: 147.039 97.9611<322 338> 459.613 97.5852<377 404>
VStem: 149.534 99.4664<310 330> 462.157 100.637<375 397>
DStem: 142 536 225 604 204 457 286 527 160 246 214 178 66 169 120 100 425 177 507 246 484 102 567 170 590 601 644 532 501 528 553 457
Fore
501 528 m 1
 590 601 l 1
 644 532 l 1
 553 457 l 1
 560 434 563 416 563 397 c 0
 563 346 543 292 507 246 c 1
 567 170 l 1
 484 102 l 1
 425 177 l 1
 377 153 354 147 317 147 c 0
 279 147 235 160 214 178 c 1
 120 100 l 1
 66 169 l 1
 160 246 l 1
 152 270 149 288 149 310 c 0
 149 360 170 415 204 457 c 1
 142 536 l 1
 225 604 l 1
 286 527 l 1
 320 546 365 558 404 558 c 0
 439 558 476 546 501 528 c 1
377 460 m 0
 305 460 249 403 249 330 c 0
 249 280 284 245 335 245 c 0
 406 245 463 303 463 375 c 0
 463 425 427 460 377 460 c 0
EndSplineSet
EndChar
StartChar: yen
Encoding: 165 165
Width: 556
Flags: W
HStem: 0 21G<215 355> 180 60<120 252 407 537> 292 60<143 276 436 561>
DStem: 120 240 393 180 107 180 355 0 253 180 393 180 215 0 355 0 277 292 417 292 266 240 406 240 566 704 702 704 379 450 435 352
Fore
574 352 m 1
 561 292 l 1
 417 292 l 1
 406 240 l 1
 550 240 l 1
 537 180 l 1
 393 180 l 1
 355 0 l 1
 215 0 l 1
 253 180 l 1
 107 180 l 1
 120 240 l 1
 266 240 l 1
 277 292 l 1
 131 292 l 1
 143 352 l 1
 283 352 l 1
 155 704 l 1
 294 704 l 1
 379 450 l 1
 566 704 l 1
 702 704 l 1
 435 352 l 1
 574 352 l 1
EndSplineSet
EndChar
StartChar: brokenbar
Encoding: 166 166
Width: 280
Flags: W
HStem: 709 20G<255 335>
DStem: 140 189 220 189 57 -200 137 -200 255 729 335 729 172 340 252 340
Fore
335 729 m 1
 252 340 l 1
 172 340 l 1
 255 729 l 1
 335 729 l 1
220 189 m 1
 137 -200 l 1
 57 -200 l 1
 140 189 l 1
 220 189 l 1
EndSplineSet
EndChar
StartChar: section
Encoding: 167 167
Width: 556
Flags: W
HStem: -200.836 111.836<243 258> -20 20G<65 196> 544 21G<462 589> 621 101.008<399 408>
VStem: 56.7813 136.527<-59 -34> 89.0022 129.998<247 301> 178.004 147.996<524 559> 347.998 148.002<-15 27> 447.994 130.006<247 302> 462.995 133.005<562 594>
Fore
589 544 m 1
 462 544 l 1
 463 551 463 558 463 562 c 0
 463 600 441 621 401 621 c 0
 358 621 326 594 326 559 c 0
 326 538 347 516 397 485 c 2
 509 415 l 2
 557 385 578 350 578 302 c 0
 578 254 564 212 539 183 c 0
 517 157 496 144 448 126 c 1
 481 99 496 68 496 27 c 0
 496 -19 476 -71 441 -111 c 1
 392 -170 320 -201 232 -201 c 0
 124 -201 56 -146 56 -59 c 0
 56 -40 58 -26 65 0 c 1
 196 0 l 1
 194 -17 193 -24 193 -34 c 0
 193 -70 216 -89 258 -89 c 0
 309 -89 348 -57 348 -15 c 0
 348 12 343 18 293 49 c 1
 143 149 l 2
 109 172 89 208 89 247 c 0
 89 291 102 329 128 359 c 0
 149 383 163 395 216 428 c 1
 190 455 178 485 178 524 c 0
 178 571 202 622 243 659 c 0
 287 700 352 723 425 723 c 0
 532 723 596 675 596 594 c 0
 596 580 594 569 589 544 c 1
258 247 m 2
 383 170 l 1
 430 192 448 214 448 247 c 0
 448 271 437 285 402 306 c 2
 275 382 l 1
 237 362 219 335 219 301 c 0
 219 279 229 264 258 247 c 2
EndSplineSet
EndChar
StartChar: dieresis
Encoding: 168 168
Width: 333
Flags: W
HStem: 621 120<173 257 359 443>
DStem: 173 741 283 741 147 621 257 621 359 741 469 741 333 621 443 621
Fore
283 741 m 1
 257 621 l 1
 147 621 l 1
 173 741 l 1
 283 741 l 1
469 741 m 1
 443 621 l 1
 333 621 l 1
 359 741 l 1
 469 741 l 1
EndSplineSet
EndChar
StartChar: copyright
Encoding: 169 169
Width: 737
Flags: W
HStem: -22 72<358 379> 128.428 82.5721<406 413> 509 83<477 495> 671 72<502 534>
VStem: 54 80<280 307> 232 93<287 307> 553.997 93.0026<431 464> 757 80<426 448>
Fore
644 431 m 1
 554 431 l 1
 554 485 531 509 478 509 c 0
 432 509 395 488 366 446 c 0
 341 408 325 353 325 305 c 0
 325 244 356 211 411 211 c 0
 468 211 508 241 526 297 c 1
 618 297 l 1
 590 192 504 128 390 128 c 0
 292 128 232 189 232 287 c 0
 232 362 259 444 302 498 c 0
 350 559 417 592 493 592 c 0
 586 592 647 541 647 464 c 0
 647 456 646 448 644 431 c 1
530 743 m 0
 707 743 837 615 837 440 c 0
 837 201 607 -22 360 -22 c 0
 184 -22 54 106 54 281 c 0
 54 520 284 743 530 743 c 0
514 671 m 0
 318 671 134 489 134 295 c 0
 134 154 237 50 377 50 c 0
 573 50 757 232 757 427 c 0
 757 568 654 671 514 671 c 0
EndSplineSet
EndChar
StartChar: ordfeminine
Encoding: 170 170
Width: 370
Flags: W
HStem: 262 80<113 380> 661 68<313 338>
VStem: 134.004 86.996<463 483> 365.985 85.0154<636 657>
DStem: 349 552 448 629 344 529 409 449
Fore
396 342 m 1
 380 262 l 1
 96 262 l 1
 113 342 l 1
 396 342 l 1
420 409 m 1
 418 399 l 1
 326 399 l 1
 323 405 322 409 322 415 c 0
 322 419 322 421 324 431 c 1
 288 399 257 385 217 385 c 0
 166 385 134 415 134 463 c 0
 134 526 182 575 256 586 c 2
 290 592 l 2
 333 598 333 598 346 604 c 0
 358 610 366 623 366 636 c 0
 366 653 353 661 322 661 c 0
 284 661 265 649 255 617 c 1
 176 617 l 1
 193 692 247 729 337 729 c 0
 408 729 451 702 451 657 c 0
 451 649 450 640 448 629 c 1
 409 449 l 2
 408 444 408 441 408 436 c 0
 408 428 412 419 420 409 c 1
344 529 m 2
 349 552 l 1
 342 549 340 548 333 546 c 0
 331 546 327 545 321 544 c 2
 311 543 l 1
 281 537 l 2
 243 531 221 511 221 483 c 0
 221 464 236 453 263 453 c 0
 304 453 334 481 344 529 c 2
EndSplineSet
EndChar
StartChar: guillemotleft
Encoding: 171 171
Width: 556
Flags: W
DStem: 135 218 213 275 271 72 295 186 348 218 426 275 484 72 508 186 358 481 333 364 159 332 213 275 571 481 546 364 372 332 426 275
Fore
135 218 m 1
 159 332 l 1
 358 481 l 1
 333 364 l 1
 213 275 l 1
 295 186 l 1
 271 72 l 1
 135 218 l 1
348 218 m 1
 372 332 l 1
 571 481 l 1
 546 364 l 1
 426 275 l 1
 508 186 l 1
 484 72 l 1
 348 218 l 1
EndSplineSet
MinimumDistance: x10,-1 
EndChar
StartChar: logicalnot
Encoding: 172 172
Width: 584
Flags: W
HStem: 256 120<128 487>
DStem: 128 376 632 376 103 256 571 86 488 256 632 376 452 86 571 86
Fore
128 376 m 1
 632 376 l 1
 571 86 l 1
 452 86 l 1
 488 256 l 1
 103 256 l 1
 128 376 l 1
EndSplineSet
EndChar
StartChar: registered
Encoding: 174 174
Width: 737
Flags: W
HStem: -22 72<355 379> 313 81<374 455> 502 80<396 516> 671 72<502 537>
VStem: 55 80<277 306> 480.824 99.1757<181 182> 499.99 96.01<278 304> 552.991 101.009<469 493> 757 80<414 442>
DStem: 317 582 396 502 223 140 373 394 317 582 356 313 223 140 319 140
Fore
356 313 m 1
 319 140 l 1
 223 140 l 1
 317 582 l 1
 555 582 l 2
 621 582 654 552 654 493 c 0
 654 429 621 382 557 353 c 1
 585 340 596 326 596 304 c 0
 596 287 593 266 581 195 c 1
 580 182 l 1
 580 173 583 167 592 161 c 1
 587 140 l 1
 485 140 l 1
 481 153 480 159 480 168 c 0
 480 183 485 213 494 247 c 0
 498 264 500 272 500 278 c 0
 500 302 483 313 447 313 c 2
 356 313 l 1
373 394 m 1
 475 394 l 2
 508 394 526 400 537 415 c 0
 546 426 553 450 553 469 c 0
 553 493 538 502 498 502 c 2
 396 502 l 1
 373 394 l 1
530 743 m 0
 708 743 837 615 837 440 c 0
 837 201 608 -22 361 -22 c 0
 185 -22 55 106 55 281 c 0
 55 520 284 743 530 743 c 0
514 671 m 0
 318 671 135 489 135 295 c 0
 135 154 237 50 377 50 c 0
 574 50 757 232 757 427 c 0
 757 568 654 671 514 671 c 0
EndSplineSet
EndChar
StartChar: macron
Encoding: 175 175
Width: 333
Flags: W
HStem: 642 80<167 450>
Fore
467 722 m 1
 450 642 l 1
 150 642 l 1
 167 722 l 1
 467 722 l 1
EndSplineSet
EndChar
StartChar: degree
Encoding: 176 176
Width: 606
Flags: W
HStem: 383 63<384 400> 623 63<384 400>
VStem: 240 63<527 543> 480 63<527 543>
Fore
391 686 m 0
 475 686 543 618 543 535 c 0
 543 450 475 383 390 383 c 0
 308 383 240 452 240 535 c 0
 240 618 308 686 391 686 c 0
392 623 m 0
 343 623 303 583 303 534 c 0
 303 487 343 446 390 446 c 0
 440 446 480 485 480 535 c 0
 480 583 440 623 392 623 c 0
EndSplineSet
MinimumDistance: x1,-1 
EndChar
StartChar: plusminus
Encoding: 177 177
Width: 584
Flags: W
HStem: 0 119<75 534> 332 120<146 302 448 605> 332 301<422 447>
DStem: 146 452 422 332 121 332 387 170 303 332 422 332 268 170 387 170 367 633 486 633 328 452 447 452
Fore
630 452 m 1
 605 332 l 1
 422 332 l 1
 387 170 l 1
 268 170 l 1
 303 332 l 1
 121 332 l 1
 146 452 l 1
 328 452 l 1
 367 633 l 1
 486 633 l 1
 447 452 l 1
 630 452 l 1
559 119 m 1
 534 0 l 1
 50 0 l 1
 75 119 l 1
 559 119 l 1
EndSplineSet
MinimumDistance: x10,-1 
EndChar
StartChar: twosuperior
Encoding: 178 178
Width: 444
Flags: W
HStem: 284 80<264 430> 646 72<348 367>
VStem: 406 92.3615<599 604>
Fore
447 364 m 1
 430 284 l 1
 124 284 l 1
 145 365 177 404 264 454 c 0
 334 495 354 509 374 528 c 0
 394 547 406 574 406 600 c 0
 406 629 387 646 354 646 c 0
 311 646 285 615 279 557 c 1
 188 557 l 1
 204 661 267 718 366 718 c 0
 450 718 499 679 499 613 c 0
 499 575 485 539 459 508 c 0
 439 486 416 468 364 437 c 0
 296 396 277 382 263 364 c 1
 447 364 l 1
EndSplineSet
EndChar
StartChar: threesuperior
Encoding: 179 179
Width: 444
Flags: W
HStem: 271.333 77.6669<291 298> 471 63<294 307> 646 71.1206<339 355>
VStem: 147.933 92.0672<378 396> 369 92.1505<421 431> 389.99 100.01<606 625>
Fore
280 471 m 1
 293 534 l 1
 297 533 302 533 303 533 c 0
 356 533 390 561 390 606 c 0
 390 630 372 646 345 646 c 0
 307 646 289 627 277 571 c 1
 190 571 l 1
 210 673 263 718 362 718 c 0
 443 718 490 684 490 625 c 0
 490 579 466 541 419 512 c 1
 448 494 462 471 462 439 c 0
 462 340 387 271 278 271 c 0
 195 271 147 310 147 378 c 0
 147 390 148 398 151 414 c 1
 242 414 l 1
 240 406 240 402 240 396 c 0
 240 365 259 349 296 349 c 0
 336 349 369 382 369 422 c 0
 369 456 347 470 293 471 c 2
 280 471 l 1
EndSplineSet
EndChar
StartChar: acute
Encoding: 180 180
Width: 333
Flags: W
Fore
475 757 m 1
 317 607 l 1
 247 607 l 1
 349 757 l 1
 475 757 l 1
EndSplineSet
EndChar
StartChar: mu
Encoding: 181 181
Width: 611
Flags: W
HStem: -23 563<515 523> -22.9035 121.903<299 315>
DStem: 173 540 313 540 11 -220 242 207 173 540 607 81 11 -220 589 -5 173 540 196 15 11 -220 146 -220 515 540 655 540 443 202 572 150
Fore
146 -220 m 1
 11 -220 l 1
 173 540 l 1
 313 540 l 1
 242 207 l 2
 238 188 235 170 235 161 c 0
 235 123 264 99 311 99 c 0
 378 99 430 139 443 202 c 1
 515 540 l 1
 655 540 l 1
 572 150 l 1
 568 129 565 111 565 100 c 0
 565 85 573 77 586 77 c 0
 593 77 597 78 607 81 c 1
 589 -5 l 1
 563 -18 543 -23 515 -23 c 0
 469 -23 448 -9 432 32 c 1
 384 -9 348 -23 291 -23 c 0
 246 -23 221 -13 196 15 c 1
 146 -220 l 1
EndSplineSet
EndChar
StartChar: paragraph
Encoding: 182 182
Width: 556
Flags: W
HStem: 656 73<465 526 625 669>
DStem: 284 267 465 656 187 -191 285 -191 527 656 625 656 347 -191 445 -191
Fore
684 729 m 1
 669 656 l 1
 625 656 l 1
 445 -191 l 1
 347 -191 l 1
 527 656 l 1
 465 656 l 1
 285 -191 l 1
 187 -191 l 1
 284 267 l 1
 184 272 121 337 121 435 c 0
 121 512 153 588 210 649 c 0
 260 703 317 729 382 729 c 2
 684 729 l 1
EndSplineSet
EndChar
StartChar: periodcentered
Encoding: 183 183
Width: 278
Flags: W
HStem: 182 100<165 248>
DStem: 165 282 270 282 143 182 248 182
Fore
270 282 m 1
 248 182 l 1
 143 182 l 1
 165 282 l 1
 270 282 l 1
EndSplineSet
MinimumDistance: x0,-1 
EndChar
StartChar: cedilla
Encoding: 184 184
Width: 333
Flags: W
HStem: -220 50<99 122> -20 20G<154 204>
VStem: 183 86.0327<-127 -124>
DStem: 154 0 204 0 86 -106 163 -62
Fore
154 0 m 1
 204 0 l 1
 163 -62 l 1
 179 -58 191 -56 206 -56 c 0
 246 -56 270 -77 270 -113 c 0
 270 -178 210 -220 120 -220 c 0
 75 -220 43 -213 -13 -191 c 1
 17 -140 l 1
 64 -163 87 -170 115 -170 c 0
 153 -170 183 -150 183 -126 c 0
 183 -106 165 -93 139 -93 c 0
 122 -93 110 -96 86 -106 c 1
 154 0 l 1
EndSplineSet
EndChar
StartChar: onesuperior
Encoding: 185 185
Width: 444
Flags: W
HStem: 573 61<223.063 248.83>
DStem: 223 634 438 709 210 573 348 284 316 573 438 709 254 284 348 284
Fore
316 573 m 1
 210 573 l 1
 223 634 l 1
 301 634 351 659 375 709 c 1
 438 709 l 1
 348 284 l 1
 254 284 l 1
 316 573 l 1
EndSplineSet
MinimumDistance: x4,-1 
EndChar
StartChar: ordmasculine
Encoding: 186 186
Width: 365
Flags: W
HStem: 262 80<109 393> 386.47 62.5298<284 287> 661 67.5215<325 332>
VStem: 140 87<506 522> 384 86.0264<589 598>
Fore
410 342 m 1
 393 262 l 1
 92 262 l 1
 109 342 l 1
 410 342 l 1
339 729 m 0
 421 729 471 684 471 610 c 0
 471 558 452 497 423 460 c 0
 386 411 333 386 269 386 c 0
 190 386 140 432 140 506 c 0
 140 558 159 617 188 655 c 0
 223 702 278 729 339 729 c 0
326 661 m 0
 272 661 227 597 227 520 c 0
 227 477 250 449 285 449 c 0
 339 449 384 514 384 590 c 0
 384 633 361 661 326 661 c 0
EndSplineSet
EndChar
StartChar: guillemotright
Encoding: 187 187
Width: 556
Flags: W
DStem: 166 367 190 481 248 278 326 335 248 278 302 220 128 189 103 72 373 367 397 481 455 278 533 335 455 278 509 220 335 189 310 72
Fore
326 335 m 1
 302 220 l 1
 103 72 l 1
 128 189 l 1
 248 278 l 1
 166 367 l 1
 190 481 l 1
 326 335 l 1
533 335 m 1
 509 220 l 1
 310 72 l 1
 335 189 l 1
 455 278 l 1
 373 367 l 1
 397 481 l 1
 533 335 l 1
EndSplineSet
MinimumDistance: x7,-1 
EndChar
StartChar: onequarter
Encoding: 188 188
Width: 1055
Flags: W
HStem: 0 21G<848 942> 93 73<780 867 978 1007> 573 61<223.063 248.83>
DStem: 223 634 438 709 210 573 348 284 316 573 438 709 254 284 348 284 848 715 933 715 267 -20 352 -20 868 93 961 93 848 0 942 0 919 332 1032 425 884 166 977 166 924 425 919 332 707 165 779 166
Fore
316 573 m 1
 210 573 l 1
 223 634 l 1
 301 634 351 659 375 709 c 1
 438 709 l 1
 348 284 l 1
 254 284 l 1
 316 573 l 1
848 715 m 1
 933 715 l 1
 352 -20 l 1
 267 -20 l 1
 848 715 l 1
1023 166 m 1
 1007 93 l 1
 961 93 l 1
 942 0 l 1
 848 0 l 1
 868 93 l 1
 691 93 l 1
 707 165 l 1
 924 425 l 1
 1032 425 l 1
 977 166 l 1
 1023 166 l 1
884 166 m 1
 919 332 l 1
 779 166 l 1
 884 166 l 1
EndSplineSet
MinimumDistance: x20,-1 
EndChar
StartChar: onehalf
Encoding: 189 189
Width: 1055
Flags: W
HStem: 0 80<815 981> 362 72<898 918> 573 61<223.063 248.83>
VStem: 957 92.3616<315 318>
DStem: 223 634 438 709 210 573 348 284 316 573 438 709 254 284 348 284 838 715 923 715 257 -20 342 -20
Fore
316 573 m 1
 210 573 l 1
 223 634 l 1
 301 634 351 659 375 709 c 1
 438 709 l 1
 348 284 l 1
 254 284 l 1
 316 573 l 1
838 715 m 1
 923 715 l 1
 342 -20 l 1
 257 -20 l 1
 838 715 l 1
998 80 m 1
 981 0 l 1
 675 0 l 1
 696 81 728 120 815 170 c 0
 885 211 905 225 925 244 c 0
 945 263 957 290 957 316 c 0
 957 345 938 362 905 362 c 0
 862 362 836 331 830 273 c 1
 739 273 l 1
 755 377 818 434 917 434 c 0
 1001 434 1050 395 1050 329 c 0
 1050 291 1036 255 1010 224 c 0
 990 202 967 184 915 153 c 0
 847 112 828 98 814 80 c 1
 998 80 l 1
EndSplineSet
EndChar
StartChar: threequarters
Encoding: 190 190
Width: 1055
Flags: W
HStem: 0 21G<848 942> 93 73<780 867 978 1007> 271.125 77.8747<286 298> 471 63<294 307> 646 71.1206<339 355>
VStem: 147.933 92.0672<378 396> 369 92.1505<421 428> 389.99 100.01<606 625>
DStem: 868 715 953 715 287 -20 372 -20 868 93 961 93 848 0 942 0 868 715 953 715 287 -20 372 -20 868 93 961 93 848 0 942 0 868 715 953 715 287 -20 372 -20 868 93 961 93 848 0 942 0 868 715 953 715 287 -20 372 -20 868 93 961 93 848 0 942 0 868 715 953 715 287 -20 372 -20 868 93 961 93 848 0 942 0 868 715 953 715 287 -20 372 -20 868 93 961 93 848 0 942 0 868 715 953 715 287 -20 372 -20 868 93 961 93 848 0 942 0 868 715 953 715 287 -20 372 -20 919 332 1032 425 884 166 977 166 924 425 919 332 707 165 779 166
Fore
280 471 m 1
 293 534 l 1
 297 533 302 533 303 533 c 0
 356 533 390 561 390 606 c 0
 390 630 372 646 345 646 c 0
 307 646 289 627 277 571 c 1
 190 571 l 1
 210 673 263 718 362 718 c 0
 443 718 490 684 490 625 c 0
 490 579 466 541 419 512 c 1
 448 494 462 471 462 439 c 0
 462 340 387 271 278 271 c 0
 195 271 147 310 147 378 c 0
 147 390 148 398 151 414 c 1
 242 414 l 1
 240 406 240 402 240 396 c 0
 240 365 259 349 296 349 c 0
 336 349 369 382 369 422 c 0
 369 456 347 470 293 471 c 2
 280 471 l 1
868 715 m 1
 953 715 l 1
 372 -20 l 1
 287 -20 l 1
 868 715 l 1
1023 166 m 1
 1007 93 l 1
 961 93 l 1
 942 0 l 1
 848 0 l 1
 868 93 l 1
 691 93 l 1
 707 165 l 1
 924 425 l 1
 1032 425 l 1
 977 166 l 1
 1023 166 l 1
884 166 m 1
 919 332 l 1
 779 166 l 1
 884 166 l 1
EndSplineSet
MinimumDistance: x32,-1 
EndChar
StartChar: questiondown
Encoding: 191 191
Width: 611
Flags: W
HStem: -203.908 123.908<276 294> 394 146<337 456>
VStem: 52.0024 142.998<-26 7>
DStem: 337 540 487 540 306 394 456 394
Fore
310 339 m 1
 432 339 l 1
 425 262 386 207 292 141 c 0
 236 102 226 93 211 67 c 0
 201 48 195 27 195 7 c 0
 195 -44 233 -80 287 -80 c 0
 354 -80 404 -28 420 59 c 1
 556 59 l 1
 537 -25 515 -74 476 -117 c 0
 423 -174 352 -204 268 -204 c 0
 135 -204 52 -135 52 -26 c 0
 52 18 66 69 89 108 c 0
 111 144 147 175 219 220 c 0
 287 261 296 273 310 339 c 1
306 394 m 1
 337 540 l 1
 487 540 l 1
 456 394 l 1
 306 394 l 1
EndSplineSet
MinimumDistance: x15,-1 
EndChar
StartChar: Agrave
Encoding: 192 192
Width: 722
Flags: W
HStem: 0 21G<26 179 550 703> 147 125<330 517> 709 20G<433 606> 786 150<508 526>
DStem: 433 729 483 555 26 0 329 272 433 729 260 147 26 0 179 0
Fore
532 147 m 1
 260 147 l 1
 179 0 l 1
 26 0 l 1
 433 729 l 1
 606 729 l 1
 703 0 l 1
 550 0 l 1
 532 147 l 1
518 272 m 1
 483 555 l 1
 329 272 l 1
 518 272 l 1
407 936 m 1
 526 936 l 1
 571 786 l 1
 508 786 l 1
 407 936 l 1
EndSplineSet
MinimumDistance: x9,-1 
EndChar
StartChar: Aacute
Encoding: 193 193
Width: 722
Flags: W
HStem: 0 21G<26 179 550 703> 147 125<330 517> 709 20G<433 606>
DStem: 433 729 483 555 26 0 329 272 433 729 260 147 26 0 179 0
Fore
532 147 m 1
 260 147 l 1
 179 0 l 1
 26 0 l 1
 433 729 l 1
 606 729 l 1
 703 0 l 1
 550 0 l 1
 532 147 l 1
518 272 m 1
 483 555 l 1
 329 272 l 1
 518 272 l 1
714 936 m 1
 556 786 l 1
 486 786 l 1
 588 936 l 1
 714 936 l 1
EndSplineSet
MinimumDistance: x9,-1 
EndChar
StartChar: Acircumflex
Encoding: 194 194
Width: 722
Flags: W
HStem: 0 21G<26 179 550 703> 147 125<330 517> 709 20G<433 606> 789 147<612 619>
DStem: 433 729 483 555 26 0 329 272 433 729 260 147 26 0 179 0
Fore
532 147 m 1
 260 147 l 1
 179 0 l 1
 26 0 l 1
 433 729 l 1
 606 729 l 1
 703 0 l 1
 550 0 l 1
 532 147 l 1
518 272 m 1
 483 555 l 1
 329 272 l 1
 518 272 l 1
511 936 m 1
 619 936 l 1
 690 789 l 1
 612 789 l 1
 551 886 l 1
 448 789 l 1
 372 789 l 1
 511 936 l 1
EndSplineSet
MinimumDistance: x9,-1 
EndChar
StartChar: Atilde
Encoding: 195 195
Width: 722
Flags: W
HStem: 0 21G<26 179 550 703> 147 125<330 517> 709 20G<433 606> 801.005 71.9951<606 631> 852 68.0594<461 477>
DStem: 433 729 483 555 26 0 329 272 433 729 260 147 26 0 179 0
Fore
532 147 m 1
 260 147 l 1
 179 0 l 1
 26 0 l 1
 433 729 l 1
 606 729 l 1
 703 0 l 1
 550 0 l 1
 532 147 l 1
518 272 m 1
 483 555 l 1
 329 272 l 1
 518 272 l 1
685 923 m 1
 739 923 l 1
 728 883 717 862 698 842 c 0
 673 816 638 801 606 801 c 0
 589 801 568 806 555 812 c 2
 505 837 l 2
 488 846 469 852 461 852 c 0
 443 852 427 837 410 803 c 1
 356 803 l 1
 380 879 422 921 477 921 c 0
 503 921 512 919 548 903 c 2
 598 882 l 2
 616 874 619 873 631 873 c 0
 653 873 671 889 685 923 c 1
EndSplineSet
MinimumDistance: x9,-1 
EndChar
StartChar: Adieresis
Encoding: 196 196
Width: 722
Flags: W
HStem: 0 21G<26 179 550 703> 147 125<330 517> 709 20G<433 606> 800 120<412 496 598 682>
DStem: 412 920 522 920 386 800 496 800 433 729 483 555 26 0 329 272 433 729 260 147 26 0 179 0 598 920 708 920 572 800 682 800
Fore
532 147 m 1
 260 147 l 1
 179 0 l 1
 26 0 l 1
 433 729 l 1
 606 729 l 1
 703 0 l 1
 550 0 l 1
 532 147 l 1
518 272 m 1
 483 555 l 1
 329 272 l 1
 518 272 l 1
522 920 m 1
 496 800 l 1
 386 800 l 1
 412 920 l 1
 522 920 l 1
708 920 m 1
 682 800 l 1
 572 800 l 1
 598 920 l 1
 708 920 l 1
EndSplineSet
MinimumDistance: x15,-1 
EndChar
StartChar: Aring
Encoding: 197 197
Width: 722
Flags: W
HStem: 0 21G<26 179 550 703> 147 125<330 517> 709 20G<433 606> 773.251 49.749<531 537> 903 49.1372<551 556>
VStem: 452.088 48.9116<848 857> 587 49<871 880>
DStem: 433 729 483 555 26 0 329 272 433 729 260 147 26 0 179 0
Fore
532 147 m 1
 260 147 l 1
 179 0 l 1
 26 0 l 1
 433 729 l 1
 606 729 l 1
 703 0 l 1
 550 0 l 1
 532 147 l 1
518 272 m 1
 483 555 l 1
 329 272 l 1
 518 272 l 1
564 953 m 0
 606 953 636 923 636 882 c 0
 636 825 582 773 524 773 c 0
 482 773 452 803 452 844 c 0
 452 901 506 953 564 953 c 0
554 903 m 0
 527 903 501 880 501 855 c 0
 501 837 515 823 535 823 c 0
 562 823 587 847 587 872 c 0
 587 890 573 903 554 903 c 0
EndSplineSet
MinimumDistance: x12,-1 
EndChar
StartChar: AE
Encoding: 198 198
Width: 1000
Flags: W
HStem: 0 125<610 968> 152 125<311 463> 314 125<676 988> 604 125<495 560 711 1078>
DStem: 421 729 495 604 1 0 310 277 421 729 245 152 1 0 160 0 464 152 995 125 432 0 968 0 561 604 711 604 491 277 675 439 561 604 1014 439 491 277 988 314 561 604 649 314 491 277 609 125
Fore
464 152 m 1
 245 152 l 1
 160 0 l 1
 1 0 l 1
 421 729 l 1
 1104 729 l 1
 1078 604 l 1
 711 604 l 1
 675 439 l 1
 1014 439 l 1
 988 314 l 1
 649 314 l 1
 609 125 l 1
 995 125 l 1
 968 0 l 1
 432 0 l 1
 464 152 l 1
491 277 m 1
 561 604 l 1
 495 604 l 1
 310 277 l 1
 491 277 l 1
EndSplineSet
EndChar
StartChar: Ccedilla
Encoding: 199 199
Width: 722
Flags: W
HStem: -220 50<299 329> -23 128<390 411> 613 128<507 535>
VStem: 107.072 148.928<244 267> 383 86.0323<-127 -124> 647.999 145.001<482 531>
DStem: 340 -22 389 -23 285 -106 363 -63
Fore
389 -23 m 1
 363 -63 l 1
 377 -58 391 -56 406 -56 c 0
 446 -56 470 -77 470 -113 c 0
 470 -178 410 -220 319 -220 c 0
 275 -220 243 -213 186 -191 c 1
 216 -140 l 1
 264 -163 287 -170 315 -170 c 0
 353 -170 383 -150 383 -126 c 0
 383 -106 365 -93 339 -93 c 0
 322 -93 310 -96 285 -106 c 1
 340 -22 l 1
 199 -11 107 90 107 235 c 0
 107 363 151 499 222 586 c 1
 303 688 410 741 533 741 c 0
 688 741 793 656 793 531 c 0
 793 520 792 508 789 482 c 1
 648 482 l 1
 648 521 644 540 631 560 c 0
 610 594 569 613 516 613 c 0
 436 613 374 578 327 504 c 0
 282 434 256 347 256 265 c 0
 256 159 306 105 403 105 c 0
 499 105 570 157 599 249 c 1
 742 249 l 1
 701 82 565 -22 389 -23 c 1
EndSplineSet
EndChar
StartChar: Egrave
Encoding: 200 200
Width: 667
Flags: W
HStem: 0 125<257 624> 314 125<323 645> 604 125<357 735> 786 150<501 519>
DStem: 234 729 357 604 79 0 322 439 234 729 671 439 79 0 645 314 234 729 296 314 79 0 256 125 234 729 651 125 79 0 624 0
Fore
296 314 m 1
 256 125 l 1
 651 125 l 1
 624 0 l 1
 79 0 l 1
 234 729 l 1
 762 729 l 1
 735 604 l 1
 357 604 l 1
 322 439 l 1
 671 439 l 1
 645 314 l 1
 296 314 l 1
400 936 m 1
 519 936 l 1
 564 786 l 1
 501 786 l 1
 400 936 l 1
EndSplineSet
EndChar
StartChar: Eacute
Encoding: 201 201
Width: 667
Flags: W
HStem: 0 125<257 624> 314 125<323 645> 604 125<357 735>
DStem: 234 729 357 604 79 0 322 439 234 729 671 439 79 0 645 314 234 729 296 314 79 0 256 125 234 729 651 125 79 0 624 0
Fore
296 314 m 1
 256 125 l 1
 651 125 l 1
 624 0 l 1
 79 0 l 1
 234 729 l 1
 762 729 l 1
 735 604 l 1
 357 604 l 1
 322 439 l 1
 671 439 l 1
 645 314 l 1
 296 314 l 1
675 936 m 1
 517 786 l 1
 447 786 l 1
 549 936 l 1
 675 936 l 1
EndSplineSet
EndChar
StartChar: Ecircumflex
Encoding: 202 202
Width: 667
Flags: W
HStem: 0 125<257 624> 314 125<323 645> 604 125<357 735> 789 147<595 602>
DStem: 234 729 357 604 79 0 322 439 234 729 671 439 79 0 645 314 234 729 296 314 79 0 256 125 234 729 651 125 79 0 624 0
Fore
296 314 m 1
 256 125 l 1
 651 125 l 1
 624 0 l 1
 79 0 l 1
 234 729 l 1
 762 729 l 1
 735 604 l 1
 357 604 l 1
 322 439 l 1
 671 439 l 1
 645 314 l 1
 296 314 l 1
494 936 m 1
 602 936 l 1
 673 789 l 1
 595 789 l 1
 534 886 l 1
 431 789 l 1
 355 789 l 1
 494 936 l 1
EndSplineSet
EndChar
StartChar: Edieresis
Encoding: 203 203
Width: 667
Flags: W
HStem: 0 125<257 624> 314 125<323 645> 604 125<357 735> 800 120<392 476 578 662>
DStem: 234 729 357 604 79 0 322 439 234 729 671 439 79 0 645 314 234 729 296 314 79 0 256 125 234 729 651 125 79 0 624 0 392 920 502 920 366 800 476 800 578 920 688 920 552 800 662 800
Fore
296 314 m 1
 256 125 l 1
 651 125 l 1
 624 0 l 1
 79 0 l 1
 234 729 l 1
 762 729 l 1
 735 604 l 1
 357 604 l 1
 322 439 l 1
 671 439 l 1
 645 314 l 1
 296 314 l 1
502 920 m 1
 476 800 l 1
 366 800 l 1
 392 920 l 1
 502 920 l 1
688 920 m 1
 662 800 l 1
 552 800 l 1
 578 920 l 1
 688 920 l 1
EndSplineSet
EndChar
StartChar: Igrave
Encoding: 204 204
Width: 278
Flags: W
HStem: 0 21G<63 213> 709 20G<218 368> 786 150<282 300>
DStem: 218 729 368 729 63 0 213 0
Fore
368 729 m 1
 213 0 l 1
 63 0 l 1
 218 729 l 1
 368 729 l 1
181 936 m 1
 300 936 l 1
 345 786 l 1
 282 786 l 1
 181 936 l 1
EndSplineSet
EndChar
StartChar: Iacute
Encoding: 205 205
Width: 278
Flags: W
HStem: 0 21G<63 213> 709 20G<218 368>
DStem: 218 729 368 729 63 0 213 0
Fore
368 729 m 1
 213 0 l 1
 63 0 l 1
 218 729 l 1
 368 729 l 1
489 936 m 1
 331 786 l 1
 261 786 l 1
 363 936 l 1
 489 936 l 1
EndSplineSet
EndChar
StartChar: Icircumflex
Encoding: 206 206
Width: 278
Flags: W
HStem: 0 21G<63 213> 709 20G<218 368> 789 147<389 396>
DStem: 218 729 368 729 63 0 213 0
Fore
368 729 m 1
 213 0 l 1
 63 0 l 1
 218 729 l 1
 368 729 l 1
288 936 m 1
 396 936 l 1
 467 789 l 1
 389 789 l 1
 328 886 l 1
 225 789 l 1
 149 789 l 1
 288 936 l 1
EndSplineSet
EndChar
StartChar: Idieresis
Encoding: 207 207
Width: 278
Flags: W
HStem: 0 21G<63 213> 709 20G<218 368> 800 120<187 271 373 457>
DStem: 187 920 297 920 161 800 271 800 218 729 368 729 63 0 213 0 373 920 483 920 347 800 457 800
Fore
368 729 m 1
 213 0 l 1
 63 0 l 1
 218 729 l 1
 368 729 l 1
297 920 m 1
 271 800 l 1
 161 800 l 1
 187 920 l 1
 297 920 l 1
483 920 m 1
 457 800 l 1
 347 800 l 1
 373 920 l 1
 483 920 l 1
EndSplineSet
EndChar
StartChar: Eth
Encoding: 208 208
Width: 722
Flags: W
HStem: 0 125<255 393> 341 80<90 149 317 473> 604 125<355 505>
VStem: 627 149<448 481>
DStem: 90 421 300 341 73 341 254 125 150 341 300 341 77 0 254 125 232 729 355 604 166 421 316 421
Fore
150 341 m 1
 73 341 l 1
 90 421 l 1
 166 421 l 1
 232 729 l 1
 517 729 l 2
 698 729 776 654 776 479 c 0
 776 361 735 238 664 140 c 0
 591 39 507 0 362 0 c 2
 77 0 l 1
 150 341 l 1
300 341 m 1
 254 125 l 1
 388 125 l 2
 475 125 524 153 567 228 c 0
 601 287 627 390 627 469 c 0
 627 560 582 604 490 604 c 2
 355 604 l 1
 316 421 l 1
 490 421 l 1
 473 341 l 1
 300 341 l 1
EndSplineSet
EndChar
StartChar: Ntilde
Encoding: 209 209
Width: 722
Flags: W
HStem: 0 21G<68 210 513 661> 709 20G<223 373 674 816> 801.005 71.9951<604 629> 852 68.0594<459 475>
DStem: 223 729 321 523 68 0 210 0 321 523 373 729 513 0 565 214 674 729 816 729 565 214 661 0
Fore
816 729 m 1
 661 0 l 1
 513 0 l 1
 321 523 l 1
 210 0 l 1
 68 0 l 1
 223 729 l 1
 373 729 l 1
 565 214 l 1
 674 729 l 1
 816 729 l 1
683 923 m 1
 737 923 l 1
 726 883 715 862 696 842 c 0
 671 816 636 801 604 801 c 0
 587 801 566 806 553 812 c 2
 503 837 l 2
 486 846 467 852 459 852 c 0
 441 852 425 837 408 803 c 1
 354 803 l 1
 378 879 420 921 475 921 c 0
 501 921 510 919 546 903 c 2
 596 882 l 2
 614 874 617 873 629 873 c 0
 651 873 669 889 683 923 c 1
EndSplineSet
EndChar
StartChar: Ograve
Encoding: 210 210
Width: 778
Flags: W
HStem: -22.7892 127.789<410 426> 613 128<518 539> 786 150<551 569>
VStem: 106 149<260 284> 679 149<425 457>
Fore
538 741 m 0
 721 741 828 635 828 455 c 0
 828 337 783 215 705 124 c 0
 619 22 523 -23 395 -23 c 0
 217 -23 106 86 106 261 c 0
 106 376 153 502 231 594 c 0
 313 693 414 741 538 741 c 0
519 613 m 0
 443 613 377 577 327 509 c 0
 283 448 255 360 255 282 c 0
 255 173 318 105 419 105 c 0
 496 105 559 140 609 210 c 0
 652 270 679 358 679 437 c 0
 679 547 619 613 519 613 c 0
450 936 m 1
 569 936 l 1
 614 786 l 1
 551 786 l 1
 450 936 l 1
EndSplineSet
EndChar
StartChar: Oacute
Encoding: 211 211
Width: 778
Flags: W
HStem: -22.7892 127.789<410 426> 613 128<518 539>
VStem: 106 149<260 284> 679 149<425 457>
Fore
538 741 m 0
 721 741 828 635 828 455 c 0
 828 337 783 215 705 124 c 0
 619 22 523 -23 395 -23 c 0
 217 -23 106 86 106 261 c 0
 106 376 153 502 231 594 c 0
 313 693 414 741 538 741 c 0
519 613 m 0
 443 613 377 577 327 509 c 0
 283 448 255 360 255 282 c 0
 255 173 318 105 419 105 c 0
 496 105 559 140 609 210 c 0
 652 270 679 358 679 437 c 0
 679 547 619 613 519 613 c 0
732 936 m 1
 574 786 l 1
 504 786 l 1
 606 936 l 1
 732 936 l 1
EndSplineSet
EndChar
StartChar: Ocircumflex
Encoding: 212 212
Width: 778
Flags: W
HStem: -22.9667 127.967<401 426> 613 128<518 539> 789 147<642 649>
VStem: 106 149<260 284> 679 149<425 457>
Fore
538 741 m 0
 721 741 828 635 828 455 c 0
 828 337 783 215 705 124 c 0
 619 22 523 -23 395 -23 c 0
 217 -23 106 86 106 261 c 0
 106 376 153 502 231 594 c 0
 313 693 414 741 538 741 c 0
519 613 m 0
 443 613 377 577 327 509 c 0
 283 448 255 360 255 282 c 0
 255 173 318 105 419 105 c 0
 496 105 559 140 609 210 c 0
 652 270 679 358 679 437 c 0
 679 547 619 613 519 613 c 0
541 936 m 1
 649 936 l 1
 720 789 l 1
 642 789 l 1
 581 886 l 1
 478 789 l 1
 402 789 l 1
 541 936 l 1
EndSplineSet
EndChar
StartChar: Otilde
Encoding: 213 213
Width: 778
Flags: W
HStem: -22.7892 127.789<410 426> 613 128<508 539> 801.925 71.8193<636 661> 852 68.0594<491 507>
VStem: 106 149<260 284> 679 149<425 457>
Fore
538 741 m 0
 721 741 828 635 828 455 c 0
 828 337 783 215 705 124 c 0
 619 22 523 -23 395 -23 c 0
 217 -23 106 86 106 261 c 0
 106 376 153 502 231 594 c 0
 313 693 414 741 538 741 c 0
519 613 m 0
 443 613 377 577 327 509 c 0
 283 448 255 360 255 282 c 0
 255 173 318 105 419 105 c 0
 496 105 559 140 609 210 c 0
 652 270 679 358 679 437 c 0
 679 547 619 613 519 613 c 0
715 923 m 1
 769 923 l 1
 758 883 747 862 728 842 c 0
 703 816 668 801 636 801 c 0
 619 801 598 806 585 812 c 2
 535 837 l 2
 518 846 499 852 491 852 c 0
 473 852 457 837 440 803 c 1
 386 803 l 1
 410 879 452 921 507 921 c 0
 533 921 542 919 578 903 c 2
 628 882 l 2
 646 874 649 873 661 873 c 0
 683 873 701 889 715 923 c 1
EndSplineSet
EndChar
StartChar: Odieresis
Encoding: 214 214
Width: 778
Flags: W
HStem: -22.7892 127.789<410 426> 613 128<518 539> 800 120<440 524 626 710>
VStem: 106 149<260 284> 679 149<425 457>
DStem: 440 920 550 920 414 800 524 800 626 920 736 920 600 800 710 800
Fore
538 741 m 0
 721 741 828 635 828 455 c 0
 828 337 783 215 705 124 c 0
 619 22 523 -23 395 -23 c 0
 217 -23 106 86 106 261 c 0
 106 376 153 502 231 594 c 0
 313 693 414 741 538 741 c 0
519 613 m 0
 443 613 377 577 327 509 c 0
 283 448 255 360 255 282 c 0
 255 173 318 105 419 105 c 0
 496 105 559 140 609 210 c 0
 652 270 679 358 679 437 c 0
 679 547 619 613 519 613 c 0
550 920 m 1
 524 800 l 1
 414 800 l 1
 440 920 l 1
 550 920 l 1
736 920 m 1
 710 800 l 1
 600 800 l 1
 626 920 l 1
 736 920 l 1
EndSplineSet
EndChar
StartChar: multiply
Encoding: 215 215
Width: 584
Flags: W
DStem: 156 359 258 444 257 231 359 315 257 231 323 147 102 103 168 19 323 147 425 231 424 18 526 102 516 444 582 360 359 315 425 231
Fore
516 444 m 1
 582 360 l 1
 425 231 l 1
 526 102 l 1
 424 18 l 1
 323 147 l 1
 168 19 l 1
 102 103 l 1
 257 231 l 1
 156 359 l 1
 258 444 l 1
 359 315 l 1
 516 444 l 1
EndSplineSet
MinimumDistance: x1,-1 
EndChar
StartChar: Oslash
Encoding: 216 216
Width: 778
Flags: W
HStem: -22.9466 127.947<402 423> 613 127.22<520 530>
VStem: 109 149<262 283> 683 149<425 457>
DStem: 145 106 181 56 34 7 75 -39 650 557 678 500 264 213 294 157 864 749 906 704 763 659 798 607
Fore
181 56 m 1
 75 -39 l 1
 34 7 l 1
 145 106 l 1
 122 150 109 204 109 263 c 0
 109 377 157 503 234 595 c 0
 317 692 422 741 547 741 c 0
 641 741 713 714 763 659 c 1
 864 749 l 1
 906 704 l 1
 798 607 l 1
 821 560 832 510 832 452 c 0
 832 339 785 215 707 123 c 0
 625 27 519 -23 395 -23 c 0
 302 -23 228 4 181 56 c 1
678 500 m 1
 294 157 l 1
 323 123 367 105 421 105 c 0
 497 105 561 140 611 210 c 0
 656 271 683 358 683 439 c 0
 683 460 682 478 678 500 c 1
264 213 m 1
 650 557 l 1
 620 594 577 613 521 613 c 0
 445 613 379 577 330 509 c 0
 286 448 258 359 258 281 c 0
 258 258 260 235 264 213 c 1
EndSplineSet
EndChar
StartChar: Ugrave
Encoding: 217 217
Width: 722
Flags: W
HStem: -22.9091 127.909<375 395> 709 20G<231 381 659 809> 786 150<531 549>
VStem: 119.706 151.43<167 190>
DStem: 231 729 381 729 130 255 276 235 659 729 809 729 554 235 704 235
Fore
659 729 m 1
 809 729 l 1
 704 235 l 1
 686 152 654 96 597 51 c 0
 536 3 454 -23 366 -23 c 0
 215 -23 119 51 119 167 c 0
 119 189 123 222 130 255 c 2
 231 729 l 1
 381 729 l 1
 276 235 l 1
 273 219 271 205 271 190 c 0
 271 137 316 105 394 105 c 0
 485 105 535 145 554 235 c 2
 659 729 l 1
430 936 m 1
 549 936 l 1
 594 786 l 1
 531 786 l 1
 430 936 l 1
EndSplineSet
EndChar
StartChar: Uacute
Encoding: 218 218
Width: 722
Flags: W
HStem: -22.9091 127.909<375 395> 709 20G<231 381 659 809>
VStem: 119.706 151.43<167 190>
DStem: 231 729 381 729 130 255 276 235 659 729 809 729 554 235 704 235
Fore
659 729 m 1
 809 729 l 1
 704 235 l 1
 686 152 654 96 597 51 c 0
 536 3 454 -23 366 -23 c 0
 215 -23 119 51 119 167 c 0
 119 189 123 222 130 255 c 2
 231 729 l 1
 381 729 l 1
 276 235 l 1
 273 219 271 205 271 190 c 0
 271 137 316 105 394 105 c 0
 485 105 535 145 554 235 c 2
 659 729 l 1
692 936 m 1
 534 786 l 1
 464 786 l 1
 566 936 l 1
 692 936 l 1
EndSplineSet
EndChar
StartChar: Ucircumflex
Encoding: 219 219
Width: 722
Flags: W
HStem: -22.9091 127.909<375 395> 709 20G<231 381 659 809> 789 147<617 624>
VStem: 119.706 151.43<167 190>
DStem: 231 729 381 729 130 255 276 235 659 729 809 729 554 235 704 235
Fore
659 729 m 1
 809 729 l 1
 704 235 l 1
 686 152 654 96 597 51 c 0
 536 3 454 -23 366 -23 c 0
 215 -23 119 51 119 167 c 0
 119 189 123 222 130 255 c 2
 231 729 l 1
 381 729 l 1
 276 235 l 1
 273 219 271 205 271 190 c 0
 271 137 316 105 394 105 c 0
 485 105 535 145 554 235 c 2
 659 729 l 1
516 936 m 1
 624 936 l 1
 695 789 l 1
 617 789 l 1
 556 886 l 1
 453 789 l 1
 377 789 l 1
 516 936 l 1
EndSplineSet
EndChar
StartChar: Udieresis
Encoding: 220 220
Width: 722
Flags: W
HStem: -22.9091 127.909<375 395> 709 20G<231 381 659 809> 800 120<409 493 595 679>
VStem: 119.706 151.43<167 190>
DStem: 231 729 381 729 130 255 276 235 409 920 519 920 383 800 493 800 595 920 705 920 569 800 679 800 659 729 809 729 554 235 704 235
Fore
659 729 m 1
 809 729 l 1
 704 235 l 1
 686 152 654 96 597 51 c 0
 536 3 454 -23 366 -23 c 0
 215 -23 119 51 119 167 c 0
 119 189 123 222 130 255 c 2
 231 729 l 1
 381 729 l 1
 276 235 l 1
 273 219 271 205 271 190 c 0
 271 137 316 105 394 105 c 0
 485 105 535 145 554 235 c 2
 659 729 l 1
519 920 m 1
 493 800 l 1
 383 800 l 1
 409 920 l 1
 519 920 l 1
705 920 m 1
 679 800 l 1
 569 800 l 1
 595 920 l 1
 705 920 l 1
EndSplineSet
EndChar
StartChar: Yacute
Encoding: 221 221
Width: 667
Flags: W
HStem: 0 21G<269 419> 709 20G<182 349 638 805>
DStem: 327 270 477 270 269 0 419 0
Fore
477 270 m 1
 419 0 l 1
 269 0 l 1
 327 270 l 1
 182 729 l 1
 349 729 l 1
 431 414 l 1
 638 729 l 1
 805 729 l 1
 477 270 l 1
668 936 m 1
 510 786 l 1
 440 786 l 1
 542 936 l 1
 668 936 l 1
EndSplineSet
MinimumDistance: x0,-1 
EndChar
StartChar: Thorn
Encoding: 222 222
Width: 667
Flags: W
HStem: 0 21G<76 226> 140 125<283 445> 484 125<356 492> 484 245<329 355>
VStem: 571.995 149.005<405 440>
DStem: 231 729 381 729 76 0 355 609 231 729 329 484 76 0 282 265 231 729 256 140 76 0 226 0
Fore
256 140 m 1
 226 0 l 1
 76 0 l 1
 231 729 l 1
 381 729 l 1
 355 609 l 1
 514 609 l 2
 580 609 621 598 657 570 c 0
 698 539 721 492 721 440 c 0
 721 363 687 278 633 221 c 0
 579 164 522 140 443 140 c 2
 256 140 l 1
282 265 m 1
 435 265 l 2
 488 265 522 281 547 316 c 0
 561 337 572 376 572 405 c 0
 572 452 536 484 482 484 c 2
 329 484 l 1
 282 265 l 1
EndSplineSet
EndChar
StartChar: germandbls
Encoding: 223 223
Width: 611
Flags: W
HStem: -22.8199 119.628<319 349> 0 21G<67 207> 348.928 95.0723<379.031 396.196> 617 111.015<423 435>
VStem: 486.367 143.274<251 277> 510.993 143.007<552 582>
DStem: 186 558 321 537 67 0 207 0
Fore
359 349 m 1
 379 444 l 1
 420 444 449 453 471 471 c 0
 495 490 511 522 511 552 c 0
 511 593 477 617 422 617 c 0
 367 617 332 590 321 537 c 1
 207 0 l 1
 67 0 l 1
 186 558 l 2
 208 662 312 729 452 729 c 0
 574 729 654 670 654 582 c 0
 654 504 606 437 532 411 c 1
 594 397 630 348 630 277 c 0
 630 223 607 153 574 103 c 0
 519 22 439 -23 349 -23 c 0
 329 -23 313 -21 281 -16 c 1
 305 96 l 1
 319 96 l 2
 374 97 402 106 433 133 c 0
 467 163 487 207 487 251 c 0
 487 316 449 349 374 349 c 2
 359 349 l 1
EndSplineSet
EndChar
StartChar: agrave
Encoding: 224 224
Width: 556
Flags: W
HStem: -22.9977 111.998<199 266> 0 21G<370 523> 437 112<354 385> 607 150<404 422>
VStem: 50.0031 142.997<108 139> 435.992 142.008<394 428>
DStem: 408 255 572 383 400 217 509 83
Fore
527 17 m 1
 523 0 l 1
 370 0 l 1
 365 11 363 17 363 27 c 0
 363 34 363 39 366 54 c 1
 306 0 257 -23 199 -23 c 0
 156 -23 122 -13 97 8 c 0
 68 32 50 70 50 108 c 0
 50 168 83 229 136 267 c 0
 167 289 204 303 252 311 c 2
 310 320 l 2
 382 330 382 330 402 341 c 0
 422 351 436 373 436 394 c 0
 436 424 414 437 363 437 c 0
 299 437 268 417 251 362 c 1
 120 362 l 1
 148 492 229 549 386 549 c 0
 456 549 505 537 537 511 c 0
 560 492 578 457 578 428 c 0
 578 416 576 401 572 383 c 2
 509 83 l 1
 507 75 506 68 506 62 c 0
 506 47 512 34 527 17 c 1
400 217 m 1
 408 255 l 1
 396 248 393 247 382 245 c 0
 378 244 371 243 361 241 c 2
 345 238 l 1
 295 230 l 2
 230 219 193 186 193 139 c 0
 193 106 218 89 266 89 c 0
 334 89 382 135 400 217 c 1
303 757 m 1
 422 757 l 1
 467 607 l 1
 404 607 l 1
 303 757 l 1
EndSplineSet
EndChar
StartChar: aacute
Encoding: 225 225
Width: 556
Flags: W
HStem: -22.9977 111.998<199 266> 0 21G<370 523> 437 112<354 385>
VStem: 50.0031 142.997<108 139> 435.992 142.008<394 428>
DStem: 408 255 572 383 400 217 509 83
Fore
527 17 m 1
 523 0 l 1
 370 0 l 1
 365 11 363 17 363 27 c 0
 363 34 363 39 366 54 c 1
 306 0 257 -23 199 -23 c 0
 156 -23 122 -13 97 8 c 0
 68 32 50 70 50 108 c 0
 50 168 83 229 136 267 c 0
 167 289 204 303 252 311 c 2
 310 320 l 2
 382 330 382 330 402 341 c 0
 422 351 436 373 436 394 c 0
 436 424 414 437 363 437 c 0
 299 437 268 417 251 362 c 1
 120 362 l 1
 148 492 229 549 386 549 c 0
 456 549 505 537 537 511 c 0
 560 492 578 457 578 428 c 0
 578 416 576 401 572 383 c 2
 509 83 l 1
 507 75 506 68 506 62 c 0
 506 47 512 34 527 17 c 1
400 217 m 1
 408 255 l 1
 396 248 393 247 382 245 c 0
 378 244 371 243 361 241 c 2
 345 238 l 1
 295 230 l 2
 230 219 193 186 193 139 c 0
 193 106 218 89 266 89 c 0
 334 89 382 135 400 217 c 1
587 757 m 1
 429 607 l 1
 359 607 l 1
 461 757 l 1
 587 757 l 1
EndSplineSet
EndChar
StartChar: acircumflex
Encoding: 226 226
Width: 556
Flags: W
HStem: -22.9977 111.998<199 266> 0 21G<370 523> 437 112<354 385> 610 147<487 494>
VStem: 50.0031 142.997<108 139> 435.992 142.008<394 428>
DStem: 408 255 572 383 400 217 509 83
Fore
527 17 m 1
 523 0 l 1
 370 0 l 1
 365 11 363 17 363 27 c 0
 363 34 363 39 366 54 c 1
 306 0 257 -23 199 -23 c 0
 156 -23 122 -13 97 8 c 0
 68 32 50 70 50 108 c 0
 50 168 83 229 136 267 c 0
 167 289 204 303 252 311 c 2
 310 320 l 2
 382 330 382 330 402 341 c 0
 422 351 436 373 436 394 c 0
 436 424 414 437 363 437 c 0
 299 437 268 417 251 362 c 1
 120 362 l 1
 148 492 229 549 386 549 c 0
 456 549 505 537 537 511 c 0
 560 492 578 457 578 428 c 0
 578 416 576 401 572 383 c 2
 509 83 l 1
 507 75 506 68 506 62 c 0
 506 47 512 34 527 17 c 1
400 217 m 1
 408 255 l 1
 396 248 393 247 382 245 c 0
 378 244 371 243 361 241 c 2
 345 238 l 1
 295 230 l 2
 230 219 193 186 193 139 c 0
 193 106 218 89 266 89 c 0
 334 89 382 135 400 217 c 1
386 757 m 1
 494 757 l 1
 565 610 l 1
 487 610 l 1
 426 707 l 1
 323 610 l 1
 247 610 l 1
 386 757 l 1
EndSplineSet
EndChar
StartChar: atilde
Encoding: 227 227
Width: 556
Flags: W
HStem: -22.9977 111.998<199 266> 0 21G<370 523> 437 112<352 385> 622.005 70.9951<479 504> 672 68.0328<334 350>
VStem: 50.0031 142.997<108 139> 435.992 142.008<394 428>
DStem: 408 255 572 383 400 217 509 83
Fore
527 17 m 1
 523 0 l 1
 370 0 l 1
 365 11 363 17 363 27 c 0
 363 34 363 39 366 54 c 1
 306 0 257 -23 199 -23 c 0
 156 -23 122 -13 97 8 c 0
 68 32 50 70 50 108 c 0
 50 168 83 229 136 267 c 0
 167 289 204 303 252 311 c 2
 310 320 l 2
 382 330 382 330 402 341 c 0
 422 351 436 373 436 394 c 0
 436 424 414 437 363 437 c 0
 299 437 268 417 251 362 c 1
 120 362 l 1
 148 492 229 549 386 549 c 0
 456 549 505 537 537 511 c 0
 560 492 578 457 578 428 c 0
 578 416 576 401 572 383 c 2
 509 83 l 1
 507 75 506 68 506 62 c 0
 506 47 512 34 527 17 c 1
400 217 m 1
 408 255 l 1
 396 248 393 247 382 245 c 0
 378 244 371 243 361 241 c 2
 345 238 l 1
 295 230 l 2
 230 219 193 186 193 139 c 0
 193 106 218 89 266 89 c 0
 334 89 382 135 400 217 c 1
558 744 m 1
 612 744 l 1
 601 705 590 683 571 663 c 0
 546 637 511 622 479 622 c 0
 462 622 441 627 428 633 c 2
 378 658 l 2
 363 665 342 672 334 672 c 0
 316 672 300 657 283 624 c 1
 229 624 l 1
 252 699 296 741 350 741 c 0
 375 741 389 738 421 724 c 2
 471 703 l 2
 490 694 492 693 504 693 c 0
 527 693 544 710 558 744 c 1
EndSplineSet
EndChar
StartChar: adieresis
Encoding: 228 228
Width: 556
Flags: W
HStem: -22.9977 111.998<199 266> 0 21G<370 523> 437 112<354 385> 621 120<285 369 471 555>
VStem: 50.0031 142.997<108 139> 435.992 142.008<394 428>
DStem: 285 741 395 741 259 621 369 621 408 255 572 383 400 217 509 83 471 741 581 741 445 621 555 621
Fore
527 17 m 1
 523 0 l 1
 370 0 l 1
 365 11 363 17 363 27 c 0
 363 34 363 39 366 54 c 1
 306 0 257 -23 199 -23 c 0
 156 -23 122 -13 97 8 c 0
 68 32 50 70 50 108 c 0
 50 168 83 229 136 267 c 0
 167 289 204 303 252 311 c 2
 310 320 l 2
 382 330 382 330 402 341 c 0
 422 351 436 373 436 394 c 0
 436 424 414 437 363 437 c 0
 299 437 268 417 251 362 c 1
 120 362 l 1
 148 492 229 549 386 549 c 0
 456 549 505 537 537 511 c 0
 560 492 578 457 578 428 c 0
 578 416 576 401 572 383 c 2
 509 83 l 1
 507 75 506 68 506 62 c 0
 506 47 512 34 527 17 c 1
400 217 m 1
 408 255 l 1
 396 248 393 247 382 245 c 0
 378 244 371 243 361 241 c 2
 345 238 l 1
 295 230 l 2
 230 219 193 186 193 139 c 0
 193 106 218 89 266 89 c 0
 334 89 382 135 400 217 c 1
395 741 m 1
 369 621 l 1
 259 621 l 1
 285 741 l 1
 395 741 l 1
581 741 m 1
 555 621 l 1
 445 621 l 1
 471 741 l 1
 581 741 l 1
EndSplineSet
EndChar
StartChar: aring
Encoding: 229 229
Width: 556
Flags: W
HStem: -22.9977 111.998<199 266> 0 21G<370 523> 437 112<354 385> 593.046 49.9538<404 414> 723 49.3817<430 438>
VStem: 50.0031 142.997<108 139> 329.551 48.4494<674 677> 435.992 142.008<394 428> 464 48.3339<691 697>
DStem: 408 255 572 383 400 217 509 83
Fore
527 17 m 1
 523 0 l 1
 370 0 l 1
 365 11 363 17 363 27 c 0
 363 34 363 39 366 54 c 1
 306 0 257 -23 199 -23 c 0
 156 -23 122 -13 97 8 c 0
 68 32 50 70 50 108 c 0
 50 168 83 229 136 267 c 0
 167 289 204 303 252 311 c 2
 310 320 l 2
 382 330 382 330 402 341 c 0
 422 351 436 373 436 394 c 0
 436 424 414 437 363 437 c 0
 299 437 268 417 251 362 c 1
 120 362 l 1
 148 492 229 549 386 549 c 0
 456 549 505 537 537 511 c 0
 560 492 578 457 578 428 c 0
 578 416 576 401 572 383 c 2
 509 83 l 1
 507 75 506 68 506 62 c 0
 506 47 512 34 527 17 c 1
400 217 m 1
 408 255 l 1
 396 248 393 247 382 245 c 0
 378 244 371 243 361 241 c 2
 345 238 l 1
 295 230 l 2
 230 219 193 186 193 139 c 0
 193 106 218 89 266 89 c 0
 334 89 382 135 400 217 c 1
441 773 m 0
 483 773 513 743 513 702 c 0
 513 645 459 593 401 593 c 0
 359 593 329 623 329 664 c 0
 329 721 383 773 441 773 c 0
431 723 m 0
 404 723 378 700 378 675 c 0
 378 657 392 643 412 643 c 0
 439 643 464 667 464 692 c 0
 464 710 450 723 431 723 c 0
EndSplineSet
EndChar
StartChar: ae
Encoding: 230 230
Width: 889
Flags: W
HStem: -22.999 111.999<209 268 606 636> 226 93<569 783> 437 111.291<364 388 694 710>
VStem: 54.0028 142.997<106 139> 784 143<329 363>
Fore
750 152 m 1
 888 152 l 1
 835 45 726 -23 606 -23 c 0
 518 -23 453 13 425 77 c 1
 355 2 301 -23 209 -23 c 0
 112 -23 54 25 54 106 c 0
 54 168 86 228 139 266 c 0
 171 289 208 303 256 311 c 2
 313 320 l 2
 385 330 385 330 406 341 c 0
 426 351 440 373 440 394 c 0
 440 424 418 437 367 437 c 0
 303 437 272 417 255 362 c 1
 124 362 l 1
 137 425 154 459 187 488 c 0
 232 528 302 549 392 549 c 0
 469 549 521 533 553 500 c 1
 599 531 659 549 718 549 c 0
 789 549 845 525 881 480 c 0
 910 445 927 397 927 351 c 0
 927 313 921 271 909 226 c 1
 547 226 l 1
 541 200 540 189 540 175 c 0
 540 124 579 89 636 89 c 0
 685 89 730 114 750 152 c 1
404 216 m 1
 412 254 l 1
 400 248 397 247 386 244 c 0
 382 244 375 242 365 241 c 2
 349 238 l 1
 299 230 l 2
 234 219 197 186 197 139 c 0
 197 106 222 89 268 89 c 0
 338 89 386 134 404 216 c 1
784 319 m 1
 784 346 l 2
 784 404 753 437 699 437 c 0
 635 437 589 396 568 319 c 1
 784 319 l 1
EndSplineSet
EndChar
StartChar: ccedilla
Encoding: 231 231
Width: 556
Flags: W
HStem: -220 50<205 221> 437 111.012<370 381>
VStem: 77 143<172 196> 282 86.0323<-127 -124>
DStem: 241 -19 288 -23 184 -106 262 -62
Fore
288 -23 m 1
 262 -62 l 1
 277 -58 289 -56 305 -56 c 0
 345 -56 369 -77 369 -113 c 0
 369 -178 309 -220 218 -220 c 0
 174 -220 141 -213 85 -191 c 1
 115 -139 l 1
 162 -163 186 -170 214 -170 c 0
 252 -170 282 -150 282 -126 c 0
 282 -106 264 -93 238 -93 c 0
 221 -93 209 -96 184 -106 c 1
 241 -19 l 1
 205 -12 187 -6 168 4 c 0
 113 34 77 101 77 173 c 0
 77 267 119 384 177 454 c 0
 230 517 304 549 398 549 c 0
 465 549 511 532 549 494 c 0
 580 463 597 423 597 381 c 0
 597 371 596 362 593 338 c 1
 459 338 l 1
 458 377 456 389 448 404 c 0
 435 425 410 437 377 437 c 0
 322 437 285 411 257 352 c 0
 233 304 220 245 220 192 c 0
 220 123 249 89 309 89 c 0
 363 89 396 116 427 187 c 1
 561 187 l 1
 539 117 506 68 456 30 c 0
 411 -4 338 -27 289 -23 c 2
 288 -23 l 1
EndSplineSet
EndChar
StartChar: egrave
Encoding: 232 232
Width: 556
Flags: W
HStem: -22.7516 112.529<275 302> 226 93<229 447> 437 111.457<361 368> 607 150<398 416>
VStem: 64 143<169 201> 448 143<329 361>
Fore
573 226 m 1
 210 226 l 1
 207 198 207 190 207 181 c 0
 207 126 245 89 302 89 c 0
 350 89 394 114 414 152 c 1
 552 152 l 1
 497 41 396 -23 275 -23 c 0
 150 -23 64 61 64 185 c 0
 64 285 110 402 174 469 c 0
 221 518 301 549 379 549 c 0
 452 549 510 525 546 480 c 0
 574 444 591 397 591 351 c 0
 591 313 585 271 573 226 c 1
448 319 m 1
 448 334 l 2
 448 366 446 377 439 392 c 0
 426 420 397 437 362 437 c 0
 322 437 282 418 258 386 c 0
 245 369 237 351 228 319 c 1
 448 319 l 1
297 757 m 1
 416 757 l 1
 461 607 l 1
 398 607 l 1
 297 757 l 1
EndSplineSet
EndChar
StartChar: eacute
Encoding: 233 233
Width: 556
Flags: W
HStem: -22.7516 112.529<275 302> 226 93<229 447> 437 111.457<361 368>
VStem: 64 143<169 201> 448 143<329 361>
Fore
573 226 m 1
 210 226 l 1
 207 198 207 190 207 181 c 0
 207 126 245 89 302 89 c 0
 350 89 394 114 414 152 c 1
 552 152 l 1
 497 41 396 -23 275 -23 c 0
 150 -23 64 61 64 185 c 0
 64 285 110 402 174 469 c 0
 221 518 301 549 379 549 c 0
 452 549 510 525 546 480 c 0
 574 444 591 397 591 351 c 0
 591 313 585 271 573 226 c 1
448 319 m 1
 448 334 l 2
 448 366 446 377 439 392 c 0
 426 420 397 437 362 437 c 0
 322 437 282 418 258 386 c 0
 245 369 237 351 228 319 c 1
 448 319 l 1
562 757 m 1
 404 607 l 1
 334 607 l 1
 436 757 l 1
 562 757 l 1
EndSplineSet
EndChar
StartChar: ecircumflex
Encoding: 234 234
Width: 556
Flags: W
HStem: -22.7516 112.529<275 302> 226 93<229 447> 437 111.457<361 376> 610 147<478 485>
VStem: 64 143<169 201> 448 143<329 361>
Fore
573 226 m 1
 210 226 l 1
 207 198 207 190 207 181 c 0
 207 126 245 89 302 89 c 0
 350 89 394 114 414 152 c 1
 552 152 l 1
 497 41 396 -23 275 -23 c 0
 150 -23 64 61 64 185 c 0
 64 285 110 402 174 469 c 0
 221 518 301 549 379 549 c 0
 452 549 510 525 546 480 c 0
 574 444 591 397 591 351 c 0
 591 313 585 271 573 226 c 1
448 319 m 1
 448 334 l 2
 448 366 446 377 439 392 c 0
 426 420 397 437 362 437 c 0
 322 437 282 418 258 386 c 0
 245 369 237 351 228 319 c 1
 448 319 l 1
377 757 m 1
 485 757 l 1
 556 610 l 1
 478 610 l 1
 417 707 l 1
 314 610 l 1
 238 610 l 1
 377 757 l 1
EndSplineSet
EndChar
StartChar: edieresis
Encoding: 235 235
Width: 556
Flags: W
HStem: -22.7516 112.529<275 302> 226 93<229 447> 437 111.457<361 368> 621 120<282 366 468 552>
VStem: 64 143<169 201> 448 143<329 361>
DStem: 282 741 392 741 256 621 366 621 468 741 578 741 442 621 552 621
Fore
573 226 m 1
 210 226 l 1
 207 198 207 190 207 181 c 0
 207 126 245 89 302 89 c 0
 350 89 394 114 414 152 c 1
 552 152 l 1
 497 41 396 -23 275 -23 c 0
 150 -23 64 61 64 185 c 0
 64 285 110 402 174 469 c 0
 221 518 301 549 379 549 c 0
 452 549 510 525 546 480 c 0
 574 444 591 397 591 351 c 0
 591 313 585 271 573 226 c 1
448 319 m 1
 448 334 l 2
 448 366 446 377 439 392 c 0
 426 420 397 437 362 437 c 0
 322 437 282 418 258 386 c 0
 245 369 237 351 228 319 c 1
 448 319 l 1
392 741 m 1
 366 621 l 1
 256 621 l 1
 282 741 l 1
 392 741 l 1
578 741 m 1
 552 621 l 1
 442 621 l 1
 468 741 l 1
 578 741 l 1
EndSplineSet
EndChar
StartChar: igrave
Encoding: 236 236
Width: 278
Flags: W
HStem: 0 21G<67 207> 520 20G<182 322> 607 150<248 266>
DStem: 182 540 322 540 67 0 207 0
Fore
322 540 m 1
 207 0 l 1
 67 0 l 1
 182 540 l 1
 322 540 l 1
147 757 m 1
 266 757 l 1
 311 607 l 1
 248 607 l 1
 147 757 l 1
EndSplineSet
EndChar
StartChar: iacute
Encoding: 237 237
Width: 278
Flags: W
HStem: 0 21G<67 207> 520 20G<182 322>
DStem: 182 540 322 540 67 0 207 0
Fore
322 540 m 1
 207 0 l 1
 67 0 l 1
 182 540 l 1
 322 540 l 1
448 757 m 1
 290 607 l 1
 220 607 l 1
 322 757 l 1
 448 757 l 1
EndSplineSet
EndChar
StartChar: icircumflex
Encoding: 238 238
Width: 278
Flags: W
HStem: 0 21G<67 207> 520 20G<182 322> 610 147<348 355>
DStem: 182 540 322 540 67 0 207 0
Fore
322 540 m 1
 207 0 l 1
 67 0 l 1
 182 540 l 1
 322 540 l 1
247 757 m 1
 355 757 l 1
 426 610 l 1
 348 610 l 1
 287 707 l 1
 184 610 l 1
 108 610 l 1
 247 757 l 1
EndSplineSet
EndChar
StartChar: idieresis
Encoding: 239 239
Width: 278
Flags: W
HStem: 0 21G<67 207> 520 20G<182 322> 621 120<146 230 332 416>
DStem: 146 741 256 741 120 621 230 621 182 540 322 540 67 0 207 0 332 741 442 741 306 621 416 621
Fore
322 540 m 1
 207 0 l 1
 67 0 l 1
 182 540 l 1
 322 540 l 1
256 741 m 1
 230 621 l 1
 120 621 l 1
 146 741 l 1
 256 741 l 1
442 741 m 1
 416 621 l 1
 306 621 l 1
 332 741 l 1
 442 741 l 1
EndSplineSet
EndChar
StartChar: eth
Encoding: 240 240
Width: 611
Flags: W
HStem: -22.5827 111.583<323 328> 430.054 99.7686<362 387>
VStem: 83.0642 143.936<178 206> 491 142<325 346>
DStem: 305 648 355 609 217 607 258 564 504 738 547 695 400 693 454 654
Fore
355 609 m 1
 258 564 l 1
 217 607 l 1
 305 648 l 1
 279 666 273 670 235 694 c 1
 305 744 l 1
 339 729 341 728 387 701 c 0
 389 699 394 697 400 693 c 1
 504 738 l 1
 547 695 l 1
 454 654 l 1
 584 558 633 473 633 345 c 0
 633 254 605 166 553 97 c 0
 495 18 409 -23 305 -23 c 0
 166 -23 83 52 83 178 c 0
 83 276 121 382 180 449 c 0
 225 500 292 530 362 530 c 0
 394 530 414 524 452 503 c 1
 428 544 393 582 355 609 c 1
387 431 m 0
 336 431 293 403 264 351 c 0
 240 309 227 256 227 206 c 0
 227 161 237 132 259 113 c 0
 278 98 302 89 326 89 c 0
 420 89 491 190 491 326 c 0
 491 366 481 390 458 408 c 0
 438 422 411 431 387 431 c 0
EndSplineSet
EndChar
StartChar: ntilde
Encoding: 241 241
Width: 611
Flags: W
HStem: 0 21G<63 203 406 546> 520 20G<178 318> 622.925 70.9294<513 538> 672 68.0328<368 384>
VStem: 478.996 150.004<362 417>
DStem: 178 540 318 540 63 0 300 458 178 540 268 304 63 0 203 0 473 313 623 362 406 0 546 0
Fore
178 540 m 1
 318 540 l 1
 300 458 l 1
 354 522 408 549 482 549 c 0
 571 549 629 497 629 417 c 0
 629 399 627 381 623 362 c 2
 546 0 l 1
 406 0 l 1
 473 313 l 1
 477 335 479 349 479 362 c 0
 479 410 453 437 405 437 c 0
 338 437 285 386 268 304 c 1
 203 0 l 1
 63 0 l 1
 178 540 l 1
592 744 m 1
 646 744 l 1
 635 705 624 683 605 663 c 0
 580 637 545 622 513 622 c 0
 496 622 475 627 462 633 c 2
 412 658 l 2
 397 665 376 672 368 672 c 0
 350 672 334 657 317 624 c 1
 263 624 l 1
 286 699 330 741 384 741 c 0
 409 741 423 738 455 724 c 2
 505 703 l 2
 524 694 526 693 538 693 c 0
 561 693 578 710 592 744 c 1
EndSplineSet
EndChar
StartChar: ograve
Encoding: 242 242
Width: 611
Flags: W
HStem: -22.348 111.348<322 327> 437 111.258<390 402> 607 150<428 446>
VStem: 82.773 142.227<177 205> 490.786 142.658<320 349>
Fore
413 549 m 0
 550 549 634 473 634 349 c 0
 634 263 602 163 555 100 c 0
 494 19 407 -23 299 -23 c 0
 167 -23 82 55 82 177 c 0
 82 263 113 363 161 426 c 0
 220 505 310 549 413 549 c 0
391 437 m 0
 301 437 225 332 225 205 c 0
 225 134 264 89 324 89 c 0
 376 89 422 120 453 176 c 0
 477 218 491 271 491 320 c 0
 491 391 452 437 391 437 c 0
327 757 m 1
 446 757 l 1
 491 607 l 1
 428 607 l 1
 327 757 l 1
EndSplineSet
EndChar
StartChar: oacute
Encoding: 243 243
Width: 611
Flags: W
HStem: -22.348 111.348<322 326> 437 111.258<390 402>
VStem: 82.773 142.227<177 205> 490.786 142.658<320 349>
Fore
413 549 m 0
 550 549 634 473 634 349 c 0
 634 263 602 163 555 100 c 0
 494 19 407 -23 299 -23 c 0
 167 -23 82 55 82 177 c 0
 82 263 113 363 161 426 c 0
 220 505 310 549 413 549 c 0
391 437 m 0
 301 437 225 332 225 205 c 0
 225 134 264 89 324 89 c 0
 376 89 422 120 453 176 c 0
 477 218 491 271 491 320 c 0
 491 391 452 437 391 437 c 0
599 757 m 1
 441 607 l 1
 371 607 l 1
 473 757 l 1
 599 757 l 1
EndSplineSet
EndChar
StartChar: ocircumflex
Encoding: 244 244
Width: 611
Flags: W
HStem: -22.348 111.348<322 326> 437 111.258<390 402> 610 147<516 523>
VStem: 82.773 142.227<177 205> 490.786 142.658<320 349>
Fore
413 549 m 0
 550 549 634 473 634 349 c 0
 634 263 602 163 555 100 c 0
 494 19 407 -23 299 -23 c 0
 167 -23 82 55 82 177 c 0
 82 263 113 363 161 426 c 0
 220 505 310 549 413 549 c 0
391 437 m 0
 301 437 225 332 225 205 c 0
 225 134 264 89 324 89 c 0
 376 89 422 120 453 176 c 0
 477 218 491 271 491 320 c 0
 491 391 452 437 391 437 c 0
415 757 m 1
 523 757 l 1
 594 610 l 1
 516 610 l 1
 455 707 l 1
 352 610 l 1
 276 610 l 1
 415 757 l 1
EndSplineSet
EndChar
StartChar: otilde
Encoding: 245 245
Width: 611
Flags: W
HStem: -22.348 111.348<322 326> 437 111.05<387 402> 671.968 70.0318<345 377>
VStem: 82.773 142.227<177 205> 490.786 142.658<320 349>
Fore
413 549 m 0
 550 549 634 473 634 349 c 0
 634 263 602 163 555 100 c 0
 494 19 407 -23 299 -23 c 0
 167 -23 82 55 82 177 c 0
 82 263 113 363 161 426 c 0
 220 505 310 549 413 549 c 0
391 437 m 0
 301 437 225 332 225 205 c 0
 225 135 264 89 324 89 c 0
 376 89 422 120 453 176 c 0
 477 218 491 271 491 320 c 0
 491 391 452 437 391 437 c 0
585 744 m 1
 639 744 l 1
 602 667 544 622 480 622 c 0
 463 622 443 627 432 633 c 2
 387 658 l 2
 374 665 353 672 345 672 c 0
 327 672 308 657 285 624 c 1
 231 624 l 1
 270 700 322 742 377 742 c 0
 402 742 411 739 444 724 c 2
 489 703 l 2
 506 694 509 693 520 693 c 0
 543 693 564 710 585 744 c 1
EndSplineSet
EndChar
StartChar: odieresis
Encoding: 246 246
Width: 611
Flags: W
HStem: -22.8529 111.853<310 326> 437 111.258<390 402> 621 120<311 395 497 581>
VStem: 82.773 142.227<177 205> 490.786 142.658<320 349>
DStem: 311 741 421 741 285 621 395 621 497 741 607 741 471 621 581 621
Fore
413 549 m 0
 550 549 634 473 634 349 c 0
 634 263 602 163 555 100 c 0
 494 19 407 -23 299 -23 c 0
 167 -23 82 55 82 177 c 0
 82 263 113 363 161 426 c 0
 220 505 310 549 413 549 c 0
391 437 m 0
 301 437 225 332 225 205 c 0
 225 134 264 89 324 89 c 0
 376 89 422 120 453 176 c 0
 477 218 491 271 491 320 c 0
 491 391 452 437 391 437 c 0
421 741 m 1
 395 621 l 1
 285 621 l 1
 311 741 l 1
 421 741 l 1
607 741 m 1
 581 621 l 1
 471 621 l 1
 497 741 l 1
 607 741 l 1
EndSplineSet
EndChar
StartChar: divide
Encoding: 247 247
Width: 584
Flags: W
HStem: 0 124<292 318> 172 120<102 581> 338.007 123.993<363 390>
VStem: 242.008 125.992<49 73> 314.009 125.991<387 411>
Fore
606 292 m 1
 581 172 l 1
 77 172 l 1
 102 292 l 1
 606 292 l 1
318 124 m 0
 347 124 368 103 368 73 c 0
 368 36 331 0 292 0 c 0
 263 0 242 21 242 49 c 0
 242 88 279 124 318 124 c 0
390 462 m 0
 419 462 440 441 440 411 c 0
 440 374 403 338 363 338 c 0
 335 338 314 359 314 387 c 0
 314 425 351 462 390 462 c 0
EndSplineSet
MinimumDistance: x9,-1 
EndChar
StartChar: oslash
Encoding: 248 248
Width: 611
Flags: W
HStem: -22.7956 111.796<316 330> 437 111.258<394 397>
VStem: 84.0525 143.947<184 204> 494 141.094<320 335>
DStem: 105 80 135 36 12 2 46 -38 478 392 493 336 228 183 246 129 675 557 709 516 590 486 618 440
Fore
135 36 m 1
 46 -38 l 1
 12 2 l 1
 105 80 l 1
 91 110 84 143 84 178 c 0
 84 263 116 363 164 426 c 0
 224 505 314 549 417 549 c 0
 490 549 551 527 590 486 c 1
 675 557 l 1
 709 516 l 1
 618 440 l 1
 630 411 636 379 636 344 c 0
 636 263 603 161 556 100 c 0
 496 21 406 -23 304 -23 c 0
 233 -23 175 -2 135 36 c 1
493 336 m 1
 246 129 l 1
 263 104 294 89 328 89 c 0
 387 89 439 131 469 203 c 0
 485 239 494 283 494 321 c 0
 494 324 494 329 493 336 c 1
228 183 m 1
 478 392 l 1
 460 421 430 437 395 437 c 0
 342 437 296 406 265 350 c 0
 242 309 227 253 227 208 c 0
 227 199 227 194 228 183 c 1
EndSplineSet
EndChar
StartChar: ugrave
Encoding: 249 249
Width: 611
Flags: W
HStem: 0 21G<401 541> 520 20G<174 314 516 656> 607 150<426 444>
VStem: 88.0021 149.998<109 164>
DStem: 174 540 314 540 94 164 244 213 416 68 656 540 401 0 541 0 516 540 656 540 448 222 541 0
Fore
541 0 m 1
 401 0 l 1
 416 68 l 1
 362 4 308 -23 234 -23 c 0
 146 -23 88 29 88 109 c 0
 88 127 90 145 94 164 c 2
 174 540 l 1
 314 540 l 1
 244 213 l 1
 240 190 238 178 238 164 c 0
 238 115 264 89 314 89 c 0
 379 89 431 141 448 222 c 1
 516 540 l 1
 656 540 l 1
 541 0 l 1
325 757 m 1
 444 757 l 1
 489 607 l 1
 426 607 l 1
 325 757 l 1
EndSplineSet
EndChar
StartChar: uacute
Encoding: 250 250
Width: 611
Flags: W
HStem: 0 21G<401 541> 520 20G<174 314 516 656>
VStem: 88.0021 149.998<109 164>
DStem: 174 540 314 540 94 164 244 213 416 68 656 540 401 0 541 0 516 540 656 540 448 222 541 0
Fore
541 0 m 1
 401 0 l 1
 416 68 l 1
 362 4 308 -23 234 -23 c 0
 146 -23 88 29 88 109 c 0
 88 127 90 145 94 164 c 2
 174 540 l 1
 314 540 l 1
 244 213 l 1
 240 190 238 178 238 164 c 0
 238 115 264 89 314 89 c 0
 379 89 431 141 448 222 c 1
 516 540 l 1
 656 540 l 1
 541 0 l 1
587 757 m 1
 429 607 l 1
 359 607 l 1
 461 757 l 1
 587 757 l 1
EndSplineSet
EndChar
StartChar: ucircumflex
Encoding: 251 251
Width: 611
Flags: W
HStem: 0 21G<401 541> 520 20G<174 314 516 656> 610 147<506 513>
VStem: 88.0021 149.998<109 164>
DStem: 174 540 314 540 94 164 244 213 416 68 656 540 401 0 541 0 516 540 656 540 448 222 541 0
Fore
541 0 m 1
 401 0 l 1
 416 68 l 1
 362 4 308 -23 234 -23 c 0
 146 -23 88 29 88 109 c 0
 88 127 90 145 94 164 c 2
 174 540 l 1
 314 540 l 1
 244 213 l 1
 240 190 238 178 238 164 c 0
 238 115 264 89 314 89 c 0
 379 89 431 141 448 222 c 1
 516 540 l 1
 656 540 l 1
 541 0 l 1
405 757 m 1
 513 757 l 1
 584 610 l 1
 506 610 l 1
 445 707 l 1
 342 610 l 1
 266 610 l 1
 405 757 l 1
EndSplineSet
EndChar
StartChar: udieresis
Encoding: 252 252
Width: 611
Flags: W
HStem: 0 21G<401 541> 520 20G<174 314 516 656> 621 120<310 394 496 580>
VStem: 88.0021 149.998<109 164>
DStem: 174 540 314 540 94 164 244 213 310 741 420 741 284 621 394 621 416 68 656 540 401 0 541 0 496 741 606 741 470 621 580 621 516 540 656 540 448 222 541 0
Fore
541 0 m 1
 401 0 l 1
 416 68 l 1
 362 4 308 -23 234 -23 c 0
 146 -23 88 29 88 109 c 0
 88 127 90 145 94 164 c 2
 174 540 l 1
 314 540 l 1
 244 213 l 1
 240 190 238 178 238 164 c 0
 238 115 264 89 314 89 c 0
 379 89 431 141 448 222 c 1
 516 540 l 1
 656 540 l 1
 541 0 l 1
420 741 m 1
 394 621 l 1
 284 621 l 1
 310 741 l 1
 420 741 l 1
606 741 m 1
 580 621 l 1
 470 621 l 1
 496 741 l 1
 606 741 l 1
EndSplineSet
EndChar
StartChar: yacute
Encoding: 253 253
Width: 556
Flags: W
HStem: -219 111<69 101> 520 20G<124 278 509 653>
Fore
509 540 m 1
 653 540 l 1
 295 -98 l 2
 259 -163 237 -185 194 -202 c 0
 164 -213 125 -219 81 -219 c 0
 60 -219 50 -218 37 -215 c 1
 60 -106 l 1
 71 -108 76 -108 88 -108 c 0
 157 -108 201 -72 201 -15 c 1
 200 0 l 1
 124 540 l 1
 278 540 l 1
 314 147 l 1
 509 540 l 1
566 757 m 1
 408 607 l 1
 338 607 l 1
 440 757 l 1
 566 757 l 1
EndSplineSet
EndChar
StartChar: thorn
Encoding: 254 254
Width: 611
Flags: W
HStem: -218 21G<11 151> -23 112<331 347> 436.995 112.005<406 464> 709 20G<212 352>
VStem: 494 143<322 342>
DStem: 212 729 352 729 11 -218 295 460 212 729 211 64 11 -218 151 -218
Fore
352 729 m 1
 295 460 l 1
 341 519 397 549 464 549 c 0
 569 549 637 468 637 343 c 0
 637 142 505 -23 344 -23 c 0
 274 -23 232 5 211 64 c 1
 151 -218 l 1
 11 -218 l 1
 212 729 l 1
 352 729 l 1
406 437 m 0
 320 437 246 327 246 202 c 0
 246 134 281 89 334 89 c 0
 420 89 494 197 494 323 c 0
 494 392 459 437 406 437 c 0
EndSplineSet
EndChar
StartChar: ydieresis
Encoding: 255 255
Width: 556
Flags: W
HStem: -219 111<69 101> 520 20G<124 278 509 653> 621 120<287 371 473 557>
DStem: 287 741 397 741 261 621 371 621 473 741 583 741 447 621 557 621
Fore
509 540 m 1
 653 540 l 1
 295 -98 l 2
 259 -163 237 -185 194 -202 c 0
 164 -213 125 -219 81 -219 c 0
 60 -219 50 -218 37 -215 c 1
 60 -106 l 1
 71 -108 76 -108 88 -108 c 0
 157 -108 201 -72 201 -15 c 1
 200 0 l 1
 124 540 l 1
 278 540 l 1
 314 147 l 1
 509 540 l 1
397 741 m 1
 371 621 l 1
 261 621 l 1
 287 741 l 1
 397 741 l 1
583 741 m 1
 557 621 l 1
 447 621 l 1
 473 741 l 1
 583 741 l 1
EndSplineSet
EndChar
StartChar: Amacron
Encoding: 256 256
Width: 722
Flags: W
HStem: 0 21G<26 179 550 703> 147 125<330 517> 709 20G<433 606> 821 80<406 689>
DStem: 433 729 483 555 26 0 329 272 433 729 260 147 26 0 179 0
Fore
532 147 m 1
 260 147 l 1
 179 0 l 1
 26 0 l 1
 433 729 l 1
 606 729 l 1
 703 0 l 1
 550 0 l 1
 532 147 l 1
518 272 m 1
 483 555 l 1
 329 272 l 1
 518 272 l 1
706 901 m 1
 689 821 l 1
 389 821 l 1
 406 901 l 1
 706 901 l 1
EndSplineSet
MinimumDistance: x9,-1 
EndChar
StartChar: amacron
Encoding: 257 257
Width: 556
Flags: W
HStem: -22.9977 111.998<199 266> 0 21G<370 523> 437 112<354 385> 642 80<279 562>
VStem: 50.0031 142.997<108 139> 435.992 142.008<394 428>
DStem: 408 255 572 383 400 217 509 83
Fore
527 17 m 1
 523 0 l 1
 370 0 l 1
 365 11 363 17 363 27 c 0
 363 34 363 39 366 54 c 1
 306 0 257 -23 199 -23 c 0
 156 -23 122 -13 97 8 c 0
 68 32 50 70 50 108 c 0
 50 168 83 229 136 267 c 0
 167 289 204 303 252 311 c 2
 310 320 l 2
 382 330 382 330 402 341 c 0
 422 351 436 373 436 394 c 0
 436 424 414 437 363 437 c 0
 299 437 268 417 251 362 c 1
 120 362 l 1
 148 492 229 549 386 549 c 0
 456 549 505 537 537 511 c 0
 560 492 578 457 578 428 c 0
 578 416 576 401 572 383 c 2
 509 83 l 1
 507 75 506 68 506 62 c 0
 506 47 512 34 527 17 c 1
400 217 m 1
 408 255 l 1
 396 248 393 247 382 245 c 0
 378 244 371 243 361 241 c 2
 345 238 l 1
 295 230 l 2
 230 219 193 186 193 139 c 0
 193 106 218 89 266 89 c 0
 334 89 382 135 400 217 c 1
579 722 m 1
 562 642 l 1
 262 642 l 1
 279 722 l 1
 579 722 l 1
EndSplineSet
EndChar
StartChar: Abreve
Encoding: 258 258
Width: 722
Flags: W
HStem: 0 21G<26 179 550 703> 147 125<330 517> 709 20G<433 606> 791 78<532 549>
VStem: 426.002 47.9976<895 926>
DStem: 433 729 483 555 26 0 329 272 433 729 260 147 26 0 179 0
Fore
532 147 m 1
 260 147 l 1
 179 0 l 1
 26 0 l 1
 433 729 l 1
 606 729 l 1
 703 0 l 1
 550 0 l 1
 532 147 l 1
518 272 m 1
 483 555 l 1
 329 272 l 1
 518 272 l 1
651 934 m 1
 693 934 l 1
 679 852 611 791 532 791 c 0
 469 791 426 833 426 895 c 0
 426 907 427 916 432 934 c 1
 474 934 l 1
 474 926 l 2
 474 890 501 869 548 869 c 0
 599 869 634 891 651 934 c 1
EndSplineSet
MinimumDistance: x9,-1 
EndChar
StartChar: abreve
Encoding: 259 259
Width: 556
Flags: W
HStem: -22.9977 111.998<199 266> 0 21G<370 523> 437 112<354 385> 611 78<405 422>
VStem: 50.0031 142.997<108 139> 299.002 47.9976<715 746> 435.992 142.008<394 428>
DStem: 408 255 572 383 400 217 509 83
Fore
527 17 m 1
 523 0 l 1
 370 0 l 1
 365 11 363 17 363 27 c 0
 363 34 363 39 366 54 c 1
 306 0 257 -23 199 -23 c 0
 156 -23 122 -13 97 8 c 0
 68 32 50 70 50 108 c 0
 50 168 83 229 136 267 c 0
 167 289 204 303 252 311 c 2
 310 320 l 2
 382 330 382 330 402 341 c 0
 422 351 436 373 436 394 c 0
 436 424 414 437 363 437 c 0
 299 437 268 417 251 362 c 1
 120 362 l 1
 148 492 229 549 386 549 c 0
 456 549 505 537 537 511 c 0
 560 492 578 457 578 428 c 0
 578 416 576 401 572 383 c 2
 509 83 l 1
 507 75 506 68 506 62 c 0
 506 47 512 34 527 17 c 1
400 217 m 1
 408 255 l 1
 396 248 393 247 382 245 c 0
 378 244 371 243 361 241 c 2
 345 238 l 1
 295 230 l 2
 230 219 193 186 193 139 c 0
 193 106 218 89 266 89 c 0
 334 89 382 135 400 217 c 1
524 754 m 1
 566 754 l 1
 552 672 484 611 405 611 c 0
 342 611 299 653 299 715 c 0
 299 727 300 736 305 754 c 1
 347 754 l 1
 347 746 l 2
 347 710 374 689 421 689 c 0
 472 689 507 711 524 754 c 1
EndSplineSet
EndChar
StartChar: Aogonek
Encoding: 260 260
Width: 722
Flags: W
HStem: -232.992 49.9921<608 634> 0 21G<26 179> 147 125<330 517> 709 20G<433 606>
VStem: 469.005 99.9948<-155 -140>
DStem: 433 729 483 555 26 0 329 272 433 729 260 147 26 0 179 0
Fore
532 147 m 1
 260 147 l 1
 179 0 l 1
 26 0 l 1
 433 729 l 1
 606 729 l 1
 703 0 l 1
 625 -32 569 -91 569 -140 c 0
 569 -170 586 -183 624 -183 c 0
 650 -183 672 -180 696 -172 c 1
 685 -224 l 1
 654 -231 633 -233 605 -233 c 0
 518 -233 469 -205 469 -155 c 0
 469 -115 494 -74 537 -43 c 0
 561 -25 581 -15 625 0 c 1
 550 0 l 1
 532 147 l 1
518 272 m 1
 483 555 l 1
 329 272 l 1
 518 272 l 1
EndSplineSet
MinimumDistance: x7,-1 
EndChar
StartChar: aogonek
Encoding: 261 261
Width: 556
Flags: W
HStem: -233 50<429 451> -22.9977 111.998<199 266> 437 112<354 385>
VStem: 50.0031 142.997<108 139> 293.792 98.208<-141 -140> 435.992 142.008<394 428>
DStem: 408 255 572 383 400 217 509 83
Fore
527 17 m 1
 523 0 l 1
 435 -47 392 -93 392 -140 c 0
 392 -169 408 -183 443 -183 c 0
 474 -183 495 -180 519 -172 c 1
 509 -224 l 1
 477 -231 457 -233 428 -233 c 0
 340 -233 293 -206 293 -154 c 0
 293 -92 346 -39 449 0 c 1
 370 0 l 1
 365 11 363 17 363 27 c 0
 363 34 363 39 366 54 c 1
 306 0 257 -23 199 -23 c 0
 156 -23 122 -13 97 8 c 0
 68 32 50 70 50 108 c 0
 50 168 83 229 136 267 c 0
 167 289 204 303 252 311 c 2
 310 320 l 2
 382 330 382 330 402 341 c 0
 422 351 436 373 436 394 c 0
 436 424 414 437 363 437 c 0
 299 437 268 417 251 362 c 1
 120 362 l 1
 148 492 229 549 386 549 c 0
 456 549 505 537 537 511 c 0
 560 492 578 457 578 428 c 0
 578 416 576 401 572 383 c 2
 509 83 l 1
 507 75 506 68 506 62 c 0
 506 47 512 34 527 17 c 1
400 217 m 1
 408 255 l 1
 396 248 393 247 382 245 c 0
 378 244 371 243 361 241 c 2
 345 238 l 1
 295 230 l 2
 230 219 193 186 193 139 c 0
 193 106 218 89 266 89 c 0
 334 89 382 135 400 217 c 1
EndSplineSet
EndChar
StartChar: Cacute
Encoding: 262 262
Width: 722
Flags: W
HStem: -23 128<381 411> 613 128<507 535>
VStem: 107.148 148.852<248 266> 647.999 145.001<482 532>
Fore
789 482 m 1
 648 482 l 1
 648 521 644 540 631 560 c 0
 610 594 569 613 516 613 c 0
 436 613 374 578 327 504 c 0
 282 434 256 346 256 264 c 0
 256 159 306 105 403 105 c 0
 499 105 570 157 599 249 c 1
 742 249 l 1
 698 78 564 -23 382 -23 c 0
 211 -23 107 75 107 235 c 0
 107 364 151 499 222 587 c 0
 303 688 410 741 533 741 c 0
 688 741 793 656 793 532 c 0
 793 521 792 510 789 482 c 1
730 936 m 1
 572 786 l 1
 502 786 l 1
 604 936 l 1
 730 936 l 1
EndSplineSet
EndChar
StartChar: cacute
Encoding: 263 263
Width: 556
Flags: W
HStem: -23 112<293 317> 437 111.396<376 381>
VStem: 77 143<172 194>
Fore
593 338 m 1
 459 338 l 1
 458 377 456 389 448 404 c 0
 435 425 410 437 377 437 c 0
 322 437 285 411 257 352 c 0
 233 304 220 245 220 192 c 0
 220 123 249 89 309 89 c 0
 363 89 396 116 427 187 c 1
 561 187 l 1
 519 53 421 -23 292 -23 c 0
 218 -23 163 -3 127 38 c 0
 95 73 77 122 77 172 c 0
 77 267 119 384 178 454 c 0
 230 517 304 549 398 549 c 0
 465 549 511 532 549 494 c 0
 580 463 597 423 597 381 c 0
 597 371 596 362 593 338 c 1
573 757 m 1
 415 607 l 1
 345 607 l 1
 447 757 l 1
 573 757 l 1
EndSplineSet
MinimumDistance: x5,-1 
EndChar
StartChar: Ccaron
Encoding: 268 268
Width: 722
Flags: W
HStem: -23 128<381 411> 613 128<507 535> 789 147<502 509>
VStem: 107.148 148.852<248 266> 647.999 145.001<482 532>
Fore
789 482 m 1
 648 482 l 1
 648 521 644 540 631 560 c 0
 610 594 569 613 516 613 c 0
 436 613 374 578 327 504 c 0
 282 434 256 346 256 264 c 0
 256 159 306 105 403 105 c 0
 499 105 570 157 599 249 c 1
 742 249 l 1
 698 78 564 -23 382 -23 c 0
 211 -23 107 75 107 235 c 0
 107 364 151 499 222 587 c 0
 303 688 410 741 533 741 c 0
 688 741 793 656 793 532 c 0
 793 521 792 510 789 482 c 1
610 789 m 1
 502 789 l 1
 431 936 l 1
 509 936 l 1
 570 839 l 1
 673 936 l 1
 749 936 l 1
 610 789 l 1
EndSplineSet
EndChar
StartChar: ccaron
Encoding: 269 269
Width: 556
Flags: W
HStem: -23 112<293 317> 437 111.396<376 381> 610 147<360 367>
VStem: 77 143<172 194>
Fore
593 338 m 1
 459 338 l 1
 458 377 456 389 448 404 c 0
 435 425 410 437 377 437 c 0
 322 437 285 411 257 352 c 0
 233 304 220 245 220 192 c 0
 220 123 249 89 309 89 c 0
 363 89 396 116 427 187 c 1
 561 187 l 1
 519 53 421 -23 292 -23 c 0
 218 -23 163 -3 127 38 c 0
 95 73 77 122 77 172 c 0
 77 267 119 384 178 454 c 0
 230 517 304 549 398 549 c 0
 465 549 511 532 549 494 c 0
 580 463 597 423 597 381 c 0
 597 371 596 362 593 338 c 1
468 610 m 1
 360 610 l 1
 289 757 l 1
 367 757 l 1
 428 660 l 1
 531 757 l 1
 607 757 l 1
 468 610 l 1
EndSplineSet
MinimumDistance: x5,-1 
EndChar
StartChar: Dcaron
Encoding: 270 270
Width: 722
Flags: W
HStem: 0 125<255 397> 604 125<355 509> 789 147<439 446>
VStem: 627 149<448 481>
DStem: 232 729 355 604 77 0 254 125
Fore
77 0 m 1
 232 729 l 1
 517 729 l 2
 698 729 776 654 776 479 c 0
 776 361 735 238 664 140 c 0
 591 39 507 0 362 0 c 2
 77 0 l 1
254 125 m 1
 388 125 l 2
 475 125 524 153 567 228 c 0
 601 287 627 390 627 469 c 0
 627 560 582 604 490 604 c 2
 355 604 l 1
 254 125 l 1
547 789 m 1
 439 789 l 1
 368 936 l 1
 446 936 l 1
 507 839 l 1
 610 936 l 1
 686 936 l 1
 547 789 l 1
EndSplineSet
EndChar
StartChar: dcaron
Encoding: 271 271
Width: 722
Flags: W
HStem: -22.9981 111.998<251 309> 0 21G<405 545> 437 112<367 383> 617 112<760 802>
VStem: 79 143<186 208>
DStem: 417 55 700 729 405 0 545 0 560 729 700 729 505 470 545 0 760 729 882 729 736 617 861 633
Fore
405 0 m 1
 417 55 l 1
 371 2 318 -23 251 -23 c 0
 147 -23 79 59 79 185 c 0
 79 267 108 357 157 428 c 0
 209 503 291 549 372 549 c 0
 440 549 482 524 505 470 c 1
 560 729 l 1
 700 729 l 1
 545 0 l 1
 405 0 l 1
380 437 m 0
 297 437 222 327 222 206 c 0
 222 134 256 89 309 89 c 0
 394 89 468 197 468 323 c 0
 468 393 434 437 380 437 c 0
760 729 m 1
 882 729 l 1
 861 633 l 1
 851 555 784 488 708 482 c 1
 718 528 l 1
 762 536 797 572 803 617 c 1
 736 617 l 1
 760 729 l 1
EndSplineSet
EndChar
StartChar: Dcroat
Encoding: 272 272
Width: 722
Flags: W
HStem: 0 125<255 393> 341 80<90 149 317 473> 604 125<355 505>
VStem: 627 149<448 481>
DStem: 90 421 300 341 73 341 254 125 150 341 300 341 77 0 254 125 232 729 355 604 166 421 316 421
Fore
150 341 m 1
 73 341 l 1
 90 421 l 1
 166 421 l 1
 232 729 l 1
 517 729 l 2
 698 729 776 654 776 479 c 0
 776 361 735 238 664 140 c 0
 591 39 507 0 362 0 c 2
 77 0 l 1
 150 341 l 1
300 341 m 1
 254 125 l 1
 388 125 l 2
 475 125 524 153 567 228 c 0
 601 287 627 390 627 469 c 0
 627 560 582 604 490 604 c 2
 355 604 l 1
 316 421 l 1
 490 421 l 1
 473 341 l 1
 300 341 l 1
EndSplineSet
EndChar
StartChar: dcroat
Encoding: 273 273
Width: 611
Flags: W
HStem: -22.9981 111.998<251 309> 0 21G<405 545> 437 112<367 393> 596 67<406 531 687 732> 596 133<672 686>
VStem: 79 143<186 208>
DStem: 406 663 672 596 392 596 545 0 417 55 672 596 405 0 545 0 532 596 672 596 505 470 545 0 560 729 700 729 546 663 686 663
Fore
546 663 m 1
 560 729 l 1
 700 729 l 1
 686 663 l 1
 746 663 l 1
 732 596 l 1
 672 596 l 1
 545 0 l 1
 405 0 l 1
 417 55 l 1
 371 2 318 -23 251 -23 c 0
 147 -23 79 59 79 185 c 0
 79 267 108 357 157 428 c 0
 210 503 291 549 372 549 c 0
 440 549 482 524 505 470 c 1
 532 596 l 1
 392 596 l 1
 406 663 l 1
 546 663 l 1
380 437 m 0
 297 437 222 327 222 206 c 0
 222 134 256 89 309 89 c 0
 394 89 468 197 468 323 c 0
 468 392 434 437 380 437 c 0
EndSplineSet
EndChar
StartChar: Emacron
Encoding: 274 274
Width: 667
Flags: W
HStem: 0 125<257 624> 314 125<323 645> 604 125<357 735> 821 80<386 669>
DStem: 234 729 357 604 79 0 322 439 234 729 671 439 79 0 645 314 234 729 296 314 79 0 256 125 234 729 651 125 79 0 624 0
Fore
296 314 m 1
 256 125 l 1
 651 125 l 1
 624 0 l 1
 79 0 l 1
 234 729 l 1
 762 729 l 1
 735 604 l 1
 357 604 l 1
 322 439 l 1
 671 439 l 1
 645 314 l 1
 296 314 l 1
686 901 m 1
 669 821 l 1
 369 821 l 1
 386 901 l 1
 686 901 l 1
EndSplineSet
EndChar
StartChar: emacron
Encoding: 275 275
Width: 556
Flags: W
HStem: -22.7516 112.529<275 302> 226 93<229 447> 437 111.457<361 368> 642 80<277 560>
VStem: 64 143<169 201> 448 143<329 361>
Fore
573 226 m 1
 210 226 l 1
 207 198 207 190 207 181 c 0
 207 126 245 89 302 89 c 0
 350 89 394 114 414 152 c 1
 552 152 l 1
 497 41 396 -23 275 -23 c 0
 150 -23 64 61 64 185 c 0
 64 285 110 402 174 469 c 0
 221 518 301 549 379 549 c 0
 452 549 510 525 546 480 c 0
 574 444 591 397 591 351 c 0
 591 313 585 271 573 226 c 1
448 319 m 1
 448 334 l 2
 448 366 446 377 439 392 c 0
 426 420 397 437 362 437 c 0
 322 437 282 418 258 386 c 0
 245 369 237 351 228 319 c 1
 448 319 l 1
577 722 m 1
 560 642 l 1
 260 642 l 1
 277 722 l 1
 577 722 l 1
EndSplineSet
EndChar
StartChar: Edotaccent
Encoding: 278 278
Width: 667
Flags: W
HStem: 0 125<257 624> 314 125<323 645> 604 125<357 735> 798 120<482 566>
DStem: 234 729 357 604 79 0 322 439 234 729 671 439 79 0 645 314 234 729 296 314 79 0 256 125 234 729 651 125 79 0 624 0 482 918 592 918 456 798 566 798
Fore
296 314 m 1
 256 125 l 1
 651 125 l 1
 624 0 l 1
 79 0 l 1
 234 729 l 1
 762 729 l 1
 735 604 l 1
 357 604 l 1
 322 439 l 1
 671 439 l 1
 645 314 l 1
 296 314 l 1
592 918 m 1
 566 798 l 1
 456 798 l 1
 482 918 l 1
 592 918 l 1
EndSplineSet
EndChar
StartChar: edotaccent
Encoding: 279 279
Width: 556
Flags: W
HStem: -22.7516 112.529<275 302> 226 93<229 447> 437 111.457<361 374> 621 120<372 456>
VStem: 64 143<169 201> 448 143<329 361>
DStem: 372 741 482 741 346 621 456 621
Fore
573 226 m 1
 210 226 l 1
 207 198 207 190 207 181 c 0
 207 126 245 89 302 89 c 0
 350 89 394 114 414 152 c 1
 552 152 l 1
 497 41 396 -23 275 -23 c 0
 150 -23 64 61 64 185 c 0
 64 285 110 402 174 469 c 0
 221 518 301 549 379 549 c 0
 452 549 510 525 546 480 c 0
 574 444 591 397 591 351 c 0
 591 313 585 271 573 226 c 1
448 319 m 1
 448 334 l 2
 448 366 446 377 439 392 c 0
 426 420 397 437 362 437 c 0
 322 437 282 418 258 386 c 0
 245 369 237 351 228 319 c 1
 448 319 l 1
482 741 m 1
 456 621 l 1
 346 621 l 1
 372 741 l 1
 482 741 l 1
EndSplineSet
EndChar
StartChar: Eogonek
Encoding: 280 280
Width: 667
Flags: W
HStem: -232.997 49.9965<533 559> 0 125<257 550> 314 125<323 645> 604 125<357 735>
VStem: 395.043 99.9572<-153 -142>
DStem: 234 729 357 604 79 0 322 439 234 729 671 439 79 0 645 314 234 729 296 314 79 0 256 125 234 729 651 125 79 0 624 0
Fore
296 314 m 1
 256 125 l 1
 651 125 l 1
 624 0 l 1
 533 -51 495 -93 495 -143 c 0
 495 -170 512 -183 549 -183 c 0
 576 -183 598 -180 622 -172 c 1
 611 -224 l 1
 580 -231 559 -233 531 -233 c 0
 444 -233 395 -205 395 -156 c 0
 395 -115 419 -74 463 -43 c 0
 487 -25 507 -15 551 0 c 1
 79 0 l 1
 234 729 l 1
 762 729 l 1
 735 604 l 1
 357 604 l 1
 322 439 l 1
 671 439 l 1
 645 314 l 1
 296 314 l 1
EndSplineSet
EndChar
StartChar: eogonek
Encoding: 281 281
Width: 556
Flags: W
HStem: -232.956 49.9559<361 379> -23.6925 113.47<276 302> 226 93<229 447> 437 111.038<355 374>
VStem: 64 143<167 199> 222.014 98.9859<-150 -137> 448 143<327 359>
Fore
443 -172 m 1
 432 -224 l 1
 401 -230 380 -233 356 -233 c 0
 271 -233 222 -203 222 -152 c 0
 222 -101 249 -69 335 -17 c 1
 308 -22 295 -24 276 -24 c 0
 150 -24 64 61 64 184 c 0
 64 284 110 402 174 469 c 0
 221 518 301 549 379 549 c 0
 452 549 510 525 546 480 c 0
 574 444 591 397 591 351 c 0
 591 313 585 271 573 226 c 1
 210 226 l 1
 207 198 207 190 207 181 c 0
 207 126 245 89 302 89 c 0
 350 89 394 114 414 152 c 1
 552 152 l 1
 526 98 486 53 415 -1 c 1
 359 -46 321 -102 321 -140 c 0
 321 -168 339 -183 372 -183 c 0
 398 -183 423 -179 443 -172 c 1
448 319 m 1
 448 334 l 2
 448 366 446 377 439 392 c 0
 426 420 397 437 362 437 c 0
 322 437 282 418 258 386 c 0
 245 369 237 351 228 319 c 1
 448 319 l 1
EndSplineSet
EndChar
StartChar: Ecaron
Encoding: 282 282
Width: 667
Flags: W
HStem: 0 125<257 624> 314 125<323 645> 604 125<357 735> 789 147<455 462>
DStem: 234 729 357 604 79 0 322 439 234 729 671 439 79 0 645 314 234 729 296 314 79 0 256 125 234 729 651 125 79 0 624 0
Fore
296 314 m 1
 256 125 l 1
 651 125 l 1
 624 0 l 1
 79 0 l 1
 234 729 l 1
 762 729 l 1
 735 604 l 1
 357 604 l 1
 322 439 l 1
 671 439 l 1
 645 314 l 1
 296 314 l 1
563 789 m 1
 455 789 l 1
 384 936 l 1
 462 936 l 1
 523 839 l 1
 626 936 l 1
 702 936 l 1
 563 789 l 1
EndSplineSet
EndChar
StartChar: ecaron
Encoding: 283 283
Width: 556
Flags: W
HStem: -22.7516 112.529<275 302> 226 93<229 447> 437 111.038<355 368> 610 147<346 353>
VStem: 64 143<169 201> 448 143<329 361>
Fore
573 226 m 1
 210 226 l 1
 207 198 207 190 207 181 c 0
 207 126 245 89 302 89 c 0
 350 89 394 114 414 152 c 1
 552 152 l 1
 497 41 396 -23 275 -23 c 0
 150 -23 64 61 64 185 c 0
 64 285 110 402 174 469 c 0
 221 518 301 549 379 549 c 0
 452 549 510 525 546 480 c 0
 574 444 591 397 591 351 c 0
 591 313 585 271 573 226 c 1
448 319 m 1
 448 334 l 2
 448 366 446 377 439 392 c 0
 426 420 397 437 362 437 c 0
 322 437 282 418 258 386 c 0
 245 369 237 351 228 319 c 1
 448 319 l 1
454 610 m 1
 346 610 l 1
 275 757 l 1
 353 757 l 1
 414 660 l 1
 517 757 l 1
 593 757 l 1
 454 610 l 1
EndSplineSet
EndChar
StartChar: Gbreve
Encoding: 286 286
Width: 778
Flags: W
HStem: -22.6706 128.274<395 426> 267 125<503 641> 613 127.059<518 539> 791 78<560 577>
VStem: 107.005 148.995<264 286> 454.002 47.9976<895 926>
DStem: 503 392 795 392 476 267 711 -2
Fore
795 392 m 1
 711 -2 l 1
 621 -2 l 1
 628 88 l 1
 554 9 488 -23 395 -23 c 0
 219 -23 107 88 107 262 c 0
 107 378 155 505 233 596 c 0
 315 691 424 741 547 741 c 0
 710 741 819 655 819 529 c 0
 819 521 818 510 817 496 c 1
 679 496 l 1
 671 571 614 613 519 613 c 0
 434 613 366 575 318 501 c 0
 282 446 256 355 256 284 c 0
 256 181 328 105 426 105 c 0
 484 105 543 130 588 175 c 0
 615 201 629 226 642 267 c 1
 476 267 l 1
 503 392 l 1
 795 392 l 1
679 934 m 1
 721 934 l 1
 707 852 639 791 560 791 c 0
 497 791 454 833 454 895 c 0
 454 907 455 916 460 934 c 1
 502 934 l 1
 502 926 l 2
 502 890 529 869 576 869 c 0
 627 869 662 891 679 934 c 1
EndSplineSet
EndChar
StartChar: gbreve
Encoding: 287 287
Width: 611
Flags: W
HStem: -217.8 89.8003<250 266> -22.9983 111.998<254 306> 437 112<365.518 381> 520 20G<523 656> 611 78<436 453>
VStem: 26.005 145.995<-96 -77> 79.289 143.572<167 201> 330.002 47.9976<715 746>
DStem: 420 55 656 540 404 -18 537 -18 523 540 656 540 505 457 537 -18
Fore
523 540 m 1
 656 540 l 1
 537 -18 l 1
 510 -146 401 -218 235 -218 c 0
 173 -218 129 -210 93 -192 c 0
 52 -172 26 -134 26 -96 c 0
 26 -88 27 -77 29 -65 c 1
 173 -65 l 1
 172 -77 l 1
 172 -106 209 -128 258 -128 c 0
 331 -128 390 -83 404 -18 c 2
 420 55 l 1
 356 -4 316 -23 254 -23 c 0
 153 -23 79 57 79 167 c 0
 79 264 116 374 174 445 c 0
 227 511 302 549 378 549 c 0
 437 549 478 519 505 457 c 1
 523 540 l 1
379 437 m 0
 297 437 222 324 222 201 c 0
 222 132 254 89 306 89 c 0
 395 89 471 193 471 315 c 0
 471 389 435 437 379 437 c 0
555 754 m 1
 597 754 l 1
 583 672 515 611 436 611 c 0
 373 611 330 653 330 715 c 0
 330 727 331 736 336 754 c 1
 378 754 l 1
 378 746 l 2
 378 710 405 689 452 689 c 0
 503 689 538 711 555 754 c 1
EndSplineSet
EndChar
StartChar: Gcommaaccent
Encoding: 290 290
Width: 778
Flags: W
HStem: -172 112<323 365> -22.6706 128.274<395 426> 267 125<503 641> 613 127.059<518 539>
VStem: 107.005 148.995<264 286>
DStem: 323 -60 445 -60 299 -172 424 -156 503 392 795 392 476 267 711 -2
Fore
795 392 m 1
 711 -2 l 1
 621 -2 l 1
 628 88 l 1
 554 9 488 -23 395 -23 c 0
 219 -23 107 88 107 262 c 0
 107 378 155 505 233 596 c 0
 315 691 424 741 547 741 c 0
 710 741 819 655 819 529 c 0
 819 521 818 510 817 496 c 1
 679 496 l 1
 671 571 614 613 519 613 c 0
 434 613 366 575 318 501 c 0
 282 446 256 355 256 284 c 0
 256 181 328 105 426 105 c 0
 484 105 543 130 588 175 c 0
 615 201 629 226 642 267 c 1
 476 267 l 1
 503 392 l 1
 795 392 l 1
323 -60 m 1
 445 -60 l 1
 424 -156 l 1
 414 -234 347 -301 271 -307 c 1
 281 -261 l 1
 325 -253 360 -217 366 -172 c 1
 299 -172 l 1
 323 -60 l 1
EndSplineSet
EndChar
StartChar: gcommaaccent
Encoding: 291 291
Width: 611
Flags: W
HStem: -217.8 89.8003<250 266> -22.9983 111.998<254 306> 437 112<370 392> 520 20G<523 656> 607 112<451 493>
VStem: 26.005 145.995<-96 -77> 79.289 143.572<167 201>
DStem: 391 703 516 719 371 607 493 607 420 55 656 540 404 -18 537 -18 523 540 656 540 505 457 537 -18
Fore
523 540 m 1
 656 540 l 1
 537 -18 l 1
 510 -146 401 -218 235 -218 c 0
 173 -218 129 -210 93 -192 c 0
 52 -172 26 -134 26 -96 c 0
 26 -88 27 -77 29 -65 c 1
 173 -65 l 1
 172 -77 l 1
 172 -106 209 -128 258 -128 c 0
 331 -128 390 -83 404 -18 c 2
 420 55 l 1
 356 -4 316 -23 254 -23 c 0
 153 -23 79 57 79 167 c 0
 79 264 116 374 174 445 c 0
 227 511 302 549 378 549 c 0
 437 549 478 519 505 457 c 1
 523 540 l 1
379 437 m 0
 297 437 222 324 222 201 c 0
 222 132 254 89 306 89 c 0
 395 89 471 193 471 315 c 0
 471 389 435 437 379 437 c 0
493 607 m 1
 371 607 l 1
 391 703 l 1
 402 781 469 848 545 854 c 1
 535 808 l 1
 490 800 456 764 450 719 c 1
 516 719 l 1
 493 607 l 1
EndSplineSet
EndChar
StartChar: Hbar
Encoding: 294 294
Width: 722
Flags: W
HStem: 0 21G<68 218 507 657> 331 125<316 576> 331 398<288 315>
DStem: 223 729 373 729 68 0 315 456 223 729 812 729 68 0 657 0 223 729 288 331 68 0 218 0 577 331 812 729 507 0 657 0 661 729 812 729 603 456 657 0
Fore
577 331 m 1
 288 331 l 1
 218 0 l 1
 68 0 l 1
 223 729 l 1
 373 729 l 1
 315 456 l 1
 603 456 l 1
 661 729 l 1
 812 729 l 1
 657 0 l 1
 507 0 l 1
 577 331 l 1
EndSplineSet
EndChar
StartChar: hbar
Encoding: 295 295
Width: 611
Flags: W
HStem: 0 21G<67 207 406 546> 709 20G<222 362>
VStem: 478.985 150.015<361 417>
DStem: 222 729 362 729 67 0 304 458 222 729 272 304 67 0 207 0 473 313 623 362 406 0 546 0
Fore
222 729 m 1
 362 729 l 1
 304 458 l 1
 357 521 413 549 484 549 c 0
 571 549 629 496 629 417 c 0
 629 399 627 381 623 362 c 2
 546 0 l 1
 406 0 l 1
 473 313 l 1
 477 334 479 348 479 361 c 0
 479 410 453 437 406 437 c 0
 342 437 289 385 272 304 c 1
 207 0 l 1
 67 0 l 1
 222 729 l 1
EndSplineSet
EndChar
StartChar: Imacron
Encoding: 298 298
Width: 278
Flags: W
HStem: 0 21G<63 213> 709 20G<218 368> 821 80<193 449>
DStem: 218 729 368 729 63 0 213 0
Fore
368 729 m 1
 213 0 l 1
 63 0 l 1
 218 729 l 1
 368 729 l 1
466 901 m 1
 449 821 l 1
 176 821 l 1
 193 901 l 1
 466 901 l 1
EndSplineSet
EndChar
StartChar: imacron
Encoding: 299 299
Width: 278
Flags: W
HStem: 0 21G<67 207> 520 20G<182 322> 642 80<157 407>
DStem: 182 540 322 540 67 0 207 0
Fore
322 540 m 1
 207 0 l 1
 67 0 l 1
 182 540 l 1
 322 540 l 1
424 722 m 1
 407 642 l 1
 140 642 l 1
 157 722 l 1
 424 722 l 1
EndSplineSet
EndChar
StartChar: Iogonek
Encoding: 302 302
Width: 278
Flags: W
HStem: -232.815 49.8152<139 151> 709 20G<218 368>
VStem: 7.00432 96.9957<-155 -139>
DStem: 218 729 368 729 63 0 213 0
Fore
368 729 m 1
 213 0 l 1
 153 -32 104 -95 104 -139 c 0
 104 -167 121 -183 150 -183 c 0
 164 -183 192 -178 210 -172 c 1
 199 -224 l 1
 165 -231 151 -233 128 -233 c 0
 53 -233 7 -204 7 -155 c 0
 7 -98 49 -50 139 0 c 1
 63 0 l 1
 218 729 l 1
 368 729 l 1
EndSplineSet
EndChar
StartChar: iogonek
Encoding: 303 303
Width: 268
Flags: W
HStem: -232.863 51.7159<119 143> 520 20G<171 311> 604 125<211 325>
VStem: 0 96<-150 -137>
DStem: 171 540 311 540 56 0 196 0 211 729 351 729 185 604 325 604
Fore
311 540 m 1
 196 0 l 1
 132 -45 96 -95 96 -140 c 0
 96 -167 112 -182 143 -182 c 0
 158 -182 163 -181 193 -172 c 1
 182 -224 l 1
 141 -233 138 -233 119 -233 c 0
 45 -233 0 -202 0 -150 c 0
 0 -98 36 -56 129 0 c 1
 56 0 l 1
 171 540 l 1
 311 540 l 1
351 729 m 1
 325 604 l 1
 185 604 l 1
 211 729 l 1
 351 729 l 1
EndSplineSet
EndChar
StartChar: Idotaccent
Encoding: 304 304
Width: 278
Flags: W
HStem: 0 21G<63 213> 709 20G<218 368> 798 120<278 362>
DStem: 218 729 368 729 63 0 213 0 278 918 388 918 252 798 362 798
Fore
368 729 m 1
 213 0 l 1
 63 0 l 1
 218 729 l 1
 368 729 l 1
388 918 m 1
 362 798 l 1
 252 798 l 1
 278 918 l 1
 388 918 l 1
EndSplineSet
EndChar
StartChar: dotlessi
Encoding: 305 305
Width: 278
Flags: W
HStem: 0 21G<67 207> 520 20G<182 322>
DStem: 182 540 322 540 67 0 207 0
Fore
322 540 m 1
 207 0 l 1
 67 0 l 1
 182 540 l 1
 322 540 l 1
EndSplineSet
EndChar
StartChar: jcircumflex
Encoding: 309 309
Width: 278
HStem: -218 112<-11 8> 520 20G<185 325> 715 147<363 370>
DStem: 185 540 325 540 57 -62 190 -94
Fore
325 540 m 1
 190 -94 l 1
 172 -181 116 -218 2 -218 c 0
 -17 -218 -29 -217 -43 -213 c 1
 -19 -102 l 1
 -15 -105 -8 -106 6 -106 c 0
 36 -106 50 -94 57 -62 c 2
 185 540 l 1
 325 540 l 1
262.669 862 m 1
 370.669 862 l 1
 441.669 715 l 1
 363.669 715 l 1
 302.669 812 l 1
 199.669 715 l 1
 123.669 715 l 1
 262.669 862 l 1
EndSplineSet
EndChar
StartChar: Kcommaaccent
Encoding: 310 310
Width: 722
Flags: W
HStem: -172 112<305 347> 0 21G<74 224 538 717> 709 20G<229 379 665 843>
DStem: 229 729 379 729 74 0 311 409 229 729 274 234 74 0 224 0 305 -60 427 -60 281 -172 406 -156 365 314 482 410 538 0 717 0 665 729 843 729 311 409 482 410
Fore
274 234 m 1
 224 0 l 1
 74 0 l 1
 229 729 l 1
 379 729 l 1
 311 409 l 1
 665 729 l 1
 843 729 l 1
 482 410 l 1
 717 0 l 1
 538 0 l 1
 365 314 l 1
 274 234 l 1
305 -60 m 1
 427 -60 l 1
 406 -156 l 1
 396 -234 329 -301 253 -307 c 1
 263 -261 l 1
 307 -253 342 -217 348 -172 c 1
 281 -172 l 1
 305 -60 l 1
EndSplineSet
EndChar
StartChar: kcommaaccent
Encoding: 311 311
Width: 556
Flags: W
HStem: -172 112<220 262> 0 21G<59 199 384 548> 520 20G<492 651> 709 20G<214 354>
DStem: 214 729 354 729 59 0 269 330 214 729 237 177 59 0 199 0 220 -60 342 -60 196 -172 321 -156
Fore
354 729 m 1
 269 330 l 1
 492 540 l 1
 651 540 l 1
 419 334 l 1
 548 0 l 1
 384 0 l 1
 305 239 l 1
 237 177 l 1
 199 0 l 1
 59 0 l 1
 214 729 l 1
 354 729 l 1
220 -60 m 1
 342 -60 l 1
 321 -156 l 1
 311 -234 244 -301 168 -307 c 1
 178 -261 l 1
 222 -253 257 -217 263 -172 c 1
 196 -172 l 1
 220 -60 l 1
EndSplineSet
MinimumDistance: x0,-1 
EndChar
StartChar: kgreenlandic
Encoding: 312 312
Width: 529
Flags: W
HStem: 0 21G<59 199 366 548> 520 20G<174 314 476 624>
DStem: 174 540 314 540 59 0 274 351 174 540 241 198 59 0 199 0 241 198 358 296 366 0 548 0 476 540 624 540 274 351 358 296
Fore
274 351 m 1
 476 540 l 1
 624 540 l 1
 358 296 l 1
 548 0 l 1
 366 0 l 1
 241 198 l 1
 199 0 l 1
 59 0 l 1
 174 540 l 1
 314 540 l 1
 274 351 l 1
EndSplineSet
EndChar
StartChar: Lacute
Encoding: 313 313
Width: 611
Flags: W
HStem: 0 125<258 579> 709 20G<235 385>
DStem: 235 729 385 729 80 0 257 125 235 729 606 125 80 0 579 0
Fore
385 729 m 1
 257 125 l 1
 606 125 l 1
 579 0 l 1
 80 0 l 1
 235 729 l 1
 385 729 l 1
494 936 m 1
 336 786 l 1
 266 786 l 1
 368 936 l 1
 494 936 l 1
EndSplineSet
MinimumDistance: x2,-1 
EndChar
StartChar: lacute
Encoding: 314 314
Width: 278
Flags: W
HStem: 0 21G<67 207> 709 20G<222 362>
DStem: 222 729 362 729 67 0 207 0
Fore
362 729 m 1
 207 0 l 1
 67 0 l 1
 222 729 l 1
 362 729 l 1
474 936 m 1
 316 786 l 1
 246 786 l 1
 348 936 l 1
 474 936 l 1
EndSplineSet
EndChar
StartChar: Lcommaaccent
Encoding: 315 315
Width: 611
Flags: W
HStem: -174 112<265 307> 0 125<258 579> 709 20G<235 385>
DStem: 235 729 385 729 80 0 257 125 235 729 606 125 80 0 579 0 265 -62 387 -62 241 -174 366 -158
Fore
385 729 m 1
 257 125 l 1
 606 125 l 1
 579 0 l 1
 80 0 l 1
 235 729 l 1
 385 729 l 1
265 -62 m 1
 387 -62 l 1
 366 -158 l 1
 356 -236 289 -303 213 -309 c 1
 223 -263 l 1
 267 -255 302 -219 308 -174 c 1
 241 -174 l 1
 265 -62 l 1
EndSplineSet
MinimumDistance: x2,-1 
EndChar
StartChar: lcommaaccent
Encoding: 316 316
Width: 278
Flags: W
HStem: -172 112<63 105> 0 21G<67 207> 709 20G<222 362>
DStem: 63 -60 185 -60 39 -172 164 -156 222 729 362 729 67 0 207 0
Fore
362 729 m 1
 207 0 l 1
 67 0 l 1
 222 729 l 1
 362 729 l 1
63 -60 m 1
 185 -60 l 1
 164 -156 l 1
 154 -234 87 -301 11 -307 c 1
 21 -261 l 1
 65 -253 100 -217 106 -172 c 1
 39 -172 l 1
 63 -60 l 1
EndSplineSet
EndChar
StartChar: Lcaron
Encoding: 317 317
Width: 611
Flags: W
HStem: 0 125<258 579> 617 112<485 527>
DStem: 235 729 385 729 80 0 257 125 235 729 606 125 80 0 579 0 485 729 607 729 461 617 586 633
Fore
385 729 m 1
 257 125 l 1
 606 125 l 1
 579 0 l 1
 80 0 l 1
 235 729 l 1
 385 729 l 1
485 729 m 1
 607 729 l 1
 586 633 l 1
 576 555 509 488 433 482 c 1
 443 528 l 1
 487 536 522 572 528 617 c 1
 461 617 l 1
 485 729 l 1
EndSplineSet
MinimumDistance: x2,-1 
EndChar
StartChar: lcaron
Encoding: 318 318
Width: 384
Flags: W
HStem: 0 21G<67 207> 617 112<422 464>
DStem: 222 729 362 729 67 0 207 0 422 729 544 729 398 617 523 633
Fore
362 729 m 1
 207 0 l 1
 67 0 l 1
 222 729 l 1
 362 729 l 1
422 729 m 1
 544 729 l 1
 523 633 l 1
 513 555 446 488 370 482 c 1
 380 528 l 1
 424 536 459 572 465 617 c 1
 398 617 l 1
 422 729 l 1
EndSplineSet
EndChar
StartChar: Lslash
Encoding: 321 321
Width: 611
Flags: W
HStem: 0 125<276 597> 709 20G<253 403>
DStem: 74 295 318 327 54 201 275 125 154 262 318 327 98 0 275 125 154 262 624 125 98 0 597 0 253 729 403 729 174 356 338 421 525 531 505 437 338 421 318 327
Fore
338 421 m 1
 525 531 l 1
 505 437 l 1
 318 327 l 1
 275 125 l 1
 624 125 l 1
 597 0 l 1
 98 0 l 1
 154 262 l 1
 54 201 l 1
 74 295 l 1
 174 356 l 1
 253 729 l 1
 403 729 l 1
 338 421 l 1
EndSplineSet
EndChar
StartChar: lslash
Encoding: 322 322
Width: 278
Flags: W
HStem: 0 21G<64 204> 709 20G<219 359>
DStem: 67 329 279 353 50 246 204 0 126 294 279 353 64 0 204 0 219 729 359 729 143 376 296 435 219 729 372 480 143 376 355 398
Fore
296 435 m 1
 372 480 l 1
 355 398 l 1
 279 353 l 1
 204 0 l 1
 64 0 l 1
 126 294 l 1
 50 246 l 1
 67 329 l 1
 143 376 l 1
 219 729 l 1
 359 729 l 1
 296 435 l 1
EndSplineSet
EndChar
StartChar: Nacute
Encoding: 323 323
Width: 722
Flags: W
HStem: 0 21G<68 210 513 661> 709 20G<223 373 674 816>
DStem: 223 729 321 523 68 0 210 0 321 523 373 729 513 0 565 214 674 729 816 729 565 214 661 0
Fore
816 729 m 1
 661 0 l 1
 513 0 l 1
 321 523 l 1
 210 0 l 1
 68 0 l 1
 223 729 l 1
 373 729 l 1
 565 214 l 1
 674 729 l 1
 816 729 l 1
690 936 m 1
 532 786 l 1
 462 786 l 1
 564 936 l 1
 690 936 l 1
EndSplineSet
EndChar
StartChar: nacute
Encoding: 324 324
Width: 611
Flags: W
HStem: 0 21G<63 203 406 546> 520 20G<178 318>
VStem: 478.996 150.004<362 417>
DStem: 178 540 318 540 63 0 300 458 178 540 268 304 63 0 203 0 473 313 623 362 406 0 546 0
Fore
178 540 m 1
 318 540 l 1
 300 458 l 1
 354 522 408 549 482 549 c 0
 571 549 629 497 629 417 c 0
 629 399 627 381 623 362 c 2
 546 0 l 1
 406 0 l 1
 473 313 l 1
 477 335 479 349 479 362 c 0
 479 410 453 437 405 437 c 0
 338 437 285 386 268 304 c 1
 203 0 l 1
 63 0 l 1
 178 540 l 1
594 757 m 1
 436 607 l 1
 366 607 l 1
 468 757 l 1
 594 757 l 1
EndSplineSet
EndChar
StartChar: Ncommaaccent
Encoding: 325 325
Width: 722
Flags: W
HStem: -172 112<288 330> 0 21G<68 210 513 661> 709 20G<223 373 674 816>
DStem: 223 729 321 523 68 0 210 0 288 -60 410 -60 264 -172 389 -156 321 523 373 729 513 0 565 214 674 729 816 729 565 214 661 0
Fore
816 729 m 1
 661 0 l 1
 513 0 l 1
 321 523 l 1
 210 0 l 1
 68 0 l 1
 223 729 l 1
 373 729 l 1
 565 214 l 1
 674 729 l 1
 816 729 l 1
288 -60 m 1
 410 -60 l 1
 389 -156 l 1
 379 -234 312 -301 236 -307 c 1
 246 -261 l 1
 290 -253 325 -217 331 -172 c 1
 264 -172 l 1
 288 -60 l 1
EndSplineSet
EndChar
StartChar: ncommaaccent
Encoding: 326 326
Width: 611
Flags: W
HStem: -172 112<231 273> 0 21G<63 203 406 546> 520 20G<178 318>
VStem: 478.996 150.004<362 417>
DStem: 178 540 318 540 63 0 300 458 178 540 268 304 63 0 203 0 231 -60 353 -60 207 -172 332 -156 473 313 623 362 406 0 546 0
Fore
178 540 m 1
 318 540 l 1
 300 458 l 1
 354 522 408 549 482 549 c 0
 571 549 629 497 629 417 c 0
 629 399 627 381 623 362 c 2
 546 0 l 1
 406 0 l 1
 473 313 l 1
 477 335 479 349 479 362 c 0
 479 410 453 437 405 437 c 0
 338 437 285 386 268 304 c 1
 203 0 l 1
 63 0 l 1
 178 540 l 1
231 -60 m 1
 353 -60 l 1
 332 -156 l 1
 322 -234 255 -301 179 -307 c 1
 189 -261 l 1
 233 -253 268 -217 274 -172 c 1
 207 -172 l 1
 231 -60 l 1
EndSplineSet
EndChar
StartChar: Ncaron
Encoding: 327 327
Width: 722
Flags: W
HStem: 0 21G<68 210 513 661> 709 20G<223 373 674 816> 789 147<469 476>
DStem: 223 729 321 523 68 0 210 0 321 523 373 729 513 0 565 214 674 729 816 729 565 214 661 0
Fore
816 729 m 1
 661 0 l 1
 513 0 l 1
 321 523 l 1
 210 0 l 1
 68 0 l 1
 223 729 l 1
 373 729 l 1
 565 214 l 1
 674 729 l 1
 816 729 l 1
577 789 m 1
 469 789 l 1
 398 936 l 1
 476 936 l 1
 537 839 l 1
 640 936 l 1
 716 936 l 1
 577 789 l 1
EndSplineSet
EndChar
StartChar: ncaron
Encoding: 328 328
Width: 611
Flags: W
HStem: 0 21G<63 203 406 546> 520 20G<178 318> 610 147<370 377>
VStem: 478.996 150.004<362 417>
DStem: 178 540 318 540 63 0 300 458 178 540 268 304 63 0 203 0 473 313 623 362 406 0 546 0
Fore
178 540 m 1
 318 540 l 1
 300 458 l 1
 354 522 408 549 482 549 c 0
 571 549 629 497 629 417 c 0
 629 399 627 381 623 362 c 2
 546 0 l 1
 406 0 l 1
 473 313 l 1
 477 335 479 349 479 362 c 0
 479 410 453 437 405 437 c 0
 338 437 285 386 268 304 c 1
 203 0 l 1
 63 0 l 1
 178 540 l 1
478 610 m 1
 370 610 l 1
 299 757 l 1
 377 757 l 1
 438 660 l 1
 541 757 l 1
 617 757 l 1
 478 610 l 1
EndSplineSet
EndChar
StartChar: napostrophe
Encoding: 329 329
Width: 611
Flags: W
HStem: 0 21G<63 203 406 546> 520 20G<178 318>
VStem: 478.996 150.004<362 417>
DStem: 178 540 318 540 63 0 300 458 178 540 268 304 63 0 203 0 473 313 623 362 406 0 546 0
Fore
178 540 m 1
 318 540 l 1
 300 458 l 1
 354 522 408 549 482 549 c 0
 571 549 629 497 629 417 c 0
 629 399 627 381 623 362 c 2
 546 0 l 1
 406 0 l 1
 473 313 l 1
 477 335 479 349 479 362 c 0
 479 410 453 437 405 437 c 0
 338 437 285 386 268 304 c 1
 203 0 l 1
 63 0 l 1
 178 540 l 1
EndSplineSet
EndChar
StartChar: Eng
Encoding: 330 330
Width: 722
Flags: W
HStem: 0 21G<68 210 513 661> 709 20G<223 373 674 816>
DStem: 223 729 321 523 68 0 210 0 321 523 373 729 513 0 565 214 674 729 816 729 565 214 661 0
Fore
816 729 m 1
 661 0 l 1
 513 0 l 1
 321 523 l 1
 210 0 l 1
 68 0 l 1
 223 729 l 1
 373 729 l 1
 565 214 l 1
 674 729 l 1
 816 729 l 1
EndSplineSet
EndChar
StartChar: eng
Encoding: 331 331
Width: 611
Flags: W
HStem: 0 21G<63 203 406 546> 520 20G<178 318>
VStem: 478.996 150.004<362 417>
DStem: 178 540 318 540 63 0 300 458 178 540 268 304 63 0 203 0 473 313 623 362 406 0 546 0
Fore
178 540 m 1
 318 540 l 1
 300 458 l 1
 354 522 408 549 482 549 c 0
 571 549 629 497 629 417 c 0
 629 399 627 381 623 362 c 2
 546 0 l 1
 406 0 l 1
 473 313 l 1
 477 335 479 349 479 362 c 0
 479 410 453 437 405 437 c 0
 338 437 285 386 268 304 c 1
 203 0 l 1
 63 0 l 1
 178 540 l 1
EndSplineSet
EndChar
StartChar: Omacron
Encoding: 332 332
Width: 778
Flags: W
HStem: -22.7892 127.789<410 426> 613 128<518 539> 821 80<433 716>
VStem: 106 149<260 284> 679 149<425 457>
Fore
538 741 m 0
 721 741 828 635 828 455 c 0
 828 337 783 215 705 124 c 0
 619 22 523 -23 395 -23 c 0
 217 -23 106 86 106 261 c 0
 106 376 153 502 231 594 c 0
 313 693 414 741 538 741 c 0
519 613 m 0
 443 613 377 577 327 509 c 0
 283 448 255 360 255 282 c 0
 255 173 318 105 419 105 c 0
 496 105 559 140 609 210 c 0
 652 270 679 358 679 437 c 0
 679 547 619 613 519 613 c 0
733 901 m 1
 716 821 l 1
 416 821 l 1
 433 901 l 1
 733 901 l 1
EndSplineSet
EndChar
StartChar: omacron
Encoding: 333 333
Width: 611
Flags: W
HStem: -22.348 111.348<322 326> 437 111.258<390 402> 642 80<306 589>
VStem: 82.773 142.227<177 205> 490.786 142.658<320 349>
Fore
413 549 m 0
 550 549 634 473 634 349 c 0
 634 263 602 163 555 100 c 0
 494 19 407 -23 299 -23 c 0
 167 -23 82 55 82 177 c 0
 82 263 113 363 161 426 c 0
 220 505 310 549 413 549 c 0
391 437 m 0
 301 437 225 332 225 205 c 0
 225 134 264 89 324 89 c 0
 376 89 422 120 453 176 c 0
 477 218 491 271 491 320 c 0
 491 391 452 437 391 437 c 0
606 722 m 1
 589 642 l 1
 289 642 l 1
 306 722 l 1
 606 722 l 1
EndSplineSet
EndChar
StartChar: Ohungarumlaut
Encoding: 336 336
Width: 778
Flags: W
HStem: -22.7892 127.789<410 427> 613 128<518 539>
VStem: 106 149<260 284> 679 149<425 457>
Fore
538 741 m 0
 721 741 828 635 828 455 c 0
 828 337 783 215 705 124 c 0
 619 22 523 -23 395 -23 c 0
 217 -23 106 86 106 261 c 0
 106 376 153 502 231 594 c 0
 313 693 414 741 538 741 c 0
519 613 m 0
 443 613 377 577 327 509 c 0
 283 448 255 360 255 282 c 0
 255 173 318 105 419 105 c 0
 496 105 559 140 609 210 c 0
 652 270 679 358 679 437 c 0
 679 547 619 613 519 613 c 0
653 936 m 1
 495 789 l 1
 425 789 l 1
 527 936 l 1
 653 936 l 1
841 936 m 1
 683 789 l 1
 613 789 l 1
 715 936 l 1
 841 936 l 1
EndSplineSet
EndChar
StartChar: ohungarumlaut
Encoding: 337 337
Width: 611
Flags: W
HStem: -22.348 111.348<322 326> 437 111.258<390 402>
VStem: 82.773 142.227<177 205> 490.786 142.658<320 349>
Fore
413 549 m 0
 550 549 634 473 634 349 c 0
 634 263 602 163 555 100 c 0
 494 19 407 -23 299 -23 c 0
 167 -23 82 55 82 177 c 0
 82 263 113 363 161 426 c 0
 220 505 310 549 413 549 c 0
391 437 m 0
 301 437 225 332 225 205 c 0
 225 134 264 89 324 89 c 0
 376 89 422 120 453 176 c 0
 477 218 491 271 491 320 c 0
 491 391 452 437 391 437 c 0
522 757 m 1
 364 610 l 1
 294 610 l 1
 396 757 l 1
 522 757 l 1
710 757 m 1
 552 610 l 1
 482 610 l 1
 584 757 l 1
 710 757 l 1
EndSplineSet
EndChar
StartChar: OE
Encoding: 338 338
Width: 1000
Flags: W
HStem: -22.9984 127.998<326 383> 0 125<653 971> 314 125<720 990> 604 125<754 1080> 613 128<474 495>
VStem: 90.4196 148.58<265 276>
DStem: 590 540 754 604 513 178 719 439 590 540 1017 439 513 178 990 314 590 540 692 314 513 178 652 125 636 729 1107 729 625 677 1080 604
Fore
692 314 m 1
 652 125 l 1
 997 125 l 1
 971 0 l 1
 481 0 l 1
 493 59 l 1
 437 -1 393 -23 326 -23 c 0
 185 -23 90 84 90 245 c 0
 90 377 146 527 230 619 c 0
 303 700 388 741 482 741 c 0
 548 741 588 723 625 677 c 1
 636 729 l 1
 1107 729 l 1
 1080 604 l 1
 754 604 l 1
 719 439 l 1
 1017 439 l 1
 990 314 l 1
 692 314 l 1
513 178 m 1
 590 540 l 1
 571 591 538 613 482 613 c 0
 404 613 340 568 293 482 c 0
 259 420 239 344 239 274 c 0
 239 168 292 105 383 105 c 0
 436 105 474 126 513 178 c 1
EndSplineSet
EndChar
StartChar: oe
Encoding: 339 339
Width: 944
Flags: W
HStem: -22.2733 111.273<311 314 666 695> 226 93<628 842> 437 111.176<379 391 757 760>
VStem: 71.8458 142.197<176 205> 843 143<329 361>
Fore
809 152 m 1
 947 152 l 1
 894 45 785 -23 666 -23 c 0
 592 -23 526 6 498 50 c 1
 446 4 369 -23 288 -23 c 0
 154 -23 71 53 71 176 c 0
 71 263 103 363 151 426 c 0
 211 505 301 549 403 549 c 0
 482 549 549 522 583 477 c 1
 629 522 703 549 778 549 c 0
 848 549 905 525 941 480 c 0
 969 444 986 397 986 351 c 0
 986 313 980 271 968 226 c 1
 606 226 l 1
 600 200 599 188 599 174 c 0
 599 124 638 89 695 89 c 0
 744 89 789 114 809 152 c 1
380 437 m 0
 290 437 214 332 214 205 c 0
 214 135 253 89 313 89 c 0
 365 89 411 120 442 176 c 0
 466 218 480 271 480 320 c 0
 480 391 441 437 380 437 c 0
843 319 m 1
 843 347 l 2
 843 404 812 437 758 437 c 0
 694 437 648 396 627 319 c 1
 843 319 l 1
EndSplineSet
EndChar
StartChar: Racute
Encoding: 340 340
Width: 722
Flags: W
HStem: 0 21G<80 230 518 677> 289 125<319 480> 604 125<358 550>
VStem: 510.003 154.997<41 61> 547.993 148.007<234 270> 635.993 149.007<534 579>
DStem: 235 729 358 604 80 0 318 414 235 729 291 289 80 0 230 0
Fore
291 289 m 1
 230 0 l 1
 80 0 l 1
 235 729 l 1
 612 729 l 2
 670 729 710 715 742 683 c 0
 769 656 785 617 785 579 c 0
 785 523 760 460 721 420 c 0
 697 395 671 378 618 352 c 1
 670 335 696 308 696 270 c 0
 696 245 691 210 668 87 c 0
 666 77 665 67 665 61 c 0
 665 47 670 37 683 27 c 1
 677 0 l 1
 518 0 l 1
 512 19 510 29 510 41 c 0
 510 67 517 104 536 173 c 0
 545 209 548 222 548 234 c 0
 548 271 520 289 463 289 c 2
 291 289 l 1
318 414 m 1
 499 414 l 2
 549 414 580 426 606 455 c 0
 624 475 636 506 636 534 c 0
 636 553 628 570 614 583 c 1
 595 598 572 604 526 604 c 2
 358 604 l 1
 318 414 l 1
673 936 m 1
 515 786 l 1
 445 786 l 1
 547 936 l 1
 673 936 l 1
EndSplineSet
EndChar
StartChar: racute
Encoding: 341 341
Width: 389
Flags: W
HStem: 0 21G<63 203> 520 20G<178 318>
DStem: 178 540 318 540 63 0 295 434 178 540 487 548 63 0 457 406 178 540 264 287 63 0 203 0
Fore
178 540 m 1
 318 540 l 1
 295 434 l 1
 342 507 406 549 470 549 c 0
 474 549 479 549 487 548 c 1
 457 406 l 1
 439 409 429 410 414 410 c 0
 332 410 281 369 264 287 c 1
 203 0 l 1
 63 0 l 1
 178 540 l 1
500 757 m 1
 342 607 l 1
 272 607 l 1
 374 757 l 1
 500 757 l 1
EndSplineSet
EndChar
StartChar: Rcommaaccent
Encoding: 342 342
Width: 722
Flags: W
HStem: -172 112<298 340> 0 21G<80 230 518 677> 289 125<319 480> 604 125<358 550>
VStem: 510.003 154.997<41 61> 547.993 148.007<234 270> 635.993 149.007<534 579>
DStem: 235 729 358 604 80 0 318 414 235 729 291 289 80 0 230 0 298 -60 420 -60 274 -172 399 -156
Fore
291 289 m 1
 230 0 l 1
 80 0 l 1
 235 729 l 1
 612 729 l 2
 670 729 710 715 742 683 c 0
 769 656 785 617 785 579 c 0
 785 523 760 460 721 420 c 0
 697 395 671 378 618 352 c 1
 670 335 696 308 696 270 c 0
 696 245 691 210 668 87 c 0
 666 77 665 67 665 61 c 0
 665 47 670 37 683 27 c 1
 677 0 l 1
 518 0 l 1
 512 19 510 29 510 41 c 0
 510 67 517 104 536 173 c 0
 545 209 548 222 548 234 c 0
 548 271 520 289 463 289 c 2
 291 289 l 1
318 414 m 1
 499 414 l 2
 549 414 580 426 606 455 c 0
 624 475 636 506 636 534 c 0
 636 553 628 570 614 583 c 1
 595 598 572 604 526 604 c 2
 358 604 l 1
 318 414 l 1
298 -60 m 1
 420 -60 l 1
 399 -156 l 1
 389 -234 322 -301 246 -307 c 1
 256 -261 l 1
 300 -253 335 -217 341 -172 c 1
 274 -172 l 1
 298 -60 l 1
EndSplineSet
EndChar
StartChar: rcommaaccent
Encoding: 343 343
Width: 389
Flags: W
HStem: -172 112<60 102> 0 21G<63 203> 520 20G<178 318>
DStem: 60 -60 182 -60 36 -172 161 -156 178 540 318 540 63 0 296 434 178 540 487 548 63 0 457 406 178 540 264 287 63 0 203 0
Fore
178 540 m 1
 318 540 l 1
 296 434 l 1
 342 507 406 549 470 549 c 0
 474 549 479 549 487 548 c 1
 457 406 l 1
 439 409 429 410 414 410 c 0
 332 410 282 369 264 287 c 1
 203 0 l 1
 63 0 l 1
 178 540 l 1
60 -60 m 1
 182 -60 l 1
 161 -156 l 1
 151 -234 84 -301 8 -307 c 1
 18 -261 l 1
 62 -253 97 -217 103 -172 c 1
 36 -172 l 1
 60 -60 l 1
EndSplineSet
EndChar
StartChar: Rcaron
Encoding: 344 344
Width: 722
Flags: W
HStem: 0 21G<80 230 518 677> 289 125<319 480> 604 125<358 550> 789 147<456 463>
VStem: 510.003 154.997<41 61> 547.993 148.007<234 270> 635.993 149.007<534 579>
DStem: 235 729 358 604 80 0 318 414 235 729 291 289 80 0 230 0
Fore
291 289 m 1
 230 0 l 1
 80 0 l 1
 235 729 l 1
 612 729 l 2
 670 729 710 715 742 683 c 0
 769 656 785 617 785 579 c 0
 785 523 760 460 721 420 c 0
 697 395 671 378 618 352 c 1
 670 335 696 308 696 270 c 0
 696 245 691 210 668 87 c 0
 666 77 665 67 665 61 c 0
 665 47 670 37 683 27 c 1
 677 0 l 1
 518 0 l 1
 512 19 510 29 510 41 c 0
 510 67 517 104 536 173 c 0
 545 209 548 222 548 234 c 0
 548 271 520 289 463 289 c 2
 291 289 l 1
318 414 m 1
 499 414 l 2
 549 414 580 426 606 455 c 0
 624 475 636 506 636 534 c 0
 636 553 628 570 614 583 c 1
 595 598 572 604 526 604 c 2
 358 604 l 1
 318 414 l 1
564 789 m 1
 456 789 l 1
 385 936 l 1
 463 936 l 1
 524 839 l 1
 627 936 l 1
 703 936 l 1
 564 789 l 1
EndSplineSet
EndChar
StartChar: rcaron
Encoding: 345 345
Width: 389
Flags: W
HStem: 0 21G<63 203> 520 20G<178 318> 610 147<286 293>
DStem: 178 540 318 540 63 0 295 434 178 540 487 548 63 0 457 406 178 540 264 287 63 0 203 0
Fore
178 540 m 1
 318 540 l 1
 295 434 l 1
 342 507 406 549 470 549 c 0
 474 549 479 549 487 548 c 1
 457 406 l 1
 439 409 429 410 414 410 c 0
 332 410 281 369 264 287 c 1
 203 0 l 1
 63 0 l 1
 178 540 l 1
394 610 m 1
 286 610 l 1
 215 757 l 1
 293 757 l 1
 354 660 l 1
 457 757 l 1
 533 757 l 1
 394 610 l 1
EndSplineSet
EndChar
StartChar: Sacute
Encoding: 346 346
Width: 667
Flags: W
HStem: -23 128<344 369> 613 128<444 473>
VStem: 76.2509 147.749<174 196> 151.002 148.998<472 509> 537.995 149.005<216 265> 578.995 146.005<530 569>
Fore
717 507 m 1
 577 507 l 1
 578 516 579 525 579 530 c 0
 579 584 532 613 447 613 c 0
 356 613 300 573 300 509 c 0
 300 471 327 455 421 436 c 2
 530 414 l 2
 632 394 687 342 687 265 c 0
 687 199 660 126 618 79 c 0
 560 12 467 -23 345 -23 c 0
 249 -23 180 -2 132 42 c 0
 96 75 76 122 76 174 c 0
 76 188 77 198 80 218 c 1
 226 218 l 1
 225 209 224 200 224 196 c 0
 224 138 276 105 367 105 c 0
 471 105 538 149 538 216 c 0
 538 262 509 283 418 301 c 2
 320 321 l 2
 201 345 151 389 151 472 c 0
 151 543 186 618 243 667 c 0
 300 717 376 741 473 741 c 0
 631 741 725 677 725 569 c 0
 725 549 723 535 717 507 c 1
649 936 m 1
 491 786 l 1
 421 786 l 1
 522 936 l 1
 649 936 l 1
EndSplineSet
EndChar
StartChar: sacute
Encoding: 347 347
Width: 556
Flags: W
HStem: -22.6508 111.651<300 309> 437 111.337<363 380>
VStem: 127.004 148.996<345 384> 410.992 148.008<144 187> 451.272 137.299<385 404>
Fore
584 366 m 1
 449 366 l 1
 451 375 452 379 452 385 c 0
 452 417 419 437 364 437 c 0
 311 437 276 416 276 384 c 0
 276 364 290 354 341 339 c 2
 437 311 l 2
 520 286 559 247 559 187 c 0
 559 59 451 -23 281 -23 c 0
 219 -23 172 -13 133 10 c 0
 89 35 60 82 60 127 c 0
 60 136 61 142 64 157 c 1
 201 157 l 1
 202 134 208 123 222 111 c 0
 241 97 272 89 307 89 c 0
 368 89 411 112 411 144 c 0
 411 167 398 176 335 196 c 2
 256 221 l 2
 168 250 127 289 127 345 c 0
 127 395 155 452 198 490 c 0
 241 528 308 549 387 549 c 0
 513 549 589 494 589 404 c 0
 589 393 588 384 584 366 c 1
570 757 m 1
 412 607 l 1
 342 607 l 1
 444 757 l 1
 570 757 l 1
EndSplineSet
EndChar
StartChar: Scedilla
Encoding: 350 350
Width: 667
Flags: W
HStem: -220 50<268 284> -23 128<348 369> 613 128<444 473>
VStem: 76.9941 147.006<174 196> 151.002 148.998<472 509> 340 86.0327<-127 -124> 537.995 149.005<216 265> 578.995 146.005<530 569>
Fore
347 -23 m 1
 320 -62 l 1
 335 -58 349 -56 364 -56 c 0
 403 -56 427 -77 427 -113 c 0
 427 -178 367 -220 277 -220 c 0
 232 -220 200 -213 144 -191 c 1
 174 -140 l 1
 221 -163 244 -170 273 -170 c 0
 310 -170 340 -150 340 -126 c 0
 340 -106 322 -93 296 -93 c 0
 279 -93 267 -96 243 -106 c 1
 298 -22 l 1
 220 -10 189 -1 156 22 c 0
 104 58 76 112 76 174 c 0
 76 188 77 198 80 218 c 1
 226 218 l 1
 225 209 224 200 224 196 c 0
 224 138 276 105 367 105 c 0
 471 105 538 149 538 216 c 0
 538 262 509 283 418 301 c 2
 320 321 l 2
 201 345 151 389 151 472 c 0
 151 543 186 618 243 667 c 0
 300 717 376 741 473 741 c 0
 631 741 725 677 725 569 c 0
 725 549 723 535 717 507 c 1
 577 507 l 1
 578 516 579 525 579 530 c 0
 579 584 532 613 447 613 c 0
 356 613 300 573 300 509 c 0
 300 471 327 455 421 436 c 2
 530 414 l 2
 632 394 687 342 687 265 c 0
 687 182 647 96 586 48 c 0
 525 0 451 -22 347 -23 c 1
EndSplineSet
EndChar
StartChar: scedilla
Encoding: 351 351
Width: 556
Flags: W
HStem: -220 50<197 224> -22 111<289 316> 437 111.337<363 380>
VStem: 127.004 148.996<345 384> 281 86.0327<-127 -124> 410.992 148.008<144 187> 451.901 136.146<385 404>
DStem: 238 -21 288 -22 184 -106 262 -62
Fore
288 -22 m 1
 262 -62 l 1
 277 -58 290 -56 305 -56 c 0
 344 -56 368 -77 368 -113 c 0
 368 -178 308 -220 218 -220 c 0
 173 -220 142 -213 85 -191 c 1
 115 -140 l 1
 162 -163 185 -170 213 -170 c 0
 251 -170 281 -150 281 -126 c 0
 281 -106 263 -93 237 -93 c 0
 220 -93 208 -96 184 -106 c 1
 238 -21 l 1
 215 -21 191 -15 159 -2 c 0
 99 21 60 72 60 127 c 0
 60 135 61 143 64 157 c 1
 201 157 l 1
 202 134 208 123 222 111 c 0
 241 97 272 89 307 89 c 0
 368 89 411 112 411 144 c 0
 411 167 398 176 335 196 c 2
 256 221 l 2
 168 250 127 289 127 345 c 0
 127 395 155 452 198 490 c 0
 241 528 308 549 387 549 c 0
 513 549 589 494 589 404 c 0
 589 393 588 384 584 366 c 1
 449 366 l 1
 451 375 452 379 452 385 c 0
 452 417 419 437 364 437 c 0
 311 437 276 416 276 384 c 0
 276 364 290 354 341 339 c 2
 437 311 l 2
 520 286 559 247 559 187 c 0
 559 60 454 -22 288 -22 c 1
EndSplineSet
EndChar
StartChar: Scaron
Encoding: 352 352
Width: 667
Flags: W
HStem: -23 128<344 369> 613 128<444 473> 789 147<429 436>
VStem: 76.2509 147.749<174 196> 151.002 148.998<472 509> 537.995 149.005<216 265> 578.995 146.005<530 569>
Fore
537 789 m 1
 429 789 l 1
 358 936 l 1
 436 936 l 1
 497 839 l 1
 600 936 l 1
 676 936 l 1
 537 789 l 1
717 507 m 1
 577 507 l 1
 578 516 579 525 579 530 c 0
 579 584 532 613 447 613 c 0
 356 613 300 573 300 509 c 0
 300 471 327 455 421 436 c 2
 530 414 l 2
 632 394 687 342 687 265 c 0
 687 199 660 126 618 79 c 0
 560 12 467 -23 345 -23 c 0
 249 -23 180 -2 132 42 c 0
 96 75 76 122 76 174 c 0
 76 188 77 198 80 218 c 1
 226 218 l 1
 225 209 224 200 224 196 c 0
 224 138 276 105 367 105 c 0
 471 105 538 149 538 216 c 0
 538 262 509 283 418 301 c 2
 320 321 l 2
 201 345 151 389 151 472 c 0
 151 543 186 618 243 667 c 0
 300 717 376 741 473 741 c 0
 631 741 725 677 725 569 c 0
 725 549 723 535 717 507 c 1
EndSplineSet
EndChar
StartChar: scaron
Encoding: 353 353
Width: 556
Flags: W
HStem: -22.6508 111.651<300 309> 437 111.026<358 380> 610 147<350 357>
VStem: 127.004 148.996<345 384> 410.992 148.008<144 187> 451.272 137.299<385 404>
Fore
584 366 m 1
 449 366 l 1
 451 375 452 379 452 385 c 0
 452 417 419 437 364 437 c 0
 311 437 276 416 276 384 c 0
 276 364 290 354 341 339 c 2
 437 311 l 2
 520 286 559 247 559 187 c 0
 559 59 451 -23 281 -23 c 0
 219 -23 172 -13 133 10 c 0
 89 35 60 82 60 127 c 0
 60 136 61 142 64 157 c 1
 201 157 l 1
 202 134 208 123 222 111 c 0
 241 97 272 89 307 89 c 0
 368 89 411 112 411 144 c 0
 411 167 398 176 335 196 c 2
 256 221 l 2
 168 250 127 289 127 345 c 0
 127 395 155 452 198 490 c 0
 241 528 308 549 387 549 c 0
 513 549 589 494 589 404 c 0
 589 393 588 384 584 366 c 1
458 610 m 1
 350 610 l 1
 279 757 l 1
 357 757 l 1
 418 660 l 1
 521 757 l 1
 597 757 l 1
 458 610 l 1
EndSplineSet
EndChar
StartChar: Tcaron
Encoding: 356 356
Width: 611
Flags: W
HStem: 0 21G<235 385> 604 125<169 363 514 726> 789 147<424 431>
DStem: 169 729 514 604 142 604 385 0 364 604 514 604 235 0 385 0
Fore
514 604 m 1
 385 0 l 1
 235 0 l 1
 364 604 l 1
 142 604 l 1
 169 729 l 1
 753 729 l 1
 726 604 l 1
 514 604 l 1
532 789 m 1
 424 789 l 1
 353 936 l 1
 431 936 l 1
 492 839 l 1
 595 936 l 1
 671 936 l 1
 532 789 l 1
EndSplineSet
MinimumDistance: x0,-1 
EndChar
StartChar: tcaron
Encoding: 357 357
Width: 404
Flags: W
HStem: 436 93<127 175 337 394> 436 238<316 336> 717 112<456 498>
DStem: 127 529 414 529 107 436 394 436 127 529 316 436 107 436 254 142 176 436 316 436 106 104 254 142 227 674 367 674 196 529 336 529 456 829 578 829 432 717 557 733
Fore
414 529 m 1
 394 436 l 1
 316 436 l 1
 254 142 l 1
 250 125 248 113 248 108 c 0
 248 93 263 83 286 83 c 0
 297 83 305 84 319 86 c 1
 299 -12 l 1
 271 -20 247 -23 214 -23 c 0
 141 -23 101 8 101 63 c 0
 101 76 103 90 106 104 c 2
 176 436 l 1
 107 436 l 1
 127 529 l 1
 196 529 l 1
 227 674 l 1
 367 674 l 1
 336 529 l 1
 414 529 l 1
456 829 m 1
 578 829 l 1
 557 733 l 1
 547 655 480 588 404 582 c 1
 414 628 l 1
 458 636 493 672 499 717 c 1
 432 717 l 1
 456 829 l 1
EndSplineSet
EndChar
StartChar: Tbar
Encoding: 358 358
Width: 611
Flags: W
HStem: 0 21G<235 385> 604 125<169 363 514 726>
DStem: 169 729 514 604 142 604 385 0 364 604 514 604 235 0 385 0
Fore
514 604 m 1
 385 0 l 1
 235 0 l 1
 364 604 l 1
 142 604 l 1
 169 729 l 1
 753 729 l 1
 726 604 l 1
 514 604 l 1
EndSplineSet
MinimumDistance: x0,-1 
EndChar
StartChar: tbar
Encoding: 359 359
Width: 333
Flags: W
HStem: 436 93<127 175 337 394> 436 238<316 336>
DStem: 127 529 414 529 107 436 394 436 127 529 316 436 107 436 254 142 176 436 316 436 106 104 254 142 227 674 367 674 196 529 336 529
Fore
414 529 m 1
 394 436 l 1
 316 436 l 1
 254 142 l 1
 250 125 248 113 248 108 c 0
 248 93 263 83 286 83 c 0
 297 83 305 84 319 86 c 1
 299 -12 l 1
 271 -20 247 -23 214 -23 c 0
 141 -23 101 8 101 63 c 0
 101 76 103 90 106 104 c 2
 176 436 l 1
 107 436 l 1
 127 529 l 1
 196 529 l 1
 227 674 l 1
 367 674 l 1
 336 529 l 1
 414 529 l 1
EndSplineSet
EndChar
StartChar: Umacron
Encoding: 362 362
Width: 722
Flags: W
HStem: -22.9091 127.909<375 395> 709 20G<231 381 659 809> 821 80<407 690>
VStem: 119.706 151.43<167 190>
DStem: 231 729 381 729 130 255 276 235 659 729 809 729 554 235 704 235
Fore
659 729 m 1
 809 729 l 1
 704 235 l 1
 686 152 654 96 597 51 c 0
 536 3 454 -23 366 -23 c 0
 215 -23 119 51 119 167 c 0
 119 189 123 222 130 255 c 2
 231 729 l 1
 381 729 l 1
 276 235 l 1
 273 219 271 205 271 190 c 0
 271 137 316 105 394 105 c 0
 485 105 535 145 554 235 c 2
 659 729 l 1
707 901 m 1
 690 821 l 1
 390 821 l 1
 407 901 l 1
 707 901 l 1
EndSplineSet
EndChar
StartChar: umacron
Encoding: 363 363
Width: 611
Flags: W
HStem: 0 21G<401 541> 520 20G<174 314 516 656> 642 80<304 587>
VStem: 88.0021 149.998<109 164>
DStem: 174 540 314 540 94 164 244 213 416 68 656 540 401 0 541 0 516 540 656 540 448 222 541 0
Fore
541 0 m 1
 401 0 l 1
 416 68 l 1
 362 4 308 -23 234 -23 c 0
 146 -23 88 29 88 109 c 0
 88 127 90 145 94 164 c 2
 174 540 l 1
 314 540 l 1
 244 213 l 1
 240 190 238 178 238 164 c 0
 238 115 264 89 314 89 c 0
 379 89 431 141 448 222 c 1
 516 540 l 1
 656 540 l 1
 541 0 l 1
604 722 m 1
 587 642 l 1
 287 642 l 1
 304 722 l 1
 604 722 l 1
EndSplineSet
EndChar
StartChar: Uring
Encoding: 366 366
Width: 722
Flags: W
HStem: -22.9091 127.909<375 395> 709 20G<231 381 659 809> 773.328 49.6722<535 540> 903 49.1372<554 559>
VStem: 119.706 151.43<167 190> 455.551 48.4494<854 857> 590 48.3339<871 874>
DStem: 231 729 381 729 130 255 276 235 659 729 809 729 554 235 704 235
Fore
659 729 m 1
 809 729 l 1
 704 235 l 1
 686 152 654 96 597 51 c 0
 536 3 454 -23 366 -23 c 0
 215 -23 119 51 119 167 c 0
 119 189 123 222 130 255 c 2
 231 729 l 1
 381 729 l 1
 276 235 l 1
 273 219 271 205 271 190 c 0
 271 137 316 105 394 105 c 0
 485 105 535 145 554 235 c 2
 659 729 l 1
567 953 m 0
 609 953 639 923 639 882 c 0
 639 825 585 773 527 773 c 0
 485 773 455 803 455 844 c 0
 455 901 509 953 567 953 c 0
557 903 m 0
 530 903 504 880 504 855 c 0
 504 837 518 823 538 823 c 0
 565 823 590 847 590 872 c 0
 590 890 576 903 557 903 c 0
EndSplineSet
EndChar
StartChar: uring
Encoding: 367 367
Width: 611
Flags: W
HStem: 0 21G<401 541> 520 20G<174 314 516 656> 593.511 49.4887<435 438> 723 49.3817<454 457>
VStem: 88.0021 149.998<109 164> 353.551 48.4494<674 677> 488 48.3339<691 697>
DStem: 174 540 314 540 94 164 244 213 416 68 656 540 401 0 541 0 516 540 656 540 448 222 541 0
Fore
541 0 m 1
 401 0 l 1
 416 68 l 1
 362 4 308 -23 234 -23 c 0
 146 -23 88 29 88 109 c 0
 88 127 90 145 94 164 c 2
 174 540 l 1
 314 540 l 1
 244 213 l 1
 240 190 238 178 238 164 c 0
 238 115 264 89 314 89 c 0
 379 89 431 141 448 222 c 1
 516 540 l 1
 656 540 l 1
 541 0 l 1
465 773 m 0
 507 773 537 743 537 702 c 0
 537 645 483 593 425 593 c 0
 383 593 353 623 353 664 c 0
 353 721 407 773 465 773 c 0
455 723 m 0
 428 723 402 700 402 675 c 0
 402 657 416 643 436 643 c 0
 463 643 488 667 488 692 c 0
 488 710 474 723 455 723 c 0
EndSplineSet
EndChar
StartChar: Uhungarumlaut
Encoding: 368 368
Width: 722
Flags: W
HStem: -22.9091 127.909<375 395> 709 20G<231 381 659 809>
VStem: 119.706 151.43<167 190>
DStem: 231 729 381 729 130 255 276 235 659 729 809 729 554 235 704 235
Fore
659 729 m 1
 809 729 l 1
 704 235 l 1
 686 152 654 96 597 51 c 0
 536 3 454 -23 366 -23 c 0
 215 -23 119 51 119 167 c 0
 119 189 123 222 130 255 c 2
 231 729 l 1
 381 729 l 1
 276 235 l 1
 273 219 271 205 271 190 c 0
 271 137 316 105 394 105 c 0
 485 105 535 145 554 235 c 2
 659 729 l 1
608 936 m 1
 450 789 l 1
 380 789 l 1
 482 936 l 1
 608 936 l 1
796 936 m 1
 638 789 l 1
 568 789 l 1
 670 936 l 1
 796 936 l 1
EndSplineSet
EndChar
StartChar: uhungarumlaut
Encoding: 369 369
Width: 611
Flags: W
HStem: 0 21G<401 541> 520 20G<174 314 516 656>
VStem: 88.0021 149.998<109 164>
DStem: 174 540 314 540 94 164 244 213 416 68 656 540 401 0 541 0 516 540 656 540 448 222 541 0
Fore
541 0 m 1
 401 0 l 1
 416 68 l 1
 362 4 308 -23 234 -23 c 0
 146 -23 88 29 88 109 c 0
 88 127 90 145 94 164 c 2
 174 540 l 1
 314 540 l 1
 244 213 l 1
 240 190 238 178 238 164 c 0
 238 115 264 89 314 89 c 0
 379 89 431 141 448 222 c 1
 516 540 l 1
 656 540 l 1
 541 0 l 1
509 757 m 1
 351 610 l 1
 281 610 l 1
 383 757 l 1
 509 757 l 1
697 757 m 1
 539 610 l 1
 469 610 l 1
 571 757 l 1
 697 757 l 1
EndSplineSet
EndChar
StartChar: Uogonek
Encoding: 370 370
Width: 722
Flags: W
HStem: -233 50<482 503> -22.9487 127.949<375 396> 709 20G<231 381 659 809>
VStem: 119.57 151.7<167 190> 342.005 99.9954<-157 -139>
DStem: 231 729 381 729 130 255 276 235 659 729 809 729 554 235 704 235
Fore
569 -172 m 1
 558 -224 l 1
 528 -230 506 -233 482 -233 c 0
 393 -233 342 -205 342 -157 c 0
 342 -123 358 -88 389 -60 c 0
 405 -45 431 -29 473 -10 c 1
 423 -20 400 -23 368 -23 c 0
 215 -23 119 50 119 167 c 0
 119 189 123 222 130 255 c 2
 231 729 l 1
 381 729 l 1
 276 235 l 1
 273 219 271 205 271 190 c 0
 271 137 316 105 394 105 c 0
 485 105 535 145 554 235 c 2
 659 729 l 1
 809 729 l 1
 704 235 l 1
 682 138 649 87 571 28 c 0
 512 -18 496 -33 474 -63 c 0
 452 -93 442 -117 442 -139 c 0
 442 -169 460 -183 498 -183 c 0
 524 -183 548 -179 569 -172 c 1
EndSplineSet
EndChar
StartChar: uogonek
Encoding: 371 371
Width: 611
Flags: W
HStem: -233 50<455 472> -23 563<216 238>
VStem: 88.0021 149.998<109 164> 317.018 98.9821<-152 -140>
DStem: 174 540 314 540 94 164 244 213 416 68 656 540 401 0 541 0 516 540 656 540 448 222 541 0
Fore
656 540 m 1
 541 0 l 1
 461 -41 416 -92 416 -142 c 0
 416 -169 434 -183 469 -183 c 0
 491 -183 515 -179 537 -172 c 1
 526 -224 l 1
 483 -233 482 -233 456 -233 c 0
 364 -233 317 -206 317 -154 c 0
 317 -94 365 -45 466 0 c 1
 401 0 l 1
 416 68 l 1
 362 4 308 -23 234 -23 c 0
 146 -23 88 29 88 109 c 0
 88 127 90 145 94 164 c 2
 174 540 l 1
 314 540 l 1
 244 213 l 1
 240 190 238 178 238 164 c 0
 238 115 264 89 314 89 c 0
 379 89 431 141 448 222 c 1
 516 540 l 1
 656 540 l 1
EndSplineSet
EndChar
StartChar: Ydieresis
Encoding: 376 376
Width: 667
Flags: W
HStem: 0 21G<269 419> 709 20G<182 349 638 805> 800 120<385 469 571 655>
DStem: 327 270 477 270 269 0 419 0 385 920 495 920 359 800 469 800 571 920 681 920 545 800 655 800
Fore
477 270 m 1
 419 0 l 1
 269 0 l 1
 327 270 l 1
 182 729 l 1
 349 729 l 1
 431 414 l 1
 638 729 l 1
 805 729 l 1
 477 270 l 1
495 920 m 1
 469 800 l 1
 359 800 l 1
 385 920 l 1
 495 920 l 1
681 920 m 1
 655 800 l 1
 545 800 l 1
 571 920 l 1
 681 920 l 1
EndSplineSet
EndChar
StartChar: Zacute
Encoding: 377 377
Width: 611
Flags: W
HStem: 0 125<233 578> 604 125<185 530>
DStem: 531 604 706 604 57 125 232 125
Fore
733 729 m 1
 706 604 l 1
 232 125 l 1
 605 125 l 1
 578 0 l 1
 30 0 l 1
 57 125 l 1
 531 604 l 1
 158 604 l 1
 185 729 l 1
 733 729 l 1
624 936 m 1
 466 786 l 1
 396 786 l 1
 498 936 l 1
 624 936 l 1
EndSplineSet
EndChar
StartChar: zacute
Encoding: 378 378
Width: 500
Flags: W
HStem: 0 113<220 469> 427 113<154 378>
DStem: 379 427 551 427 45 113 219 113
Fore
575 540 m 1
 551 427 l 1
 219 113 l 1
 493 113 l 1
 469 0 l 1
 21 0 l 1
 45 113 l 1
 379 427 l 1
 130 427 l 1
 154 540 l 1
 575 540 l 1
542 757 m 1
 384 607 l 1
 314 607 l 1
 416 757 l 1
 542 757 l 1
EndSplineSet
EndChar
StartChar: Zdotaccent
Encoding: 379 379
Width: 611
Flags: W
HStem: 0 125<233 578> 604 125<185 530> 798 120<439 523>
DStem: 439 918 549 918 413 798 523 798 531 604 706 604 57 125 232 125
Fore
733 729 m 1
 706 604 l 1
 232 125 l 1
 605 125 l 1
 578 0 l 1
 30 0 l 1
 57 125 l 1
 531 604 l 1
 158 604 l 1
 185 729 l 1
 733 729 l 1
549 918 m 1
 523 798 l 1
 413 798 l 1
 439 918 l 1
 549 918 l 1
EndSplineSet
EndChar
StartChar: zdotaccent
Encoding: 380 380
Width: 500
Flags: W
HStem: 0 113<220 469> 427 113<154 378> 621 120<354 438>
DStem: 354 741 464 741 328 621 438 621 379 427 551 427 45 113 219 113
Fore
575 540 m 1
 551 427 l 1
 219 113 l 1
 493 113 l 1
 469 0 l 1
 21 0 l 1
 45 113 l 1
 379 427 l 1
 130 427 l 1
 154 540 l 1
 575 540 l 1
464 741 m 1
 438 621 l 1
 328 621 l 1
 354 741 l 1
 464 741 l 1
EndSplineSet
EndChar
StartChar: Zcaron
Encoding: 381 381
Width: 611
Flags: W
HStem: 0 125<233 578> 604 125<185 530> 789 147<415 422>
DStem: 531 604 706 604 57 125 232 125
Fore
733 729 m 1
 706 604 l 1
 232 125 l 1
 605 125 l 1
 578 0 l 1
 30 0 l 1
 57 125 l 1
 531 604 l 1
 158 604 l 1
 185 729 l 1
 733 729 l 1
523 789 m 1
 415 789 l 1
 344 936 l 1
 422 936 l 1
 483 839 l 1
 586 936 l 1
 662 936 l 1
 523 789 l 1
EndSplineSet
EndChar
StartChar: zcaron
Encoding: 382 382
Width: 500
Flags: W
HStem: 0 113<220 469> 427 113<154 378> 610 147<327 334>
DStem: 379 427 551 427 45 113 219 113
Fore
575 540 m 1
 551 427 l 1
 219 113 l 1
 493 113 l 1
 469 0 l 1
 21 0 l 1
 45 113 l 1
 379 427 l 1
 130 427 l 1
 154 540 l 1
 575 540 l 1
435 610 m 1
 327 610 l 1
 256 757 l 1
 334 757 l 1
 395 660 l 1
 498 757 l 1
 574 757 l 1
 435 610 l 1
EndSplineSet
EndChar
StartChar: longs
Encoding: 383 383
Width: 333
Flags: W
HStem: 0 21G<90 230> 436 93<126 182> 625 103.95<394 410>
DStem: 126 529 354 582 106 436 230 0 183 436 354 582 90 0 230 0 216 594 354 582 202 529 230 0
Fore
230 0 m 1
 90 0 l 1
 183 436 l 1
 106 436 l 1
 126 529 l 1
 202 529 l 1
 216 594 l 2
 236 687 289 729 387 729 c 0
 405 729 422 728 464 726 c 1
 442 621 l 1
 415 624 410 625 400 625 c 0
 375 625 360 611 354 582 c 1
 230 0 l 1
EndSplineSet
EndChar
StartChar: florin
Encoding: 402 402
Width: 556
Flags: W
HStem: -219.753 115.753<75 82> 383 100<207 308 481 582> 629 115<583 605>
DStem: 309 383 445 383 170 7 305 1
Fore
603 483 m 1
 582 383 l 1
 445 383 l 1
 305 1 l 2
 274 -84 242 -137 200 -172 c 0
 165 -202 114 -220 65 -220 c 0
 33 -220 8 -214 -21 -198 c 1
 28 -83 l 1
 45 -96 64 -104 80 -104 c 0
 116 -104 139 -76 170 7 c 2
 309 383 l 1
 186 383 l 1
 207 483 l 1
 345 483 l 1
 368 542 l 2
 422 681 493 744 598 744 c 0
 629 744 650 740 690 727 c 1
 646 613 l 1
 621 626 610 629 594 629 c 0
 555 629 522 594 495 524 c 1
 480 483 l 1
 603 483 l 1
EndSplineSet
MinimumDistance: x2,-1 
EndChar
StartChar: Scommaaccent
Encoding: 536 536
Width: 667
Flags: W
HStem: -172 112<272 314> -23 128<344 375> 613 128<444 473>
VStem: 76.4884 147.512<174 196> 151.002 148.998<472 509> 537.995 149.005<216 265> 578.995 146.005<530 569>
DStem: 272 -60 393 -60 248 -172 373 -156
Fore
717 507 m 1
 577 507 l 1
 578 516 579 525 579 530 c 0
 579 584 532 613 447 613 c 0
 356 613 300 573 300 509 c 0
 300 471 327 455 421 436 c 2
 530 414 l 2
 632 394 687 342 687 265 c 0
 687 199 660 126 618 79 c 0
 560 12 467 -23 345 -23 c 0
 249 -23 180 -2 132 42 c 0
 96 75 76 122 76 174 c 0
 76 188 77 198 80 218 c 1
 226 218 l 1
 225 209 224 200 224 196 c 0
 224 138 276 105 367 105 c 0
 471 105 538 149 538 216 c 0
 538 262 509 283 418 301 c 2
 320 321 l 2
 201 345 151 389 151 472 c 0
 151 543 186 618 243 667 c 0
 300 717 376 741 473 741 c 0
 631 741 725 677 725 569 c 0
 725 549 723 535 717 507 c 1
272 -60 m 1
 393 -60 l 1
 373 -156 l 1
 362 -234 295 -301 219 -307 c 1
 229 -261 l 1
 274 -253 309 -216 315 -172 c 1
 248 -172 l 1
 272 -60 l 1
EndSplineSet
EndChar
StartChar: scommaaccent
Encoding: 537 537
Width: 556
Flags: W
HStem: -172 112<210 252> -22.6508 111.651<300 312> 437 111.337<363 380>
VStem: 127.004 148.996<345 384> 410.992 148.008<144 187> 451.989 137.011<385 404>
DStem: 210 -60 332 -60 186 -172 311 -156
Fore
584 366 m 1
 449 366 l 1
 451 375 452 379 452 385 c 0
 452 417 419 437 364 437 c 0
 311 437 276 416 276 384 c 0
 276 364 290 354 341 339 c 2
 437 311 l 2
 520 286 559 247 559 187 c 0
 559 59 451 -23 281 -23 c 0
 219 -23 172 -13 133 10 c 0
 89 35 60 82 60 127 c 0
 60 136 61 142 64 157 c 1
 201 157 l 1
 202 134 208 123 222 111 c 0
 241 97 272 89 307 89 c 0
 368 89 411 112 411 144 c 0
 411 167 398 176 335 196 c 2
 256 221 l 2
 168 250 127 289 127 345 c 0
 127 395 155 452 198 490 c 0
 241 528 308 549 387 549 c 0
 513 549 589 494 589 404 c 0
 589 393 588 384 584 366 c 1
210 -60 m 1
 332 -60 l 1
 311 -156 l 1
 301 -234 234 -301 158 -307 c 1
 168 -261 l 1
 212 -253 247 -217 253 -172 c 1
 186 -172 l 1
 210 -60 l 1
EndSplineSet
EndChar
StartChar: Tcommaaccent
Encoding: 538 538
Width: 611
Flags: W
HStem: -172 112<237 279> 0 21G<235 385> 604 125<169 363 514 726>
DStem: 169 729 514 604 142 604 385 0 237 -60 359 -60 213 -172 338 -156 364 604 514 604 235 0 385 0
Fore
514 604 m 1
 385 0 l 1
 235 0 l 1
 364 604 l 1
 142 604 l 1
 169 729 l 1
 753 729 l 1
 726 604 l 1
 514 604 l 1
237 -60 m 1
 359 -60 l 1
 338 -156 l 1
 328 -234 261 -301 185 -307 c 1
 195 -261 l 1
 239 -253 274 -217 280 -172 c 1
 213 -172 l 1
 237 -60 l 1
EndSplineSet
MinimumDistance: x0,-1 
EndChar
StartChar: tcommaaccent
Encoding: 539 539
Width: 333
Flags: W
HStem: -172 112<114 156> 436 93<126 175 337 394> 436 238<316 336>
DStem: 114 -60 236 -60 90 -172 215 -156 126 529 316 436 107 436 253 142 176 436 316 436 106 104 253 142 227 674 367 674 196 529 336 529
Fore
414 529 m 1
 394 436 l 1
 316 436 l 1
 253 142 l 1
 250 125 248 113 248 108 c 0
 248 93 263 83 286 83 c 0
 296 83 305 84 319 86 c 1
 298 -12 l 1
 271 -20 247 -23 214 -23 c 0
 141 -23 101 8 101 63 c 0
 101 77 102 90 106 104 c 1
 176 436 l 1
 107 436 l 1
 126 529 l 1
 196 529 l 1
 227 674 l 1
 367 674 l 1
 336 529 l 1
 414 529 l 1
114 -60 m 1
 236 -60 l 1
 215 -156 l 1
 205 -234 138 -301 62 -307 c 1
 72 -261 l 1
 116 -253 151 -217 157 -172 c 1
 90 -172 l 1
 114 -60 l 1
EndSplineSet
EndChar
StartChar: circumflex
Encoding: 710 710
Width: 333
Flags: W
HStem: 610 147<375 382>
Fore
274 757 m 1
 382 757 l 1
 453 610 l 1
 375 610 l 1
 314 707 l 1
 211 610 l 1
 135 610 l 1
 274 757 l 1
EndSplineSet
EndChar
StartChar: caron
Encoding: 711 711
Width: 333
Flags: W
HStem: 610 147<238 245>
Fore
346 610 m 1
 238 610 l 1
 167 757 l 1
 245 757 l 1
 306 660 l 1
 409 757 l 1
 485 757 l 1
 346 610 l 1
EndSplineSet
EndChar
StartChar: breve
Encoding: 728 728
Width: 333
Flags: W
HStem: 611 78<294 311>
VStem: 188.002 47.9976<715 746>
Fore
413 754 m 1
 455 754 l 1
 441 672 373 611 294 611 c 0
 231 611 188 653 188 715 c 0
 188 727 189 736 194 754 c 1
 236 754 l 1
 236 746 l 2
 236 710 263 689 310 689 c 0
 361 689 396 711 413 754 c 1
EndSplineSet
MinimumDistance: x5,-1 
EndChar
StartChar: dotaccent
Encoding: 729 729
Width: 333
Flags: W
HStem: 621 120<267 351>
DStem: 267 741 377 741 241 621 351 621
Fore
377 741 m 1
 351 621 l 1
 241 621 l 1
 267 741 l 1
 377 741 l 1
EndSplineSet
EndChar
StartChar: ring
Encoding: 730 730
Width: 333
Flags: W
HStem: 593.328 49.6722<294 299> 723 49.3817<315 318>
VStem: 214.446 48.5538<673 677> 349 48.0705<689 694>
Fore
326 773 m 0
 368 773 398 743 398 702 c 0
 398 645 344 593 286 593 c 0
 244 593 214 623 214 664 c 0
 214 721 268 773 326 773 c 0
316 723 m 0
 289 723 263 700 263 675 c 0
 263 657 277 643 297 643 c 0
 324 643 349 667 349 692 c 0
 349 710 335 723 316 723 c 0
EndSplineSet
EndChar
StartChar: ogonek
Encoding: 731 731
Width: 333
Flags: W
HStem: -233 50<159 176> -20 20G<174 248>
VStem: 23.0752 99.9248<-153 -143>
Fore
174 0 m 1
 248 0 l 1
 182 -38 176 -42 157 -66 c 0
 134 -95 123 -120 123 -143 c 0
 123 -169 140 -183 173 -183 c 0
 199 -183 224 -179 244 -172 c 1
 234 -224 l 1
 202 -230 181 -233 157 -233 c 0
 74 -233 23 -204 23 -157 c 0
 23 -115 48 -72 90 -43 c 0
 114 -26 133 -17 174 0 c 1
EndSplineSet
MinimumDistance: x3,-1 
EndChar
StartChar: tilde
Encoding: 732 732
Width: 333
Flags: W
HStem: 622.005 70.9951<367 392> 672 68.0328<222 238>
Fore
446 744 m 1
 500 744 l 1
 489 705 478 683 459 663 c 0
 434 637 399 622 367 622 c 0
 350 622 329 627 316 633 c 2
 266 658 l 2
 251 665 230 672 222 672 c 0
 204 672 188 657 171 624 c 1
 117 624 l 1
 140 699 184 741 238 741 c 0
 263 741 277 738 309 724 c 2
 359 703 l 2
 378 694 380 693 392 693 c 0
 415 693 432 710 446 744 c 1
EndSplineSet
EndChar
StartChar: hungarumlaut
Encoding: 733 733
Width: 333
Flags: W
Fore
310 757 m 1
 152 610 l 1
 82 610 l 1
 184 757 l 1
 310 757 l 1
498 757 m 1
 340 610 l 1
 270 610 l 1
 372 757 l 1
 498 757 l 1
EndSplineSet
EndChar
StartChar: dieresistonos
Encoding: 901 901
Width: 494
Flags: W
HStem: 403 150<45 149 227 331>
DStem: 45 553 187 553 7 403 149 403 227 553 369 553 189 403 331 403
Fore
477 745 m 1
 275 557 l 1
 153 557 l 1
 290 745 l 1
 477 745 l 1
331 403 m 1
 189 403 l 1
 227 553 l 1
 369 553 l 1
 331 403 l 1
149 403 m 1
 7 403 l 1
 45 553 l 1
 187 553 l 1
 149 403 l 1
EndSplineSet
MinimumDistance: x7,-1 
EndChar
StartChar: Alphatonos
Encoding: 902 902
Width: 764
Flags: W
HStem: 193 126<254 422> 193 548<423 440> 719 20G<152 339>
DStem: 373 741 362 496 -113 -25 253 319 373 741 175 193 -113 -25 43 -25
Fore
630 -25 m 1
 470 -25 l 1
 440 193 l 1
 175 193 l 1
 43 -25 l 1
 -113 -25 l 1
 373 741 l 1
 508 741 l 1
 630 -25 l 1
394 549 m 1
 390 541 379 523 362 496 c 2
 253 319 l 1
 423 319 l 1
 402 483 l 1
 402 486 401 496 399 512 c 0
 397 528 395 540 394 549 c 1
339 739 m 1
 137 551 l 1
 15 551 l 1
 152 739 l 1
 339 739 l 1
EndSplineSet
MinimumDistance: x9,-1 
EndChar
StartChar: anoteleia
Encoding: 903 903
Width: 418
Flags: W
HStem: 201 298<171 245>
Fore
357 350 m 0
 352 327 341 303 324 279 c 0
 306 256 284 237 258 223 c 0
 233 208 204 201 171 201 c 0
 139 201 114 208 97 223 c 1
 77 237 64 256 58 279 c 0
 56 290 55 301 55 312 c 0
 55 325 56 337 59 350 c 0
 65 373 76 397 93 421 c 0
 111 446 133 465 160 479 c 0
 187 492 215 499 245 499 c 0
 276 499 301 492 321 479 c 1
 341 464 354 445 359 421 c 0
 361 410 362 400 362 390 c 0
 362 377 360 363 357 350 c 0
EndSplineSet
EndChar
StartChar: Epsilontonos
Encoding: 904 904
Width: 866
Flags: W
HStem: -25 134<290 696> 303 134<372 734> 607 134<413 837> 719 20G<155 342>
DStem: 303 741 413 607 112 -25 371 437 303 741 767 437 112 -25 734 303 303 741 338 303 112 -25 289 109 303 741 729 109 112 -25 696 -25
Fore
342 739 m 1
 140 551 l 1
 18 551 l 1
 155 739 l 1
 342 739 l 1
696 -25 m 1
 112 -25 l 1
 303 741 l 1
 871 741 l 1
 837 607 l 1
 413 607 l 1
 371 437 l 1
 767 437 l 1
 734 303 l 1
 338 303 l 1
 289 109 l 1
 729 109 l 1
 696 -25 l 1
EndSplineSet
MinimumDistance: x11,-1 
EndChar
StartChar: Etatonos
Encoding: 905 905
Width: 903
Flags: W
HStem: 313 134<371 658> 313 428<337 370> 719 20G<152 339>
DStem: 300 741 444 741 109 -25 370 447 300 741 910 741 109 -25 719 -25 300 741 337 313 109 -25 253 -25 659 313 910 741 575 -25 719 -25 766 741 910 741 692 447 719 -25
Fore
339 739 m 1
 137 551 l 1
 15 551 l 1
 152 739 l 1
 339 739 l 1
719 -25 m 1
 575 -25 l 1
 659 313 l 1
 337 313 l 1
 253 -25 l 1
 109 -25 l 1
 300 741 l 1
 444 741 l 1
 370 447 l 1
 692 447 l 1
 766 741 l 1
 910 741 l 1
 719 -25 l 1
EndSplineSet
EndChar
StartChar: Iotatonos
Encoding: 906 906
Width: 430
Flags: W
DStem: 300 743 444 743 109 -23 253 -23
Fore
341 747 m 1
 139 559 l 1
 17 559 l 1
 154 747 l 1
 341 747 l 1
253 -23 m 1
 109 -23 l 1
 300 743 l 1
 444 743 l 1
 253 -23 l 1
EndSplineSet
EndChar
StartChar: Omicrontonos
Encoding: 908 908
Width: 898
Flags: W
HStem: -51 132<391 424> 631 132<561 594>
VStem: 107 149<222 246> 730 148<467 490>
Fore
334 749 m 1
 132 561 l 1
 10 561 l 1
 147 749 l 1
 334 749 l 1
860 358 m 0
 828 230 769 130 683 58 c 0
 597 -15 500 -51 391 -51 c 0
 282 -51 203 -15 153 58 c 0
 122 102 107 156 107 221 c 0
 107 262 113 308 126 358 c 0
 157 483 216 582 302 654 c 0
 387 727 485 763 594 763 c 0
 703 763 783 727 832 654 c 0
 863 610 878 556 878 491 c 0
 878 450 872 406 860 358 c 0
714 356 m 0
 725 399 730 436 730 468 c 0
 730 511 720 545 701 569 c 0
 667 610 620 631 561 631 c 0
 502 631 446 610 391 569 c 0
 336 527 297 456 272 356 c 0
 261 313 256 276 256 244 c 0
 256 201 266 167 285 143 c 0
 319 102 365 81 424 81 c 0
 483 81 540 102 595 143 c 0
 649 185 689 256 714 356 c 0
EndSplineSet
MinimumDistance: x13,-1 
EndChar
StartChar: Upsilontonos
Encoding: 910 910
Width: 965
Flags: W
HStem: 721 20G<152 339 269 444 848 1020>
DStem: 269 741 444 741 456 296 536 514 456 296 600 296 376 -25 520 -25
Fore
339 741 m 1
 137 553 l 1
 15 553 l 1
 152 741 l 1
 339 741 l 1
1020 741 m 1
 600 296 l 1
 520 -25 l 1
 376 -25 l 1
 456 296 l 1
 269 741 l 1
 444 741 l 1
 536 514 l 1
 554 465 564 437 567 429 c 1
 646 520 l 1
 848 741 l 1
 1020 741 l 1
EndSplineSet
MinimumDistance: x5,-1 
EndChar
StartChar: Omegatonos
Encoding: 911 911
Width: 844
Flags: W
HStem: -25 126<12 133 605 691> 621 126<493 522>
VStem: 73 137<259 285> 661 145<447 478>
DStem: 12 101 325 97 -19 -25 295 -25 397 96 722 101 367 -25 691 -25
Fore
345 745 m 1
 143 557 l 1
 21 557 l 1
 158 745 l 1
 345 745 l 1
691 -25 m 1
 367 -25 l 1
 397 96 l 1
 470 124 527 161 567 207 c 0
 606 254 634 310 651 376 c 2
 653 384 l 2
 658 406 661 427 661 447 c 0
 661 485 652 520 633 552 c 0
 604 598 558 621 493 621 c 0
 430 621 375 598 326 551 c 0
 275 502 240 444 223 375 c 1
 221 368 l 1
 214 337 210 309 210 283 c 0
 210 256 213 232 221 210 c 0
 236 163 270 125 325 97 c 1
 295 -25 l 1
 -19 -25 l 1
 12 101 l 1
 134 101 l 1
 110 128 93 157 83 188 c 0
 76 209 73 233 73 260 c 0
 73 295 78 334 89 377 c 1
 87 379 l 1
 112 476 165 562 248 635 c 1
 331 710 423 747 522 747 c 0
 627 747 705 711 755 639 c 0
 789 591 806 537 806 478 c 0
 806 449 802 419 794 388 c 0
 773 304 742 237 701 187 c 0
 675 156 643 127 604 101 c 1
 722 101 l 1
 691 -25 l 1
EndSplineSet
MinimumDistance: x30,-1 
EndChar
StartChar: iotadieresistonos
Encoding: 912 912
Width: 433
Flags: W
HStem: 525 20G<129 271> 539 150<77 112 270 363>
DStem: 77 689 219 689 39 539 181 539 77 689 401 689 39 539 363 539 129 545 271 545 26 133 183 191 259 689 401 689 221 539 363 539
Fore
509 881 m 1
 307 693 l 1
 185 693 l 1
 322 881 l 1
 509 881 l 1
363 539 m 1
 221 539 l 1
 259 689 l 1
 401 689 l 1
 363 539 l 1
181 539 m 1
 39 539 l 1
 77 689 l 1
 219 689 l 1
 181 539 l 1
264 -1 m 1
 209 -22 165 -33 134 -33 c 0
 85 -33 53 -19 37 9 c 0
 25 31 18 49 17 62 c 0
 16 65 16 68 16 72 c 0
 16 87 19 107 26 133 c 1
 129 545 l 1
 271 545 l 1
 183 191 l 1
 175 162 171 140 171 126 c 0
 171 123 171 121 172 118 c 0
 173 110 177 106 182 106 c 0
 193 106 215 114 248 131 c 1
 264 -1 l 1
EndSplineSet
MinimumDistance: x7,-1 
EndChar
StartChar: Alpha
Encoding: 913 913
Width: 764
Flags: W
HStem: 193 126<254 422> 193 548<423 440>
DStem: 373 741 362 496 -113 -25 253 319 373 741 175 193 -113 -25 43 -25
Fore
630 -25 m 1
 470 -25 l 1
 440 193 l 1
 175 193 l 1
 43 -25 l 1
 -113 -25 l 1
 373 741 l 1
 508 741 l 1
 630 -25 l 1
394 549 m 1
 390 541 379 523 362 496 c 2
 253 319 l 1
 423 319 l 1
 402 483 l 1
 402 486 401 496 399 512 c 0
 397 528 395 540 394 549 c 1
EndSplineSet
MinimumDistance: x9,-1 
EndChar
StartChar: Beta
Encoding: 914 914
Width: 688
Flags: W
HStem: -25 134<132 286> 305 136<215 354> 607 134<255 413>
VStem: 458 153<236 263>
DStem: 145 741 255 607 -46 -25 214 441 145 741 180 305 -46 -25 131 109
Fore
604 212 m 0
 599 191 591 172 582 154 c 0
 555 99 518 57 473 28 c 0
 419 -7 345 -25 251 -25 c 2
 -46 -25 l 1
 145 741 l 1
 438 741 l 2
 483 741 523 735 557 723 c 0
 589 710 613 694 628 674 c 0
 644 653 653 630 655 606 c 0
 656 600 656 594 656 588 c 0
 656 570 654 552 649 534 c 0
 640 497 622 463 595 433 c 0
 578 414 560 398 542 386 c 1
 543 385 548 382 556 377 c 1
 593 346 611 308 611 263 c 0
 611 247 609 230 604 212 c 0
502 522 m 0
 504 531 505 539 505 546 c 0
 505 555 504 563 501 571 c 0
 496 586 486 595 470 599 c 0
 448 604 416 607 374 607 c 2
 255 607 l 1
 214 441 l 1
 345 441 l 2
 386 441 414 443 430 448 c 0
 468 458 492 483 502 522 c 0
454 208 m 0
 457 218 458 227 458 236 c 0
 458 247 456 256 452 264 c 0
 444 278 431 288 414 294 c 0
 396 301 365 305 321 305 c 2
 180 305 l 1
 131 109 l 1
 284 109 l 2
 301 109 312 109 317 110 c 0
 394 116 439 149 454 208 c 0
EndSplineSet
MinimumDistance: x15,-1 
EndChar
StartChar: Gamma
Encoding: 915 915
Width: 642
Flags: W
HStem: 607 134<265 653>
DStem: 153 741 265 607 -38 -25 108 -25
Fore
653 607 m 1
 265 607 l 1
 108 -25 l 1
 -38 -25 l 1
 153 741 l 1
 687 741 l 1
 653 607 l 1
EndSplineSet
MinimumDistance: x1,-1 
EndChar
StartChar: Delta
Encoding: 916 916
Width: 744
Flags: W
HStem: -26 135<121 447>
DStem: 368 741 358 496 -119 -26 121 109
Fore
626 -26 m 1
 486 -23 l 1
 -119 -26 l 1
 368 741 l 1
 503 741 l 1
 626 -26 l 1
447 109 m 1
 397 483 l 2
 391 528 387 559 386 578 c 0
 385 587 383 606 382 635 c 1
 432 638 l 1
 423 616 412 592 398 566 c 0
 388 547 375 524 358 496 c 2
 121 109 l 1
 447 109 l 1
EndSplineSet
MinimumDistance: x11,-1 
EndChar
StartChar: Epsilon
Encoding: 917 917
Width: 710
Flags: W
HStem: -25 134<138 544> 303 134<220 582> 607 134<261 685>
DStem: 151 741 261 607 -40 -25 219 437 151 741 615 437 -40 -25 582 303 151 741 186 303 -40 -25 137 109 151 741 577 109 -40 -25 544 -25
Fore
544 -25 m 1
 -40 -25 l 1
 151 741 l 1
 719 741 l 1
 685 607 l 1
 261 607 l 1
 219 437 l 1
 615 437 l 1
 582 303 l 1
 186 303 l 1
 137 109 l 1
 577 109 l 1
 544 -25 l 1
EndSplineSet
MinimumDistance: x7,-1 
EndChar
StartChar: Zeta
Encoding: 918 918
Width: 688
Flags: W
HStem: -25 134<136 531> 607 134<148 481>
DStem: 434 562 680 623 -55 97 147 120 434 562 147 120 -55 97 135 109
Fore
531 -25 m 1
 -85 -25 l 1
 -55 97 l 1
 434 562 l 2
 462 589 478 604 482 607 c 1
 114 607 l 1
 148 741 l 1
 710 741 l 1
 680 623 l 1
 147 120 l 1
 135 109 l 1
 564 109 l 1
 531 -25 l 1
EndSplineSet
MinimumDistance: x8,-1 
EndChar
StartChar: Eta
Encoding: 919 919
Width: 743
Flags: W
HStem: 313 134<207 494> 313 428<173 206>
DStem: 136 741 280 741 -55 -25 206 447 136 741 746 741 -55 -25 555 -25 136 741 173 313 -55 -25 89 -25 495 313 746 741 411 -25 555 -25 602 741 746 741 528 447 555 -25
Fore
555 -25 m 1
 411 -25 l 1
 495 313 l 1
 173 313 l 1
 89 -25 l 1
 -55 -25 l 1
 136 741 l 1
 280 741 l 1
 206 447 l 1
 528 447 l 1
 602 741 l 1
 746 741 l 1
 555 -25 l 1
EndSplineSet
EndChar
StartChar: Theta
Encoding: 920 920
Width: 810
Flags: W
HStem: -37 132<288 319> 303 134<211 564> 623 132<452 485>
VStem: 0.27855 152.721<242 251> 617 152.275<459 469>
Fore
753 358 m 0
 734 279 700 210 653 150 c 0
 607 91 551 45 486 11 c 0
 423 -21 357 -37 288 -37 c 0
 227 -37 172 -24 121 2 c 1
 70 31 35 74 16 131 c 0
 5 160 0 192 0 228 c 0
 0 265 6 305 17 350 c 0
 32 411 55 467 85 518 c 0
 117 571 153 613 193 646 c 1
 234 682 280 709 330 727 c 0
 380 746 432 755 485 755 c 0
 531 755 574 748 613 733 c 0
 653 717 687 693 714 660 c 0
 742 627 759 585 766 534 c 0
 769 517 770 500 770 482 c 0
 770 445 764 403 753 358 c 0
605 358 m 0
 613 391 617 423 618 452 c 0
 618 458 618 464 617 470 c 0
 615 502 607 530 594 553 c 1
 579 576 561 593 538 605 c 0
 513 617 484 623 452 623 c 0
 418 623 386 617 355 605 c 0
 326 594 299 577 274 554 c 0
 249 531 227 502 209 469 c 0
 189 431 174 391 163 348 c 0
 156 317 152 290 152 265 c 0
 152 257 152 249 153 241 c 0
 155 212 164 185 179 162 c 0
 192 140 211 123 236 112 c 0
 259 101 286 95 319 95 c 0
 362 95 403 105 441 125 c 0
 480 146 514 176 541 214 c 0
 570 253 591 301 605 358 c 0
564 303 m 1
 178 303 l 1
 211 437 l 1
 597 437 l 1
 564 303 l 1
EndSplineSet
EndChar
StartChar: Iota
Encoding: 921 921
Width: 296
Flags: W
HStem: 721 20G<140 284>
DStem: 140 741 284 741 -51 -25 93 -25
Fore
93 -25 m 1
 -51 -25 l 1
 140 741 l 1
 284 741 l 1
 93 -25 l 1
EndSplineSet
MinimumDistance: x3,-1 
EndChar
StartChar: Kappa
Encoding: 922 922
Width: 744
Flags: W
HStem: 721 20G<145 289 607 799>
DStem: 145 741 289 741 -46 -25 209 423 145 741 163 237 -46 -25 98 -25 607 741 799 741 209 423 401 423
Fore
621 -25 m 1
 432 -25 l 1
 271 323 l 1
 163 237 l 1
 98 -25 l 1
 -46 -25 l 1
 145 741 l 1
 289 741 l 1
 209 423 l 1
 607 741 l 1
 799 741 l 1
 401 423 l 1
 621 -25 l 1
EndSplineSet
EndChar
StartChar: Lambda
Encoding: 923 923
Width: 744
Flags: W
HStem: -25 766<460 498>
Fore
620 -25 m 1
 460 -25 l 1
 392 483 l 1
 387 522 384 553 381 578 c 0
 379 589 378 608 377 635 c 1
 427 638 l 1
 420 619 408 595 393 566 c 0
 387 555 373 532 352 496 c 1
 32 -25 l 1
 -123 -25 l 1
 363 741 l 1
 498 741 l 1
 620 -25 l 1
EndSplineSet
EndChar
StartChar: Mu
Encoding: 924 924
Width: 860
Flags: W
HStem: -25 766<249 322>
DStem: 135 741 206 457 -56 -25 86 -25 206 457 322 741 249 -25 365 219 654 451 869 741 536 -25 678 -25 698 741 654 451 391 226 371 -25
Fore
678 -25 m 1
 536 -25 l 1
 654 451 l 1
 371 -25 l 1
 249 -25 l 1
 206 457 l 1
 86 -25 l 1
 -56 -25 l 1
 135 741 l 1
 322 741 l 1
 365 219 l 1
 367 200 368 187 369 179 c 0
 370 171 370 162 371 153 c 0
 372 149 372 146 372 145 c 0
 372 143 372 142 372 141 c 1
 373 143 374 162 375 197 c 1
 391 226 l 1
 698 741 l 1
 869 741 l 1
 678 -25 l 1
EndSplineSet
EndChar
StartChar: Nu
Encoding: 925 925
Width: 714
Flags: W
HStem: 721 20G<127 264 601 741>
DStem: 127 741 203 479 -64 -25 78 -25 203 479 264 741 415 -25 475 237 601 741 741 741 475 237 550 -25
Fore
550 -25 m 1
 415 -25 l 1
 203 479 l 1
 78 -25 l 1
 -64 -25 l 1
 127 741 l 1
 264 741 l 1
 475 237 l 1
 601 741 l 1
 741 741 l 1
 550 -25 l 1
EndSplineSet
EndChar
StartChar: Xi
Encoding: 926 926
Width: 690
Flags: W
HStem: -25 134<-17 534> 301 134<126 543> 607 134<141 675>
Fore
675 607 m 1
 107 607 l 1
 141 741 l 1
 709 741 l 1
 675 607 l 1
543 301 m 1
 93 301 l 1
 126 435 l 1
 576 435 l 1
 543 301 l 1
534 -25 m 1
 -50 -25 l 1
 -17 109 l 1
 567 109 l 1
 534 -25 l 1
EndSplineSet
EndChar
StartChar: Omicron
Encoding: 927 927
Width: 822
Flags: W
HStem: -51 132<285 318> 631 132<455 488>
VStem: 1 149<222 246> 624 148<467 490>
Fore
754 358 m 0
 722 230 663 130 577 58 c 0
 491 -15 394 -51 285 -51 c 0
 176 -51 96 -15 47 58 c 0
 16 102 1 156 1 221 c 0
 1 262 7 308 20 358 c 0
 51 483 110 582 196 654 c 0
 281 727 379 763 488 763 c 0
 597 763 677 727 726 654 c 0
 757 610 772 556 772 491 c 0
 772 450 766 406 754 358 c 0
608 356 m 0
 619 399 624 436 624 468 c 0
 624 511 614 545 595 569 c 0
 561 610 514 631 455 631 c 0
 396 631 339 610 285 569 c 0
 230 527 191 456 166 356 c 0
 155 313 150 276 150 244 c 0
 150 201 160 167 179 143 c 0
 212 102 259 81 318 81 c 0
 377 81 434 102 489 143 c 0
 543 185 583 256 608 356 c 0
EndSplineSet
MinimumDistance: x9,-1 
EndChar
StartChar: Pi
Encoding: 928 928
Width: 781
Flags: W
HStem: 607 134<261 582>
DStem: 151 741 761 741 -40 -25 570 -25 151 741 261 607 -40 -25 104 -25 583 607 761 741 426 -25 570 -25
Fore
570 -25 m 1
 426 -25 l 1
 583 607 l 1
 261 607 l 1
 104 -25 l 1
 -40 -25 l 1
 151 741 l 1
 761 741 l 1
 570 -25 l 1
EndSplineSet
MinimumDistance: x7,-1 
EndChar
StartChar: Rho
Encoding: 929 929
Width: 698
Flags: W
HStem: 267 134<209 370> 607 134<259 454>
VStem: 543 152<540 574>
DStem: 149 741 259 607 -42 -25 208 401 149 741 175 267 -42 -25 102 -25
Fore
687 510 m 0
 676 464 656 423 629 388 c 0
 601 350 561 320 510 298 c 0
 461 277 402 267 334 267 c 2
 175 267 l 1
 102 -25 l 1
 -42 -25 l 1
 149 741 l 1
 444 741 l 2
 497 741 536 739 562 734 c 0
 603 726 634 710 655 686 c 0
 676 663 689 635 693 604 c 0
 694 594 695 584 695 574 c 0
 695 553 692 532 687 510 c 0
538 506 m 0
 541 519 543 530 543 540 c 0
 543 571 528 592 498 602 c 1
 482 605 455 607 418 607 c 2
 259 607 l 1
 208 401 l 1
 369 401 l 2
 422 401 462 410 489 428 c 0
 512 443 529 469 538 506 c 0
EndSplineSet
MinimumDistance: x12,-1 
EndChar
StartChar: Sigma
Encoding: 931 931
Width: 688
Flags: W
HStem: -25 134<140 535> 609 134<306 673>
DStem: 115 625 330 564 250 386 431 386 250 386 431 386 -51 98 151 120 250 386 151 120 -51 98 139 109
Fore
535 -25 m 1
 -81 -25 l 1
 -51 98 l 1
 250 386 l 1
 115 625 l 1
 144 743 l 1
 706 743 l 1
 673 609 l 1
 305 609 l 1
 309 601 313 593 317 586 c 0
 322 579 326 572 330 564 c 2
 431 386 l 1
 151 120 l 1
 139 109 l 1
 568 109 l 1
 535 -25 l 1
EndSplineSet
MinimumDistance: x11,-1 
EndChar
StartChar: Tau
Encoding: 932 932
Width: 688
Flags: W
HStem: 607 134<110 311 456 694>
DStem: 110 741 456 607 76 607 299 -25 312 607 456 607 155 -25 299 -25
Fore
694 607 m 1
 456 607 l 1
 299 -25 l 1
 155 -25 l 1
 312 607 l 1
 76 607 l 1
 110 741 l 1
 728 741 l 1
 694 607 l 1
EndSplineSet
MinimumDistance: x1,-1 
EndChar
StartChar: Upsilon
Encoding: 933 933
Width: 744
Flags: W
HStem: 721 20G<63 238 642 814>
DStem: 63 741 238 741 250 296 330 514 250 296 394 296 170 -25 314 -25
Fore
814 741 m 1
 394 296 l 1
 314 -25 l 1
 170 -25 l 1
 250 296 l 1
 63 741 l 1
 238 741 l 1
 330 514 l 1
 345 473 356 445 361 429 c 1
 440 520 l 1
 642 741 l 1
 814 741 l 1
EndSplineSet
MinimumDistance: x1,-1 
EndChar
StartChar: Phi
Encoding: 934 934
Width: 777
Flags: W
VStem: -9 146<269 303> 577 145<407 435>
DStem: 214 49 347 49 196 -25 329 -25 336 536 469 536 245 171 378 171 389 745 520 745 368 662 499 662
Fore
711 353 m 0
 688 263 640 190 566 133 c 0
 501 82 428 54 347 49 c 1
 329 -25 l 1
 196 -25 l 1
 214 49 l 1
 135 54 76 82 37 133 c 1
 6 171 -9 216 -9 269 c 0
 -9 295 -5 323 2 353 c 0
 13 398 31 439 56 476 c 0
 81 513 111 547 148 576 c 0
 214 628 287 657 368 662 c 1
 389 745 l 1
 520 745 l 1
 499 662 l 1
 576 657 635 629 676 576 c 0
 707 535 722 488 722 435 c 0
 722 409 718 382 711 353 c 0
571 358 m 0
 575 375 577 392 577 407 c 0
 577 436 569 462 553 483 c 0
 533 510 505 527 469 536 c 1
 378 171 l 1
 419 180 457 199 490 226 c 0
 531 260 558 304 571 358 c 0
245 171 m 1
 336 536 l 1
 295 527 257 510 224 483 c 0
 184 452 157 410 144 358 c 0
 139 339 137 320 137 303 c 0
 137 273 144 247 159 226 c 0
 179 199 208 180 245 171 c 1
EndSplineSet
MinimumDistance: x16,-1 
EndChar
StartChar: Chi
Encoding: 935 935
Width: 783
Flags: W
HStem: 721 20G<110 283 647 813>
DStem: 110 741 283 741 280 374 372 547 280 374 313 235 -116 -25 61 -25 339 242 451 378 462 -25 641 -25 647 741 813 741 445 541 451 378
Fore
641 -25 m 1
 462 -25 l 1
 339 242 l 1
 333 258 l 1
 339 264 342 267 343 268 c 0
 343 269 343 269 344 270 c 2
 344 270 341 266 335 259 c 0
 330 254 326 249 321 244 c 0
 316 239 314 236 313 235 c 2
 61 -25 l 1
 -116 -25 l 1
 280 374 l 1
 110 741 l 1
 283 741 l 1
 372 547 l 1
 375 539 380 530 386 520 c 0
 391 509 395 502 396 497 c 0
 397 496 397 494 397 492 c 1
 398 493 400 495 401 497 c 0
 403 499 404 500 405 500 c 0
 406 501 406 502 407 503 c 0
 411 508 424 520 445 541 c 2
 647 741 l 1
 813 741 l 1
 451 378 l 1
 641 -25 l 1
EndSplineSet
EndChar
StartChar: Psi
Encoding: 936 936
Width: 805
Flags: W
HStem: -27 281<258 278> 121.105 621.895<400 432.021> 121.423 132.577<415 418>
DStem: 123 746 262 742 29 368 172 380 241 121 385 121 204 -27 348 -27 400 743 536 743 278 254 414 254 674 742 815 746 584 380 721 368
Fore
721 368 m 1
 704 301 676 249 636 210 c 0
 595 169 550 143 499 131 c 0
 473 124 435 121 384 121 c 2
 385 121 l 1
 348 -27 l 1
 204 -27 l 1
 241 121 l 1
 242 121 l 2
 191 121 154 124 132 131 c 0
 103 138 78 152 59 173 c 0
 40 192 28 219 21 253 c 0
 19 264 18 275 18 288 c 0
 18 312 22 339 29 368 c 2
 123 746 l 1
 262 742 l 1
 172 380 l 2
 167 359 164 341 164 326 c 0
 164 318 165 311 166 304 c 0
 169 288 179 276 195 268 c 0
 211 259 238 254 277 254 c 2
 278 254 l 1
 400 743 l 1
 536 743 l 1
 414 254 l 1
 415 254 l 2
 452 254 482 259 505 268 c 0
 526 276 541 288 552 304 c 0
 565 323 576 349 584 380 c 1
 674 742 l 1
 815 746 l 1
 721 368 l 1
EndSplineSet
EndChar
StartChar: Omega
Encoding: 937 937
Width: 780
Flags: W
HStem: -25 126<-48 73 545 631> 621 125.023<434 449>
VStem: 11 139<263 295> 600 143.064<446 463>
DStem: -48 101 265 97 -79 -25 235 -25 337 96 662 101 307 -25 631 -25
Fore
731 370 m 0
 714 300 684 239 641 187 c 0
 614 155 582 126 544 101 c 1
 662 101 l 1
 631 -25 l 1
 307 -25 l 1
 337 96 l 1
 410 124 467 161 507 207 c 0
 548 256 575 309 590 368 c 0
 597 395 600 421 600 446 c 0
 600 452 600 458 599 464 c 0
 596 497 588 525 576 547 c 0
 563 570 544 588 521 601 c 0
 498 614 468 621 433 621 c 0
 389 621 349 609 313 586 c 0
 275 562 243 531 217 492 c 0
 190 453 171 410 160 365 c 0
 153 337 150 310 150 285 c 0
 150 258 154 233 161 210 c 0
 175 162 210 124 265 97 c 1
 235 -25 l 1
 -79 -25 l 1
 -48 101 l 1
 74 101 l 1
 50 128 33 157 23 188 c 0
 15 214 11 242 11 271 c 0
 11 301 14 333 23 366 c 0
 38 427 67 488 108 547 c 1
 151 606 202 655 263 692 c 0
 326 729 392 747 462 747 c 0
 540 747 603 729 650 692 c 0
 696 655 725 607 737 550 c 0
 742 525 744 500 744 475 c 0
 744 440 740 405 731 370 c 0
EndSplineSet
EndChar
StartChar: Iotadieresis
Encoding: 938 938
Width: 367
Flags: W
HStem: 721 20G<157 301> 735 150<103 142 300 389>
DStem: 103 885 245 885 65 735 207 735 103 885 427 885 65 735 389 735 157 741 301 741 -34 -25 110 -25 285 885 427 885 247 735 389 735
Fore
389 735 m 1
 247 735 l 1
 285 885 l 1
 427 885 l 1
 389 735 l 1
207 735 m 1
 65 735 l 1
 103 885 l 1
 245 885 l 1
 207 735 l 1
110 -25 m 1
 -34 -25 l 1
 157 741 l 1
 301 741 l 1
 110 -25 l 1
EndSplineSet
EndChar
StartChar: Upsilondieresis
Encoding: 939 939
Width: 744
Flags: W
HStem: 721 20G<45 220 624 796> 735 150<285 389 467 571>
DStem: 45 741 220 741 232 296 312 514 232 296 376 296 152 -25 296 -25 285 885 427 885 247 735 389 735 467 885 609 885 429 735 571 735
Fore
571 735 m 1
 429 735 l 1
 467 885 l 1
 609 885 l 1
 571 735 l 1
389 735 m 1
 247 735 l 1
 285 885 l 1
 427 885 l 1
 389 735 l 1
796 741 m 1
 376 296 l 1
 296 -25 l 1
 152 -25 l 1
 232 296 l 1
 45 741 l 1
 220 741 l 1
 312 514 l 1
 327 473 338 445 343 429 c 1
 422 520 l 1
 624 741 l 1
 796 741 l 1
EndSplineSet
MinimumDistance: x3,-1 
EndChar
StartChar: alphatonos
Encoding: 940 940
Width: 656
Flags: W
HStem: -37 128<174 204> 429 126<290 321> 525 20G<464 586>
VStem: -18 135<140 182>
DStem: 464 545 586 545 453 502 475 99
Fore
629 789 m 1
 434 603 l 1
 309 603 l 1
 447 789 l 1
 629 789 l 1
365 262 m 0
 371 287 374 309 374 330 c 0
 374 351 372 369 365 386 c 0
 354 415 329 429 290 429 c 0
 252 429 220 416 194 390 c 0
 165 360 143 316 128 258 c 0
 121 229 117 203 117 182 c 0
 117 161 120 144 127 130 c 0
 140 104 166 91 204 91 c 0
 283 91 337 148 365 262 c 0
329 7 m 1
 283 -22 231 -37 174 -37 c 0
 92 -37 36 -12 6 37 c 0
 -10 64 -18 99 -18 140 c 0
 -18 175 -12 216 -1 262 c 0
 11 309 28 351 49 390 c 0
 70 427 96 459 127 484 c 0
 158 509 189 526 220 537 c 0
 251 549 285 555 321 555 c 0
 353 554 379 550 400 542 c 0
 421 533 438 520 453 502 c 1
 464 545 l 1
 586 545 l 1
 475 99 l 1
 473 93 l 1
 513 117 l 1
 519 -5 l 1
 468 -27 429 -38 401 -38 c 0
 383 -38 368 -33 355 -24 c 0
 342 -15 334 -4 329 7 c 1
EndSplineSet
MinimumDistance: x25,-1 
EndChar
StartChar: epsilontonos
Encoding: 941 941
Width: 570
Flags: W
HStem: -34.9971 119.997<152 179> 206 109<219 277> 437 120<265 298>
VStem: -53 139<88 130> 10 136<342 367> 375 128<373 402>
Fore
451 161 m 1
 432 112 409 74 382 45 c 0
 355 16 323 -4 286 -16 c 0
 248 -29 203 -35 150 -35 c 0
 15 -35 -53 6 -53 88 c 0
 -53 103 -51 119 -46 136 c 0
 -35 179 -16 211 11 234 c 0
 22 243 35 252 50 261 c 1
 39 270 30 279 25 287 c 0
 15 302 10 321 10 342 c 0
 10 355 12 370 16 386 c 0
 30 443 60 485 106 513 c 0
 151 541 215 556 298 557 c 2
 307 557 l 2
 357 557 397 551 427 538 c 0
 458 525 479 505 491 476 c 0
 499 456 503 431 503 402 c 0
 503 389 502 376 501 361 c 1
 374 361 l 1
 375 365 375 369 375 373 c 0
 375 396 366 412 349 421 c 0
 328 432 300 437 265 437 c 0
 197 437 158 418 147 380 c 0
 146 375 146 371 146 367 c 0
 146 351 150 339 159 332 c 0
 171 321 196 315 234 315 c 2
 305 315 l 1
 277 206 l 1
 206 206 l 2
 167 206 139 201 123 190 c 0
 108 180 96 164 87 141 c 0
 86 137 86 133 86 130 c 0
 86 100 116 85 177 85 c 0
 212 85 243 90 269 101 c 0
 294 111 313 131 324 161 c 1
 451 161 l 1
584 789 m 1
 389 603 l 1
 264 603 l 1
 402 789 l 1
 584 789 l 1
EndSplineSet
MinimumDistance: x16,-1 
EndChar
StartChar: etatonos
Encoding: 942 942
Width: 596
Flags: W
HStem: 429 126<337 386>
DStem: 82 414 188 284 -27 -25 111 -25 392 316 531 320 269 -177 397 -215
Fore
630 789 m 1
 435 603 l 1
 310 603 l 1
 448 789 l 1
 630 789 l 1
222 494 m 1
 231 505 l 2
 236 510 246 517 263 525 c 0
 279 533 298 540 320 546 c 0
 342 552 364 555 386 555 c 0
 425 555 458 548 483 535 c 0
 510 522 528 501 539 472 c 0
 545 456 548 438 548 419 c 0
 548 405 546 390 543 373 c 0
 542 366 538 348 531 320 c 2
 397 -215 l 1
 269 -177 l 1
 392 316 l 2
 398 340 401 359 401 374 c 0
 401 379 401 383 400 387 c 0
 395 415 374 429 337 429 c 0
 262 429 212 381 188 284 c 2
 111 -25 l 1
 -27 -25 l 1
 82 414 l 1
 83 416 84 418 85 421 c 0
 87 424 88 426 88 426 c 1
 87 426 75 423 50 418 c 1
 57 536 l 1
 96 549 128 556 152 556 c 0
 179 556 198 546 211 525 c 0
 217 516 221 506 222 494 c 1
EndSplineSet
MinimumDistance: x13,-1 
EndChar
StartChar: iotatonos
Encoding: 943 943
Width: 334
Flags: W
HStem: -33 578<73 90>
DStem: 73 545 211 545 -30 133 112 150
Fore
208 -1 m 1
 153 -22 109 -33 78 -33 c 0
 35 -33 2 -19 -20 8 c 0
 -32 24 -38 45 -38 72 c 0
 -38 90 -35 110 -30 133 c 1
 73 545 l 1
 211 545 l 1
 112 150 l 1
 111 145 110 140 109 137 c 0
 108 134 108 132 108 131 c 0
 108 130 108 127 108 123 c 0
 108 122 108 120 108 119 c 0
 108 114 110 110 114 106 c 0
 115 105 117 104 121 104 c 2
 126 104 l 2
 135 105 157 113 192 130 c 1
 208 -1 l 1
432 789 m 1
 237 603 l 1
 112 603 l 1
 250 789 l 1
 432 789 l 1
EndSplineSet
MinimumDistance: x6,-1 
EndChar
